M48
;DRILL file {KiCad 4.0.2-stable} date 05/06/2017 19:12:25
;FORMAT={-:-/ absolute / metric / decimal}
FMAT,2
METRIC,TZ
T1C0.813
T2C1.016
T3C2.000
%
G90
G05
M71
T1
X17.785Y-21.5
X17.785Y-26.5
X24.19Y-18.
X26.785Y-40.5
X26.785Y-45.5
X29.215Y-21.5
X29.215Y-26.5
X29.806Y-36.194
X31.81Y-18.
X35.194Y-30.806
X36.285Y-21.5
X36.285Y-26.5
X38.215Y-40.5
X38.215Y-45.5
X44.49Y-46.
X47.03Y-46.
X47.715Y-21.5
X47.715Y-26.5
X49.57Y-46.
X51.19Y-21.5
X52.11Y-46.
X54.65Y-46.
X57.19Y-46.
X58.81Y-21.5
X59.73Y-26.
X59.73Y-46.
X62.27Y-26.
X62.27Y-46.
X64.81Y-46.
X67.35Y-46.
X69.89Y-46.
X72.43Y-46.
X74.97Y-46.
X77.51Y-46.
X81.41Y-17.
X83.19Y-46.
X83.95Y-17.
X86.49Y-17.
X89.03Y-17.
X90.306Y-32.306
X90.73Y-49.5
X90.81Y-46.
X91.57Y-17.
X93.27Y-49.5
X94.11Y-17.
X95.694Y-37.694
X96.65Y-17.
X98.15Y-48.
X99.19Y-17.
X99.306Y-28.694
X100.69Y-48.
X101.73Y-17.
X103.23Y-48.
X104.27Y-17.
X104.694Y-23.306
X105.77Y-48.
X106.81Y-17.
X108.19Y-23.5
X108.31Y-48.
X109.35Y-17.
X110.85Y-48.
X111.89Y-17.
X114.43Y-17.
X115.81Y-23.5
X116.97Y-17.
X119.51Y-17.
X122.05Y-17.
X124.59Y-17.
T2
X66.5Y-19.
T3
X55.Y-17.
X130.Y-17.
X130.Y-48.
T0
M30
