G04 #@! TF.FileFunction,Copper,L2,Bot,Signal*
%FSLAX46Y46*%
G04 Gerber Fmt 4.6, Leading zero omitted, Abs format (unit mm)*
G04 Created by KiCad (PCBNEW 4.0.2-stable) date 05/06/2017 19:11:29*
%MOMM*%
G01*
G04 APERTURE LIST*
%ADD10C,0.150000*%
%ADD11C,2.032000*%
%ADD12C,1.778000*%
%ADD13C,4.064000*%
%ADD14R,2.032000X2.032000*%
%ADD15C,0.500000*%
%ADD16C,0.254000*%
G04 APERTURE END LIST*
D10*
D11*
X124590000Y-17000000D03*
X122050000Y-17000000D03*
X119510000Y-17000000D03*
X116970000Y-17000000D03*
X114430000Y-17000000D03*
X111890000Y-17000000D03*
X109350000Y-17000000D03*
X106810000Y-17000000D03*
X104270000Y-17000000D03*
X101730000Y-17000000D03*
X99190000Y-17000000D03*
X96650000Y-17000000D03*
X94110000Y-17000000D03*
X91570000Y-17000000D03*
X89030000Y-17000000D03*
X86490000Y-17000000D03*
X83950000Y-17000000D03*
X81410000Y-17000000D03*
D12*
X36285000Y-21500000D03*
X47715000Y-21500000D03*
X36285000Y-26500000D03*
X47715000Y-26500000D03*
X17785000Y-21500000D03*
X29215000Y-21500000D03*
X17785000Y-26500000D03*
X29215000Y-26500000D03*
X26785000Y-45500000D03*
X38215000Y-45500000D03*
X26785000Y-40500000D03*
X38215000Y-40500000D03*
D11*
X90305923Y-32305923D03*
X95694077Y-37694077D03*
X104694077Y-23305923D03*
X99305923Y-28694077D03*
X115810000Y-23500000D03*
X108190000Y-23500000D03*
X58810000Y-21500000D03*
X51190000Y-21500000D03*
X31810000Y-18000000D03*
X24190000Y-18000000D03*
X35194077Y-30805923D03*
X29805923Y-36194077D03*
D13*
X55000000Y-17000000D03*
X130000000Y-17000000D03*
X130000000Y-48000000D03*
D11*
X110850000Y-48000000D03*
X108310000Y-48000000D03*
X105770000Y-48000000D03*
X103230000Y-48000000D03*
X100690000Y-48000000D03*
X98150000Y-48000000D03*
D14*
X59730000Y-26000000D03*
D11*
X62270000Y-26000000D03*
D14*
X66500000Y-19000000D03*
D11*
X77510000Y-46000000D03*
X74970000Y-46000000D03*
X72430000Y-46000000D03*
X69890000Y-46000000D03*
X67350000Y-46000000D03*
X64810000Y-46000000D03*
X62270000Y-46000000D03*
X59730000Y-46000000D03*
X57190000Y-46000000D03*
X54650000Y-46000000D03*
X52110000Y-46000000D03*
X49570000Y-46000000D03*
X47030000Y-46000000D03*
X44490000Y-46000000D03*
X83190000Y-46000000D03*
X90810000Y-46000000D03*
X90730000Y-49500000D03*
X93270000Y-49500000D03*
D15*
X83190000Y-46000000D02*
X83000000Y-46000000D01*
X70350000Y-49000000D02*
X67350000Y-46000000D01*
X80000000Y-49000000D02*
X70350000Y-49000000D01*
X83000000Y-46000000D02*
X80000000Y-49000000D01*
X26785000Y-45500000D02*
X27000000Y-45500000D01*
X64850000Y-48500000D02*
X67350000Y-46000000D01*
X30000000Y-48500000D02*
X64850000Y-48500000D01*
X27000000Y-45500000D02*
X30000000Y-48500000D01*
X17785000Y-26500000D02*
X24500000Y-26500000D01*
X32000000Y-40285000D02*
X26785000Y-45500000D01*
X32000000Y-35000000D02*
X32000000Y-40285000D01*
X27500000Y-30500000D02*
X32000000Y-35000000D01*
X27500000Y-29500000D02*
X27500000Y-30500000D01*
X24500000Y-26500000D02*
X27500000Y-29500000D01*
X17785000Y-26500000D02*
X17785000Y-24715000D01*
X33285000Y-23500000D02*
X36285000Y-26500000D01*
X19000000Y-23500000D02*
X33285000Y-23500000D01*
X17785000Y-24715000D02*
X19000000Y-23500000D01*
X122050000Y-17000000D02*
X122050000Y-20950000D01*
X122050000Y-20950000D02*
X116500000Y-26500000D01*
X116500000Y-26500000D02*
X105500000Y-26500000D01*
X105500000Y-26500000D02*
X96500000Y-35500000D01*
X96500000Y-35500000D02*
X86500000Y-35500000D01*
X86500000Y-35500000D02*
X79500000Y-42500000D01*
X79500000Y-42500000D02*
X70850000Y-42500000D01*
X70850000Y-42500000D02*
X67350000Y-46000000D01*
X111890000Y-17000000D02*
X111890000Y-18110000D01*
X81270000Y-27000000D02*
X62270000Y-46000000D01*
X96000000Y-27000000D02*
X81270000Y-27000000D01*
X103000000Y-20000000D02*
X96000000Y-27000000D01*
X110000000Y-20000000D02*
X103000000Y-20000000D01*
X111890000Y-18110000D02*
X110000000Y-20000000D01*
X47715000Y-21500000D02*
X48000000Y-21500000D01*
X49570000Y-23070000D02*
X49570000Y-46000000D01*
X48000000Y-21500000D02*
X49570000Y-23070000D01*
X116970000Y-17000000D02*
X116970000Y-19530000D01*
X81810000Y-29000000D02*
X64810000Y-46000000D01*
X96000000Y-29000000D02*
X81810000Y-29000000D01*
X103500000Y-21500000D02*
X96000000Y-29000000D01*
X115000000Y-21500000D02*
X103500000Y-21500000D01*
X116970000Y-19530000D02*
X115000000Y-21500000D01*
X38215000Y-40500000D02*
X38215000Y-42215000D01*
X42000000Y-46000000D02*
X44490000Y-46000000D01*
X38215000Y-42215000D02*
X42000000Y-46000000D01*
X119510000Y-17000000D02*
X119510000Y-19800000D01*
X119510000Y-19800000D02*
X115810000Y-23500000D01*
X99305923Y-28694077D02*
X97000000Y-31000000D01*
X91611846Y-31000000D02*
X90305923Y-32305923D01*
X97000000Y-31000000D02*
X91611846Y-31000000D01*
X108190000Y-23500000D02*
X104888154Y-23500000D01*
X104888154Y-23500000D02*
X104694077Y-23305923D01*
D16*
G36*
X132373000Y-51373000D02*
X126251816Y-51373000D01*
X126251816Y-17268358D01*
X126228014Y-16611981D01*
X126022622Y-16116120D01*
X125754107Y-16015498D01*
X125574502Y-16195103D01*
X125574502Y-15835893D01*
X125473880Y-15567378D01*
X124858358Y-15338184D01*
X124201981Y-15361986D01*
X123706120Y-15567378D01*
X123605498Y-15835893D01*
X124590000Y-16820395D01*
X125574502Y-15835893D01*
X125574502Y-16195103D01*
X124769605Y-17000000D01*
X125754107Y-17984502D01*
X126022622Y-17883880D01*
X126251816Y-17268358D01*
X126251816Y-51373000D01*
X125574502Y-51373000D01*
X125574502Y-18164107D01*
X124590000Y-17179605D01*
X123605498Y-18164107D01*
X123706120Y-18432622D01*
X124321642Y-18661816D01*
X124978019Y-18638014D01*
X125473880Y-18432622D01*
X125574502Y-18164107D01*
X125574502Y-51373000D01*
X112511816Y-51373000D01*
X112511816Y-48268358D01*
X112488014Y-47611981D01*
X112282622Y-47116120D01*
X112014107Y-47015498D01*
X111834502Y-47195103D01*
X111834502Y-46835893D01*
X111733880Y-46567378D01*
X111118358Y-46338184D01*
X110461981Y-46361986D01*
X109966120Y-46567378D01*
X109865498Y-46835893D01*
X110850000Y-47820395D01*
X111834502Y-46835893D01*
X111834502Y-47195103D01*
X111029605Y-48000000D01*
X112014107Y-48984502D01*
X112282622Y-48883880D01*
X112511816Y-48268358D01*
X112511816Y-51373000D01*
X111834502Y-51373000D01*
X111834502Y-49164107D01*
X110850000Y-48179605D01*
X110670395Y-48359210D01*
X110670395Y-48000000D01*
X109685893Y-47015498D01*
X109580000Y-47055179D01*
X109474107Y-47015498D01*
X109294502Y-47195103D01*
X109294502Y-46835893D01*
X109193880Y-46567378D01*
X108578358Y-46338184D01*
X107921981Y-46361986D01*
X107426120Y-46567378D01*
X107325498Y-46835893D01*
X108310000Y-47820395D01*
X109294502Y-46835893D01*
X109294502Y-47195103D01*
X108489605Y-48000000D01*
X109474107Y-48984502D01*
X109580000Y-48944820D01*
X109685893Y-48984502D01*
X110670395Y-48000000D01*
X110670395Y-48359210D01*
X109865498Y-49164107D01*
X109966120Y-49432622D01*
X110581642Y-49661816D01*
X111238019Y-49638014D01*
X111733880Y-49432622D01*
X111834502Y-49164107D01*
X111834502Y-51373000D01*
X109294502Y-51373000D01*
X109294502Y-49164107D01*
X108310000Y-48179605D01*
X108130395Y-48359210D01*
X108130395Y-48000000D01*
X107145893Y-47015498D01*
X107127083Y-47022546D01*
X106706437Y-46601166D01*
X106099845Y-46349287D01*
X105443037Y-46348714D01*
X104836005Y-46599534D01*
X104499821Y-46935132D01*
X104166437Y-46601166D01*
X103559845Y-46349287D01*
X102903037Y-46348714D01*
X102296005Y-46599534D01*
X101959821Y-46935132D01*
X101626437Y-46601166D01*
X101019845Y-46349287D01*
X100363037Y-46348714D01*
X99756005Y-46599534D01*
X99419821Y-46935132D01*
X99086437Y-46601166D01*
X98479845Y-46349287D01*
X97823037Y-46348714D01*
X97332091Y-46551568D01*
X97332091Y-38082096D01*
X97213373Y-37821077D01*
X95821077Y-37821077D01*
X95821077Y-39213373D01*
X96082096Y-39332091D01*
X96679401Y-39058916D01*
X97126699Y-38577957D01*
X97332091Y-38082096D01*
X97332091Y-46551568D01*
X97216005Y-46599534D01*
X96751166Y-47063563D01*
X96499287Y-47670155D01*
X96498714Y-48326963D01*
X96749534Y-48933995D01*
X97213563Y-49398834D01*
X97820155Y-49650713D01*
X98476963Y-49651286D01*
X99083995Y-49400466D01*
X99420178Y-49064867D01*
X99753563Y-49398834D01*
X100360155Y-49650713D01*
X101016963Y-49651286D01*
X101623995Y-49400466D01*
X101960178Y-49064867D01*
X102293563Y-49398834D01*
X102900155Y-49650713D01*
X103556963Y-49651286D01*
X104163995Y-49400466D01*
X104500178Y-49064867D01*
X104833563Y-49398834D01*
X105440155Y-49650713D01*
X106096963Y-49651286D01*
X106703995Y-49400466D01*
X107127565Y-48977633D01*
X107145893Y-48984502D01*
X108130395Y-48000000D01*
X108130395Y-48359210D01*
X107325498Y-49164107D01*
X107426120Y-49432622D01*
X108041642Y-49661816D01*
X108698019Y-49638014D01*
X109193880Y-49432622D01*
X109294502Y-49164107D01*
X109294502Y-51373000D01*
X95567077Y-51373000D01*
X95567077Y-39213373D01*
X95567077Y-37821077D01*
X94174781Y-37821077D01*
X94056063Y-38082096D01*
X94329238Y-38679401D01*
X94810197Y-39126699D01*
X95306058Y-39332091D01*
X95567077Y-39213373D01*
X95567077Y-51373000D01*
X94921286Y-51373000D01*
X94921286Y-49173037D01*
X94670466Y-48566005D01*
X94206437Y-48101166D01*
X93599845Y-47849287D01*
X92943037Y-47848714D01*
X92461286Y-48047769D01*
X92461286Y-45673037D01*
X92210466Y-45066005D01*
X91746437Y-44601166D01*
X91139845Y-44349287D01*
X90483037Y-44348714D01*
X89876005Y-44599534D01*
X89411166Y-45063563D01*
X89159287Y-45670155D01*
X89158714Y-46326963D01*
X89409534Y-46933995D01*
X89873563Y-47398834D01*
X90480155Y-47650713D01*
X91136963Y-47651286D01*
X91743995Y-47400466D01*
X92208834Y-46936437D01*
X92460713Y-46329845D01*
X92461286Y-45673037D01*
X92461286Y-48047769D01*
X92336005Y-48099534D01*
X91999821Y-48435132D01*
X91666437Y-48101166D01*
X91059845Y-47849287D01*
X90403037Y-47848714D01*
X89796005Y-48099534D01*
X89331166Y-48563563D01*
X89079287Y-49170155D01*
X89078714Y-49826963D01*
X89329534Y-50433995D01*
X89793563Y-50898834D01*
X90400155Y-51150713D01*
X91056963Y-51151286D01*
X91663995Y-50900466D01*
X92000178Y-50564867D01*
X92333563Y-50898834D01*
X92940155Y-51150713D01*
X93596963Y-51151286D01*
X94203995Y-50900466D01*
X94668834Y-50436437D01*
X94920713Y-49829845D01*
X94921286Y-49173037D01*
X94921286Y-51373000D01*
X25052605Y-51373000D01*
X21627000Y-47947395D01*
X21627000Y-39552605D01*
X25627000Y-35552605D01*
X25627000Y-31447395D01*
X23552605Y-29373000D01*
X17552605Y-29373000D01*
X16627000Y-28447395D01*
X16627000Y-27497120D01*
X16920597Y-27791230D01*
X17480528Y-28023734D01*
X18086812Y-28024263D01*
X18647148Y-27792737D01*
X19055597Y-27385000D01*
X24133420Y-27385000D01*
X26615000Y-29866579D01*
X26615000Y-30499994D01*
X26614999Y-30500000D01*
X26671189Y-30782484D01*
X26682367Y-30838675D01*
X26874210Y-31125790D01*
X30402571Y-34654150D01*
X30135768Y-34543364D01*
X29478960Y-34542791D01*
X28871928Y-34793611D01*
X28407089Y-35257640D01*
X28155210Y-35864232D01*
X28154637Y-36521040D01*
X28405457Y-37128072D01*
X28869486Y-37592911D01*
X29476078Y-37844790D01*
X30132886Y-37845363D01*
X30739918Y-37594543D01*
X31115000Y-37220114D01*
X31115000Y-39918420D01*
X28309263Y-42724156D01*
X28309263Y-40198188D01*
X28077737Y-39637852D01*
X27649403Y-39208770D01*
X27089472Y-38976266D01*
X26483188Y-38975737D01*
X25922852Y-39207263D01*
X25493770Y-39635597D01*
X25261266Y-40195528D01*
X25260737Y-40801812D01*
X25492263Y-41362148D01*
X25920597Y-41791230D01*
X26480528Y-42023734D01*
X27086812Y-42024263D01*
X27647148Y-41792737D01*
X28076230Y-41364403D01*
X28308734Y-40804472D01*
X28309263Y-40198188D01*
X28309263Y-42724156D01*
X27057182Y-43976237D01*
X26483188Y-43975737D01*
X25922852Y-44207263D01*
X25493770Y-44635597D01*
X25261266Y-45195528D01*
X25260737Y-45801812D01*
X25492263Y-46362148D01*
X25920597Y-46791230D01*
X26480528Y-47023734D01*
X27086812Y-47024263D01*
X27218337Y-46969917D01*
X29374207Y-49125786D01*
X29374210Y-49125790D01*
X29661325Y-49317633D01*
X30000000Y-49385000D01*
X64849994Y-49385000D01*
X64850000Y-49385001D01*
X64850000Y-49385000D01*
X65132484Y-49328810D01*
X65188674Y-49317633D01*
X65188675Y-49317633D01*
X65475790Y-49125790D01*
X66971195Y-47630383D01*
X67020155Y-47650713D01*
X67676963Y-47651286D01*
X67728437Y-47630017D01*
X69724207Y-49625786D01*
X69724210Y-49625790D01*
X70011325Y-49817633D01*
X70350000Y-49885000D01*
X79999994Y-49885000D01*
X80000000Y-49885001D01*
X80000000Y-49885000D01*
X80282484Y-49828810D01*
X80338674Y-49817633D01*
X80338675Y-49817633D01*
X80625790Y-49625790D01*
X82676942Y-47574636D01*
X82860155Y-47650713D01*
X83516963Y-47651286D01*
X84123995Y-47400466D01*
X84588834Y-46936437D01*
X84840713Y-46329845D01*
X84841286Y-45673037D01*
X84590466Y-45066005D01*
X84126437Y-44601166D01*
X83519845Y-44349287D01*
X82863037Y-44348714D01*
X82256005Y-44599534D01*
X81791166Y-45063563D01*
X81539287Y-45670155D01*
X81538816Y-46209604D01*
X79633420Y-48115000D01*
X79161286Y-48115000D01*
X79161286Y-45673037D01*
X78910466Y-45066005D01*
X78446437Y-44601166D01*
X77839845Y-44349287D01*
X77183037Y-44348714D01*
X76576005Y-44599534D01*
X76239821Y-44935132D01*
X75906437Y-44601166D01*
X75299845Y-44349287D01*
X74643037Y-44348714D01*
X74036005Y-44599534D01*
X73699821Y-44935132D01*
X73366437Y-44601166D01*
X72759845Y-44349287D01*
X72103037Y-44348714D01*
X71496005Y-44599534D01*
X71072434Y-45022366D01*
X71054107Y-45015498D01*
X70069605Y-46000000D01*
X71054107Y-46984502D01*
X71072916Y-46977453D01*
X71493563Y-47398834D01*
X72100155Y-47650713D01*
X72756963Y-47651286D01*
X73363995Y-47400466D01*
X73700178Y-47064867D01*
X74033563Y-47398834D01*
X74640155Y-47650713D01*
X75296963Y-47651286D01*
X75903995Y-47400466D01*
X76240178Y-47064867D01*
X76573563Y-47398834D01*
X77180155Y-47650713D01*
X77836963Y-47651286D01*
X78443995Y-47400466D01*
X78908834Y-46936437D01*
X79160713Y-46329845D01*
X79161286Y-45673037D01*
X79161286Y-48115000D01*
X70716579Y-48115000D01*
X70240937Y-47639358D01*
X70278019Y-47638014D01*
X70773880Y-47432622D01*
X70874502Y-47164107D01*
X69890000Y-46179605D01*
X69875857Y-46193747D01*
X69696252Y-46014142D01*
X69710395Y-46000000D01*
X69696252Y-45985857D01*
X69875857Y-45806252D01*
X69890000Y-45820395D01*
X70874502Y-44835893D01*
X70773880Y-44567378D01*
X70234895Y-44366683D01*
X71216579Y-43385000D01*
X79499994Y-43385000D01*
X79500000Y-43385001D01*
X79500000Y-43385000D01*
X79782484Y-43328810D01*
X79838674Y-43317633D01*
X79838675Y-43317633D01*
X80125790Y-43125790D01*
X86866579Y-36385000D01*
X94656893Y-36385000D01*
X94261455Y-36810197D01*
X94056063Y-37306058D01*
X94174781Y-37567077D01*
X95567077Y-37567077D01*
X95567077Y-36385000D01*
X95821077Y-36385000D01*
X95821077Y-37567077D01*
X97213373Y-37567077D01*
X97332091Y-37306058D01*
X97058916Y-36708753D01*
X96673657Y-36350457D01*
X96782484Y-36328810D01*
X96838674Y-36317633D01*
X96838675Y-36317633D01*
X97125790Y-36125790D01*
X105866579Y-27385000D01*
X116499994Y-27385000D01*
X116500000Y-27385001D01*
X116500000Y-27385000D01*
X116782484Y-27328810D01*
X116838674Y-27317633D01*
X116838675Y-27317633D01*
X117125790Y-27125790D01*
X122675786Y-21575792D01*
X122675789Y-21575790D01*
X122675790Y-21575790D01*
X122867633Y-21288675D01*
X122935000Y-20950000D01*
X122935001Y-20950000D01*
X122935000Y-20949994D01*
X122935000Y-18420710D01*
X122983995Y-18400466D01*
X123407565Y-17977633D01*
X123425893Y-17984502D01*
X124410395Y-17000000D01*
X123425893Y-16015498D01*
X123407083Y-16022546D01*
X122986437Y-15601166D01*
X122379845Y-15349287D01*
X121723037Y-15348714D01*
X121116005Y-15599534D01*
X120779821Y-15935132D01*
X120446437Y-15601166D01*
X119839845Y-15349287D01*
X119183037Y-15348714D01*
X118576005Y-15599534D01*
X118239821Y-15935132D01*
X117906437Y-15601166D01*
X117299845Y-15349287D01*
X116643037Y-15348714D01*
X116036005Y-15599534D01*
X115612434Y-16022366D01*
X115594107Y-16015498D01*
X115414502Y-16195103D01*
X115414502Y-15835893D01*
X115313880Y-15567378D01*
X114698358Y-15338184D01*
X114041981Y-15361986D01*
X113546120Y-15567378D01*
X113445498Y-15835893D01*
X114430000Y-16820395D01*
X115414502Y-15835893D01*
X115414502Y-16195103D01*
X114609605Y-17000000D01*
X115594107Y-17984502D01*
X115612916Y-17977453D01*
X116033563Y-18398834D01*
X116085000Y-18420192D01*
X116085000Y-19163420D01*
X115414502Y-19833918D01*
X115414502Y-18164107D01*
X114430000Y-17179605D01*
X113445498Y-18164107D01*
X113546120Y-18432622D01*
X114161642Y-18661816D01*
X114818019Y-18638014D01*
X115313880Y-18432622D01*
X115414502Y-18164107D01*
X115414502Y-19833918D01*
X114633420Y-20615000D01*
X110636579Y-20615000D01*
X112515786Y-18735792D01*
X112515789Y-18735790D01*
X112515790Y-18735790D01*
X112707633Y-18448675D01*
X112707661Y-18448534D01*
X112823995Y-18400466D01*
X113247565Y-17977633D01*
X113265893Y-17984502D01*
X114250395Y-17000000D01*
X113265893Y-16015498D01*
X113247083Y-16022546D01*
X112826437Y-15601166D01*
X112219845Y-15349287D01*
X111563037Y-15348714D01*
X110956005Y-15599534D01*
X110619821Y-15935132D01*
X110286437Y-15601166D01*
X109679845Y-15349287D01*
X109023037Y-15348714D01*
X108416005Y-15599534D01*
X108079821Y-15935132D01*
X107746437Y-15601166D01*
X107139845Y-15349287D01*
X106483037Y-15348714D01*
X105876005Y-15599534D01*
X105539821Y-15935132D01*
X105206437Y-15601166D01*
X104599845Y-15349287D01*
X103943037Y-15348714D01*
X103336005Y-15599534D01*
X102999821Y-15935132D01*
X102666437Y-15601166D01*
X102059845Y-15349287D01*
X101403037Y-15348714D01*
X100796005Y-15599534D01*
X100459821Y-15935132D01*
X100126437Y-15601166D01*
X99519845Y-15349287D01*
X98863037Y-15348714D01*
X98256005Y-15599534D01*
X97919821Y-15935132D01*
X97586437Y-15601166D01*
X96979845Y-15349287D01*
X96323037Y-15348714D01*
X95716005Y-15599534D01*
X95379821Y-15935132D01*
X95046437Y-15601166D01*
X94439845Y-15349287D01*
X93783037Y-15348714D01*
X93176005Y-15599534D01*
X92839821Y-15935132D01*
X92506437Y-15601166D01*
X91899845Y-15349287D01*
X91243037Y-15348714D01*
X90636005Y-15599534D01*
X90299821Y-15935132D01*
X89966437Y-15601166D01*
X89359845Y-15349287D01*
X88703037Y-15348714D01*
X88096005Y-15599534D01*
X87759821Y-15935132D01*
X87426437Y-15601166D01*
X86819845Y-15349287D01*
X86163037Y-15348714D01*
X85556005Y-15599534D01*
X85219821Y-15935132D01*
X84886437Y-15601166D01*
X84279845Y-15349287D01*
X83623037Y-15348714D01*
X83016005Y-15599534D01*
X82679821Y-15935132D01*
X82346437Y-15601166D01*
X81739845Y-15349287D01*
X81083037Y-15348714D01*
X80476005Y-15599534D01*
X80011166Y-16063563D01*
X79759287Y-16670155D01*
X79758714Y-17326963D01*
X80009534Y-17933995D01*
X80473563Y-18398834D01*
X81080155Y-18650713D01*
X81736963Y-18651286D01*
X82343995Y-18400466D01*
X82680178Y-18064867D01*
X83013563Y-18398834D01*
X83620155Y-18650713D01*
X84276963Y-18651286D01*
X84883995Y-18400466D01*
X85220178Y-18064867D01*
X85553563Y-18398834D01*
X86160155Y-18650713D01*
X86816963Y-18651286D01*
X87423995Y-18400466D01*
X87760178Y-18064867D01*
X88093563Y-18398834D01*
X88700155Y-18650713D01*
X89356963Y-18651286D01*
X89963995Y-18400466D01*
X90300178Y-18064867D01*
X90633563Y-18398834D01*
X91240155Y-18650713D01*
X91896963Y-18651286D01*
X92503995Y-18400466D01*
X92840178Y-18064867D01*
X93173563Y-18398834D01*
X93780155Y-18650713D01*
X94436963Y-18651286D01*
X95043995Y-18400466D01*
X95380178Y-18064867D01*
X95713563Y-18398834D01*
X96320155Y-18650713D01*
X96976963Y-18651286D01*
X97583995Y-18400466D01*
X97920178Y-18064867D01*
X98253563Y-18398834D01*
X98860155Y-18650713D01*
X99516963Y-18651286D01*
X100123995Y-18400466D01*
X100460178Y-18064867D01*
X100793563Y-18398834D01*
X101400155Y-18650713D01*
X102056963Y-18651286D01*
X102663995Y-18400466D01*
X103000178Y-18064867D01*
X103333563Y-18398834D01*
X103940155Y-18650713D01*
X104596963Y-18651286D01*
X105203995Y-18400466D01*
X105540178Y-18064867D01*
X105873563Y-18398834D01*
X106480155Y-18650713D01*
X107136963Y-18651286D01*
X107743995Y-18400466D01*
X108080178Y-18064867D01*
X108413563Y-18398834D01*
X109020155Y-18650713D01*
X109676963Y-18651286D01*
X110283995Y-18400466D01*
X110620178Y-18064867D01*
X110651838Y-18096582D01*
X109633420Y-19115000D01*
X103000000Y-19115000D01*
X102999999Y-19115000D01*
X102661325Y-19182367D01*
X102374210Y-19374210D01*
X102374207Y-19374213D01*
X95633420Y-26115000D01*
X81270000Y-26115000D01*
X80931325Y-26182367D01*
X80644210Y-26374210D01*
X80644207Y-26374213D01*
X68151110Y-38867309D01*
X68151110Y-19890245D01*
X68151110Y-17858245D01*
X68054641Y-17624771D01*
X67876168Y-17445987D01*
X67642864Y-17349111D01*
X67390245Y-17348890D01*
X65358245Y-17348890D01*
X65124771Y-17445359D01*
X64945987Y-17623832D01*
X64849111Y-17857136D01*
X64848890Y-18109755D01*
X64848890Y-20141755D01*
X64945359Y-20375229D01*
X65123832Y-20554013D01*
X65357136Y-20650889D01*
X65609755Y-20651110D01*
X67641755Y-20651110D01*
X67875229Y-20554641D01*
X68054013Y-20376168D01*
X68150889Y-20142864D01*
X68151110Y-19890245D01*
X68151110Y-38867309D01*
X63921286Y-43097133D01*
X63921286Y-25673037D01*
X63670466Y-25066005D01*
X63206437Y-24601166D01*
X62599845Y-24349287D01*
X61943037Y-24348714D01*
X61336005Y-24599534D01*
X61292257Y-24643205D01*
X61284641Y-24624771D01*
X61106168Y-24445987D01*
X60872864Y-24349111D01*
X60620245Y-24348890D01*
X60471816Y-24348890D01*
X60471816Y-21768358D01*
X60448014Y-21111981D01*
X60242622Y-20616120D01*
X59974107Y-20515498D01*
X59794502Y-20695103D01*
X59794502Y-20335893D01*
X59693880Y-20067378D01*
X59078358Y-19838184D01*
X58421981Y-19861986D01*
X57926120Y-20067378D01*
X57825498Y-20335893D01*
X58810000Y-21320395D01*
X59794502Y-20335893D01*
X59794502Y-20695103D01*
X58989605Y-21500000D01*
X59974107Y-22484502D01*
X60242622Y-22383880D01*
X60471816Y-21768358D01*
X60471816Y-24348890D01*
X59794502Y-24348890D01*
X59794502Y-22664107D01*
X58810000Y-21679605D01*
X58630395Y-21859210D01*
X58630395Y-21500000D01*
X57645893Y-20515498D01*
X57377378Y-20616120D01*
X57148184Y-21231642D01*
X57171986Y-21888019D01*
X57377378Y-22383880D01*
X57645893Y-22484502D01*
X58630395Y-21500000D01*
X58630395Y-21859210D01*
X57825498Y-22664107D01*
X57926120Y-22932622D01*
X58541642Y-23161816D01*
X59198019Y-23138014D01*
X59693880Y-22932622D01*
X59794502Y-22664107D01*
X59794502Y-24348890D01*
X58588245Y-24348890D01*
X58354771Y-24445359D01*
X58175987Y-24623832D01*
X58079111Y-24857136D01*
X58078890Y-25109755D01*
X58078890Y-27141755D01*
X58175359Y-27375229D01*
X58353832Y-27554013D01*
X58587136Y-27650889D01*
X58839755Y-27651110D01*
X60871755Y-27651110D01*
X61105229Y-27554641D01*
X61284013Y-27376168D01*
X61291922Y-27357120D01*
X61333563Y-27398834D01*
X61940155Y-27650713D01*
X62596963Y-27651286D01*
X63203995Y-27400466D01*
X63668834Y-26936437D01*
X63920713Y-26329845D01*
X63921286Y-25673037D01*
X63921286Y-43097133D01*
X62648803Y-44369616D01*
X62599845Y-44349287D01*
X61943037Y-44348714D01*
X61336005Y-44599534D01*
X60999821Y-44935132D01*
X60666437Y-44601166D01*
X60059845Y-44349287D01*
X59403037Y-44348714D01*
X58796005Y-44599534D01*
X58459821Y-44935132D01*
X58126437Y-44601166D01*
X57519845Y-44349287D01*
X56863037Y-44348714D01*
X56256005Y-44599534D01*
X55919821Y-44935132D01*
X55586437Y-44601166D01*
X54979845Y-44349287D01*
X54323037Y-44348714D01*
X53716005Y-44599534D01*
X53379821Y-44935132D01*
X53046437Y-44601166D01*
X52439845Y-44349287D01*
X51783037Y-44348714D01*
X51176005Y-44599534D01*
X50839821Y-44935132D01*
X50506437Y-44601166D01*
X50455000Y-44579807D01*
X50455000Y-23070000D01*
X50436023Y-22974598D01*
X50860155Y-23150713D01*
X51516963Y-23151286D01*
X52123995Y-22900466D01*
X52588834Y-22436437D01*
X52840713Y-21829845D01*
X52841286Y-21173037D01*
X52590466Y-20566005D01*
X52126437Y-20101166D01*
X51519845Y-19849287D01*
X50863037Y-19848714D01*
X50256005Y-20099534D01*
X49791166Y-20563563D01*
X49539287Y-21170155D01*
X49538748Y-21787169D01*
X49239010Y-21487431D01*
X49239263Y-21198188D01*
X49007737Y-20637852D01*
X48579403Y-20208770D01*
X48019472Y-19976266D01*
X47413188Y-19975737D01*
X46852852Y-20207263D01*
X46423770Y-20635597D01*
X46191266Y-21195528D01*
X46190737Y-21801812D01*
X46422263Y-22362148D01*
X46850597Y-22791230D01*
X47410528Y-23023734D01*
X48016812Y-23024263D01*
X48197871Y-22949450D01*
X48685000Y-23436579D01*
X48685000Y-25314551D01*
X48579403Y-25208770D01*
X48019472Y-24976266D01*
X47413188Y-24975737D01*
X46852852Y-25207263D01*
X46423770Y-25635597D01*
X46191266Y-26195528D01*
X46190737Y-26801812D01*
X46422263Y-27362148D01*
X46850597Y-27791230D01*
X47410528Y-28023734D01*
X48016812Y-28024263D01*
X48577148Y-27792737D01*
X48685000Y-27685073D01*
X48685000Y-44579289D01*
X48636005Y-44599534D01*
X48299821Y-44935132D01*
X47966437Y-44601166D01*
X47359845Y-44349287D01*
X46703037Y-44348714D01*
X46096005Y-44599534D01*
X45759821Y-44935132D01*
X45426437Y-44601166D01*
X44819845Y-44349287D01*
X44163037Y-44348714D01*
X43556005Y-44599534D01*
X43091166Y-45063563D01*
X43069807Y-45115000D01*
X42366579Y-45115000D01*
X39100000Y-41848420D01*
X39100000Y-41769924D01*
X39506230Y-41364403D01*
X39738734Y-40804472D01*
X39739263Y-40198188D01*
X39507737Y-39637852D01*
X39079403Y-39208770D01*
X38519472Y-38976266D01*
X37913188Y-38975737D01*
X37352852Y-39207263D01*
X36923770Y-39635597D01*
X36832091Y-39856384D01*
X36832091Y-31193942D01*
X36832091Y-30417904D01*
X36558916Y-29820599D01*
X36077957Y-29373301D01*
X35582096Y-29167909D01*
X35321077Y-29286627D01*
X35321077Y-30678923D01*
X36713373Y-30678923D01*
X36832091Y-30417904D01*
X36832091Y-31193942D01*
X36713373Y-30932923D01*
X35321077Y-30932923D01*
X35321077Y-32325219D01*
X35582096Y-32443937D01*
X36179401Y-32170762D01*
X36626699Y-31689803D01*
X36832091Y-31193942D01*
X36832091Y-39856384D01*
X36691266Y-40195528D01*
X36690737Y-40801812D01*
X36922263Y-41362148D01*
X37330000Y-41770597D01*
X37330000Y-42214994D01*
X37329999Y-42215000D01*
X37386189Y-42497484D01*
X37397367Y-42553675D01*
X37589210Y-42840790D01*
X38870407Y-44121987D01*
X38519472Y-43976266D01*
X37913188Y-43975737D01*
X37352852Y-44207263D01*
X36923770Y-44635597D01*
X36691266Y-45195528D01*
X36690737Y-45801812D01*
X36922263Y-46362148D01*
X37350597Y-46791230D01*
X37910528Y-47023734D01*
X38516812Y-47024263D01*
X39077148Y-46792737D01*
X39506230Y-46364403D01*
X39738734Y-45804472D01*
X39739263Y-45198188D01*
X39593264Y-44844843D01*
X41374207Y-46625786D01*
X41374210Y-46625790D01*
X41661325Y-46817633D01*
X42000000Y-46885000D01*
X43069289Y-46885000D01*
X43089534Y-46933995D01*
X43553563Y-47398834D01*
X44074148Y-47615000D01*
X35067077Y-47615000D01*
X35067077Y-32325219D01*
X35067077Y-30932923D01*
X35067077Y-30678923D01*
X35067077Y-29286627D01*
X34806058Y-29167909D01*
X34208753Y-29441084D01*
X33761455Y-29922043D01*
X33556063Y-30417904D01*
X33674781Y-30678923D01*
X35067077Y-30678923D01*
X35067077Y-30932923D01*
X33674781Y-30932923D01*
X33556063Y-31193942D01*
X33829238Y-31791247D01*
X34310197Y-32238545D01*
X34806058Y-32443937D01*
X35067077Y-32325219D01*
X35067077Y-47615000D01*
X30366579Y-47615000D01*
X28308949Y-45557369D01*
X28309237Y-45227342D01*
X32625786Y-40910792D01*
X32625789Y-40910790D01*
X32625790Y-40910790D01*
X32817633Y-40623675D01*
X32885000Y-40285001D01*
X32884999Y-40285000D01*
X32885000Y-40285000D01*
X32885000Y-35000005D01*
X32885000Y-35000000D01*
X32885001Y-35000000D01*
X32828810Y-34717515D01*
X32817633Y-34661326D01*
X32817633Y-34661325D01*
X32625790Y-34374210D01*
X32625786Y-34374207D01*
X30739263Y-32487683D01*
X30739263Y-26198188D01*
X30507737Y-25637852D01*
X30079403Y-25208770D01*
X29519472Y-24976266D01*
X28913188Y-24975737D01*
X28352852Y-25207263D01*
X27923770Y-25635597D01*
X27691266Y-26195528D01*
X27690737Y-26801812D01*
X27922263Y-27362148D01*
X28350597Y-27791230D01*
X28910528Y-28023734D01*
X29516812Y-28024263D01*
X30077148Y-27792737D01*
X30506230Y-27364403D01*
X30738734Y-26804472D01*
X30739263Y-26198188D01*
X30739263Y-32487683D01*
X28385000Y-30133420D01*
X28385000Y-29500000D01*
X28317633Y-29161325D01*
X28125790Y-28874210D01*
X28125786Y-28874207D01*
X25125790Y-25874210D01*
X24838675Y-25682367D01*
X24782484Y-25671189D01*
X24500000Y-25614999D01*
X24499994Y-25615000D01*
X19054924Y-25615000D01*
X18670000Y-25229402D01*
X18670000Y-25081579D01*
X19366579Y-24385000D01*
X32918420Y-24385000D01*
X34761237Y-26227817D01*
X34760737Y-26801812D01*
X34992263Y-27362148D01*
X35420597Y-27791230D01*
X35980528Y-28023734D01*
X36586812Y-28024263D01*
X37147148Y-27792737D01*
X37576230Y-27364403D01*
X37808734Y-26804472D01*
X37809263Y-26198188D01*
X37809263Y-21198188D01*
X37577737Y-20637852D01*
X37149403Y-20208770D01*
X36589472Y-19976266D01*
X35983188Y-19975737D01*
X35422852Y-20207263D01*
X34993770Y-20635597D01*
X34761266Y-21195528D01*
X34760737Y-21801812D01*
X34992263Y-22362148D01*
X35420597Y-22791230D01*
X35980528Y-23023734D01*
X36586812Y-23024263D01*
X37147148Y-22792737D01*
X37576230Y-22364403D01*
X37808734Y-21804472D01*
X37809263Y-21198188D01*
X37809263Y-26198188D01*
X37577737Y-25637852D01*
X37149403Y-25208770D01*
X36589472Y-24976266D01*
X36012341Y-24975762D01*
X33910790Y-22874210D01*
X33623675Y-22682367D01*
X33567484Y-22671189D01*
X33471816Y-22652159D01*
X33471816Y-18268358D01*
X33448014Y-17611981D01*
X33242622Y-17116120D01*
X32974107Y-17015498D01*
X32794502Y-17195103D01*
X32794502Y-16835893D01*
X32693880Y-16567378D01*
X32078358Y-16338184D01*
X31421981Y-16361986D01*
X30926120Y-16567378D01*
X30825498Y-16835893D01*
X31810000Y-17820395D01*
X32794502Y-16835893D01*
X32794502Y-17195103D01*
X31989605Y-18000000D01*
X32974107Y-18984502D01*
X33242622Y-18883880D01*
X33471816Y-18268358D01*
X33471816Y-22652159D01*
X33285000Y-22614999D01*
X33284994Y-22615000D01*
X32794502Y-22615000D01*
X32794502Y-19164107D01*
X31810000Y-18179605D01*
X31630395Y-18359210D01*
X31630395Y-18000000D01*
X30645893Y-17015498D01*
X30377378Y-17116120D01*
X30148184Y-17731642D01*
X30171986Y-18388019D01*
X30377378Y-18883880D01*
X30645893Y-18984502D01*
X31630395Y-18000000D01*
X31630395Y-18359210D01*
X30825498Y-19164107D01*
X30926120Y-19432622D01*
X31541642Y-19661816D01*
X32198019Y-19638014D01*
X32693880Y-19432622D01*
X32794502Y-19164107D01*
X32794502Y-22615000D01*
X30255195Y-22615000D01*
X30506230Y-22364403D01*
X30738734Y-21804472D01*
X30739263Y-21198188D01*
X30507737Y-20637852D01*
X30079403Y-20208770D01*
X29519472Y-19976266D01*
X28913188Y-19975737D01*
X28352852Y-20207263D01*
X27923770Y-20635597D01*
X27691266Y-21195528D01*
X27690737Y-21801812D01*
X27922263Y-22362148D01*
X28174674Y-22615000D01*
X25841286Y-22615000D01*
X25841286Y-17673037D01*
X25590466Y-17066005D01*
X25126437Y-16601166D01*
X24519845Y-16349287D01*
X23863037Y-16348714D01*
X23256005Y-16599534D01*
X22791166Y-17063563D01*
X22539287Y-17670155D01*
X22538714Y-18326963D01*
X22789534Y-18933995D01*
X23253563Y-19398834D01*
X23860155Y-19650713D01*
X24516963Y-19651286D01*
X25123995Y-19400466D01*
X25588834Y-18936437D01*
X25840713Y-18329845D01*
X25841286Y-17673037D01*
X25841286Y-22615000D01*
X19000000Y-22615000D01*
X18781695Y-22658423D01*
X19076230Y-22364403D01*
X19308734Y-21804472D01*
X19309263Y-21198188D01*
X19077737Y-20637852D01*
X18649403Y-20208770D01*
X18089472Y-19976266D01*
X17483188Y-19975737D01*
X17007189Y-20172415D01*
X21552605Y-15627000D01*
X51552605Y-15627000D01*
X52552605Y-14627000D01*
X53759178Y-14627000D01*
X53491240Y-14737710D01*
X52740346Y-15487294D01*
X52333465Y-16467174D01*
X52332539Y-17528172D01*
X52737710Y-18508760D01*
X53487294Y-19259654D01*
X54467174Y-19666535D01*
X55528172Y-19667461D01*
X56508760Y-19262290D01*
X57259654Y-18512706D01*
X57666535Y-17532826D01*
X57667461Y-16471828D01*
X57262290Y-15491240D01*
X56512706Y-14740346D01*
X56239738Y-14627000D01*
X57447395Y-14627000D01*
X58447395Y-15627000D01*
X77052605Y-15627000D01*
X78052605Y-14627000D01*
X128759178Y-14627000D01*
X128491240Y-14737710D01*
X127740346Y-15487294D01*
X127333465Y-16467174D01*
X127332539Y-17528172D01*
X127737710Y-18508760D01*
X128487294Y-19259654D01*
X129467174Y-19666535D01*
X130528172Y-19667461D01*
X131508760Y-19262290D01*
X132259654Y-18512706D01*
X132373000Y-18239738D01*
X132373000Y-22947395D01*
X126373000Y-28947395D01*
X126373000Y-31552605D01*
X132373000Y-37552605D01*
X132373000Y-46759178D01*
X132262290Y-46491240D01*
X131512706Y-45740346D01*
X130532826Y-45333465D01*
X129471828Y-45332539D01*
X128491240Y-45737710D01*
X127740346Y-46487294D01*
X127333465Y-47467174D01*
X127332539Y-48528172D01*
X127737710Y-49508760D01*
X128487294Y-50259654D01*
X129467174Y-50666535D01*
X130528172Y-50667461D01*
X131508760Y-50262290D01*
X132259654Y-49512706D01*
X132373000Y-49239738D01*
X132373000Y-51373000D01*
X132373000Y-51373000D01*
G37*
X132373000Y-51373000D02*
X126251816Y-51373000D01*
X126251816Y-17268358D01*
X126228014Y-16611981D01*
X126022622Y-16116120D01*
X125754107Y-16015498D01*
X125574502Y-16195103D01*
X125574502Y-15835893D01*
X125473880Y-15567378D01*
X124858358Y-15338184D01*
X124201981Y-15361986D01*
X123706120Y-15567378D01*
X123605498Y-15835893D01*
X124590000Y-16820395D01*
X125574502Y-15835893D01*
X125574502Y-16195103D01*
X124769605Y-17000000D01*
X125754107Y-17984502D01*
X126022622Y-17883880D01*
X126251816Y-17268358D01*
X126251816Y-51373000D01*
X125574502Y-51373000D01*
X125574502Y-18164107D01*
X124590000Y-17179605D01*
X123605498Y-18164107D01*
X123706120Y-18432622D01*
X124321642Y-18661816D01*
X124978019Y-18638014D01*
X125473880Y-18432622D01*
X125574502Y-18164107D01*
X125574502Y-51373000D01*
X112511816Y-51373000D01*
X112511816Y-48268358D01*
X112488014Y-47611981D01*
X112282622Y-47116120D01*
X112014107Y-47015498D01*
X111834502Y-47195103D01*
X111834502Y-46835893D01*
X111733880Y-46567378D01*
X111118358Y-46338184D01*
X110461981Y-46361986D01*
X109966120Y-46567378D01*
X109865498Y-46835893D01*
X110850000Y-47820395D01*
X111834502Y-46835893D01*
X111834502Y-47195103D01*
X111029605Y-48000000D01*
X112014107Y-48984502D01*
X112282622Y-48883880D01*
X112511816Y-48268358D01*
X112511816Y-51373000D01*
X111834502Y-51373000D01*
X111834502Y-49164107D01*
X110850000Y-48179605D01*
X110670395Y-48359210D01*
X110670395Y-48000000D01*
X109685893Y-47015498D01*
X109580000Y-47055179D01*
X109474107Y-47015498D01*
X109294502Y-47195103D01*
X109294502Y-46835893D01*
X109193880Y-46567378D01*
X108578358Y-46338184D01*
X107921981Y-46361986D01*
X107426120Y-46567378D01*
X107325498Y-46835893D01*
X108310000Y-47820395D01*
X109294502Y-46835893D01*
X109294502Y-47195103D01*
X108489605Y-48000000D01*
X109474107Y-48984502D01*
X109580000Y-48944820D01*
X109685893Y-48984502D01*
X110670395Y-48000000D01*
X110670395Y-48359210D01*
X109865498Y-49164107D01*
X109966120Y-49432622D01*
X110581642Y-49661816D01*
X111238019Y-49638014D01*
X111733880Y-49432622D01*
X111834502Y-49164107D01*
X111834502Y-51373000D01*
X109294502Y-51373000D01*
X109294502Y-49164107D01*
X108310000Y-48179605D01*
X108130395Y-48359210D01*
X108130395Y-48000000D01*
X107145893Y-47015498D01*
X107127083Y-47022546D01*
X106706437Y-46601166D01*
X106099845Y-46349287D01*
X105443037Y-46348714D01*
X104836005Y-46599534D01*
X104499821Y-46935132D01*
X104166437Y-46601166D01*
X103559845Y-46349287D01*
X102903037Y-46348714D01*
X102296005Y-46599534D01*
X101959821Y-46935132D01*
X101626437Y-46601166D01*
X101019845Y-46349287D01*
X100363037Y-46348714D01*
X99756005Y-46599534D01*
X99419821Y-46935132D01*
X99086437Y-46601166D01*
X98479845Y-46349287D01*
X97823037Y-46348714D01*
X97332091Y-46551568D01*
X97332091Y-38082096D01*
X97213373Y-37821077D01*
X95821077Y-37821077D01*
X95821077Y-39213373D01*
X96082096Y-39332091D01*
X96679401Y-39058916D01*
X97126699Y-38577957D01*
X97332091Y-38082096D01*
X97332091Y-46551568D01*
X97216005Y-46599534D01*
X96751166Y-47063563D01*
X96499287Y-47670155D01*
X96498714Y-48326963D01*
X96749534Y-48933995D01*
X97213563Y-49398834D01*
X97820155Y-49650713D01*
X98476963Y-49651286D01*
X99083995Y-49400466D01*
X99420178Y-49064867D01*
X99753563Y-49398834D01*
X100360155Y-49650713D01*
X101016963Y-49651286D01*
X101623995Y-49400466D01*
X101960178Y-49064867D01*
X102293563Y-49398834D01*
X102900155Y-49650713D01*
X103556963Y-49651286D01*
X104163995Y-49400466D01*
X104500178Y-49064867D01*
X104833563Y-49398834D01*
X105440155Y-49650713D01*
X106096963Y-49651286D01*
X106703995Y-49400466D01*
X107127565Y-48977633D01*
X107145893Y-48984502D01*
X108130395Y-48000000D01*
X108130395Y-48359210D01*
X107325498Y-49164107D01*
X107426120Y-49432622D01*
X108041642Y-49661816D01*
X108698019Y-49638014D01*
X109193880Y-49432622D01*
X109294502Y-49164107D01*
X109294502Y-51373000D01*
X95567077Y-51373000D01*
X95567077Y-39213373D01*
X95567077Y-37821077D01*
X94174781Y-37821077D01*
X94056063Y-38082096D01*
X94329238Y-38679401D01*
X94810197Y-39126699D01*
X95306058Y-39332091D01*
X95567077Y-39213373D01*
X95567077Y-51373000D01*
X94921286Y-51373000D01*
X94921286Y-49173037D01*
X94670466Y-48566005D01*
X94206437Y-48101166D01*
X93599845Y-47849287D01*
X92943037Y-47848714D01*
X92461286Y-48047769D01*
X92461286Y-45673037D01*
X92210466Y-45066005D01*
X91746437Y-44601166D01*
X91139845Y-44349287D01*
X90483037Y-44348714D01*
X89876005Y-44599534D01*
X89411166Y-45063563D01*
X89159287Y-45670155D01*
X89158714Y-46326963D01*
X89409534Y-46933995D01*
X89873563Y-47398834D01*
X90480155Y-47650713D01*
X91136963Y-47651286D01*
X91743995Y-47400466D01*
X92208834Y-46936437D01*
X92460713Y-46329845D01*
X92461286Y-45673037D01*
X92461286Y-48047769D01*
X92336005Y-48099534D01*
X91999821Y-48435132D01*
X91666437Y-48101166D01*
X91059845Y-47849287D01*
X90403037Y-47848714D01*
X89796005Y-48099534D01*
X89331166Y-48563563D01*
X89079287Y-49170155D01*
X89078714Y-49826963D01*
X89329534Y-50433995D01*
X89793563Y-50898834D01*
X90400155Y-51150713D01*
X91056963Y-51151286D01*
X91663995Y-50900466D01*
X92000178Y-50564867D01*
X92333563Y-50898834D01*
X92940155Y-51150713D01*
X93596963Y-51151286D01*
X94203995Y-50900466D01*
X94668834Y-50436437D01*
X94920713Y-49829845D01*
X94921286Y-49173037D01*
X94921286Y-51373000D01*
X25052605Y-51373000D01*
X21627000Y-47947395D01*
X21627000Y-39552605D01*
X25627000Y-35552605D01*
X25627000Y-31447395D01*
X23552605Y-29373000D01*
X17552605Y-29373000D01*
X16627000Y-28447395D01*
X16627000Y-27497120D01*
X16920597Y-27791230D01*
X17480528Y-28023734D01*
X18086812Y-28024263D01*
X18647148Y-27792737D01*
X19055597Y-27385000D01*
X24133420Y-27385000D01*
X26615000Y-29866579D01*
X26615000Y-30499994D01*
X26614999Y-30500000D01*
X26671189Y-30782484D01*
X26682367Y-30838675D01*
X26874210Y-31125790D01*
X30402571Y-34654150D01*
X30135768Y-34543364D01*
X29478960Y-34542791D01*
X28871928Y-34793611D01*
X28407089Y-35257640D01*
X28155210Y-35864232D01*
X28154637Y-36521040D01*
X28405457Y-37128072D01*
X28869486Y-37592911D01*
X29476078Y-37844790D01*
X30132886Y-37845363D01*
X30739918Y-37594543D01*
X31115000Y-37220114D01*
X31115000Y-39918420D01*
X28309263Y-42724156D01*
X28309263Y-40198188D01*
X28077737Y-39637852D01*
X27649403Y-39208770D01*
X27089472Y-38976266D01*
X26483188Y-38975737D01*
X25922852Y-39207263D01*
X25493770Y-39635597D01*
X25261266Y-40195528D01*
X25260737Y-40801812D01*
X25492263Y-41362148D01*
X25920597Y-41791230D01*
X26480528Y-42023734D01*
X27086812Y-42024263D01*
X27647148Y-41792737D01*
X28076230Y-41364403D01*
X28308734Y-40804472D01*
X28309263Y-40198188D01*
X28309263Y-42724156D01*
X27057182Y-43976237D01*
X26483188Y-43975737D01*
X25922852Y-44207263D01*
X25493770Y-44635597D01*
X25261266Y-45195528D01*
X25260737Y-45801812D01*
X25492263Y-46362148D01*
X25920597Y-46791230D01*
X26480528Y-47023734D01*
X27086812Y-47024263D01*
X27218337Y-46969917D01*
X29374207Y-49125786D01*
X29374210Y-49125790D01*
X29661325Y-49317633D01*
X30000000Y-49385000D01*
X64849994Y-49385000D01*
X64850000Y-49385001D01*
X64850000Y-49385000D01*
X65132484Y-49328810D01*
X65188674Y-49317633D01*
X65188675Y-49317633D01*
X65475790Y-49125790D01*
X66971195Y-47630383D01*
X67020155Y-47650713D01*
X67676963Y-47651286D01*
X67728437Y-47630017D01*
X69724207Y-49625786D01*
X69724210Y-49625790D01*
X70011325Y-49817633D01*
X70350000Y-49885000D01*
X79999994Y-49885000D01*
X80000000Y-49885001D01*
X80000000Y-49885000D01*
X80282484Y-49828810D01*
X80338674Y-49817633D01*
X80338675Y-49817633D01*
X80625790Y-49625790D01*
X82676942Y-47574636D01*
X82860155Y-47650713D01*
X83516963Y-47651286D01*
X84123995Y-47400466D01*
X84588834Y-46936437D01*
X84840713Y-46329845D01*
X84841286Y-45673037D01*
X84590466Y-45066005D01*
X84126437Y-44601166D01*
X83519845Y-44349287D01*
X82863037Y-44348714D01*
X82256005Y-44599534D01*
X81791166Y-45063563D01*
X81539287Y-45670155D01*
X81538816Y-46209604D01*
X79633420Y-48115000D01*
X79161286Y-48115000D01*
X79161286Y-45673037D01*
X78910466Y-45066005D01*
X78446437Y-44601166D01*
X77839845Y-44349287D01*
X77183037Y-44348714D01*
X76576005Y-44599534D01*
X76239821Y-44935132D01*
X75906437Y-44601166D01*
X75299845Y-44349287D01*
X74643037Y-44348714D01*
X74036005Y-44599534D01*
X73699821Y-44935132D01*
X73366437Y-44601166D01*
X72759845Y-44349287D01*
X72103037Y-44348714D01*
X71496005Y-44599534D01*
X71072434Y-45022366D01*
X71054107Y-45015498D01*
X70069605Y-46000000D01*
X71054107Y-46984502D01*
X71072916Y-46977453D01*
X71493563Y-47398834D01*
X72100155Y-47650713D01*
X72756963Y-47651286D01*
X73363995Y-47400466D01*
X73700178Y-47064867D01*
X74033563Y-47398834D01*
X74640155Y-47650713D01*
X75296963Y-47651286D01*
X75903995Y-47400466D01*
X76240178Y-47064867D01*
X76573563Y-47398834D01*
X77180155Y-47650713D01*
X77836963Y-47651286D01*
X78443995Y-47400466D01*
X78908834Y-46936437D01*
X79160713Y-46329845D01*
X79161286Y-45673037D01*
X79161286Y-48115000D01*
X70716579Y-48115000D01*
X70240937Y-47639358D01*
X70278019Y-47638014D01*
X70773880Y-47432622D01*
X70874502Y-47164107D01*
X69890000Y-46179605D01*
X69875857Y-46193747D01*
X69696252Y-46014142D01*
X69710395Y-46000000D01*
X69696252Y-45985857D01*
X69875857Y-45806252D01*
X69890000Y-45820395D01*
X70874502Y-44835893D01*
X70773880Y-44567378D01*
X70234895Y-44366683D01*
X71216579Y-43385000D01*
X79499994Y-43385000D01*
X79500000Y-43385001D01*
X79500000Y-43385000D01*
X79782484Y-43328810D01*
X79838674Y-43317633D01*
X79838675Y-43317633D01*
X80125790Y-43125790D01*
X86866579Y-36385000D01*
X94656893Y-36385000D01*
X94261455Y-36810197D01*
X94056063Y-37306058D01*
X94174781Y-37567077D01*
X95567077Y-37567077D01*
X95567077Y-36385000D01*
X95821077Y-36385000D01*
X95821077Y-37567077D01*
X97213373Y-37567077D01*
X97332091Y-37306058D01*
X97058916Y-36708753D01*
X96673657Y-36350457D01*
X96782484Y-36328810D01*
X96838674Y-36317633D01*
X96838675Y-36317633D01*
X97125790Y-36125790D01*
X105866579Y-27385000D01*
X116499994Y-27385000D01*
X116500000Y-27385001D01*
X116500000Y-27385000D01*
X116782484Y-27328810D01*
X116838674Y-27317633D01*
X116838675Y-27317633D01*
X117125790Y-27125790D01*
X122675786Y-21575792D01*
X122675789Y-21575790D01*
X122675790Y-21575790D01*
X122867633Y-21288675D01*
X122935000Y-20950000D01*
X122935001Y-20950000D01*
X122935000Y-20949994D01*
X122935000Y-18420710D01*
X122983995Y-18400466D01*
X123407565Y-17977633D01*
X123425893Y-17984502D01*
X124410395Y-17000000D01*
X123425893Y-16015498D01*
X123407083Y-16022546D01*
X122986437Y-15601166D01*
X122379845Y-15349287D01*
X121723037Y-15348714D01*
X121116005Y-15599534D01*
X120779821Y-15935132D01*
X120446437Y-15601166D01*
X119839845Y-15349287D01*
X119183037Y-15348714D01*
X118576005Y-15599534D01*
X118239821Y-15935132D01*
X117906437Y-15601166D01*
X117299845Y-15349287D01*
X116643037Y-15348714D01*
X116036005Y-15599534D01*
X115612434Y-16022366D01*
X115594107Y-16015498D01*
X115414502Y-16195103D01*
X115414502Y-15835893D01*
X115313880Y-15567378D01*
X114698358Y-15338184D01*
X114041981Y-15361986D01*
X113546120Y-15567378D01*
X113445498Y-15835893D01*
X114430000Y-16820395D01*
X115414502Y-15835893D01*
X115414502Y-16195103D01*
X114609605Y-17000000D01*
X115594107Y-17984502D01*
X115612916Y-17977453D01*
X116033563Y-18398834D01*
X116085000Y-18420192D01*
X116085000Y-19163420D01*
X115414502Y-19833918D01*
X115414502Y-18164107D01*
X114430000Y-17179605D01*
X113445498Y-18164107D01*
X113546120Y-18432622D01*
X114161642Y-18661816D01*
X114818019Y-18638014D01*
X115313880Y-18432622D01*
X115414502Y-18164107D01*
X115414502Y-19833918D01*
X114633420Y-20615000D01*
X110636579Y-20615000D01*
X112515786Y-18735792D01*
X112515789Y-18735790D01*
X112515790Y-18735790D01*
X112707633Y-18448675D01*
X112707661Y-18448534D01*
X112823995Y-18400466D01*
X113247565Y-17977633D01*
X113265893Y-17984502D01*
X114250395Y-17000000D01*
X113265893Y-16015498D01*
X113247083Y-16022546D01*
X112826437Y-15601166D01*
X112219845Y-15349287D01*
X111563037Y-15348714D01*
X110956005Y-15599534D01*
X110619821Y-15935132D01*
X110286437Y-15601166D01*
X109679845Y-15349287D01*
X109023037Y-15348714D01*
X108416005Y-15599534D01*
X108079821Y-15935132D01*
X107746437Y-15601166D01*
X107139845Y-15349287D01*
X106483037Y-15348714D01*
X105876005Y-15599534D01*
X105539821Y-15935132D01*
X105206437Y-15601166D01*
X104599845Y-15349287D01*
X103943037Y-15348714D01*
X103336005Y-15599534D01*
X102999821Y-15935132D01*
X102666437Y-15601166D01*
X102059845Y-15349287D01*
X101403037Y-15348714D01*
X100796005Y-15599534D01*
X100459821Y-15935132D01*
X100126437Y-15601166D01*
X99519845Y-15349287D01*
X98863037Y-15348714D01*
X98256005Y-15599534D01*
X97919821Y-15935132D01*
X97586437Y-15601166D01*
X96979845Y-15349287D01*
X96323037Y-15348714D01*
X95716005Y-15599534D01*
X95379821Y-15935132D01*
X95046437Y-15601166D01*
X94439845Y-15349287D01*
X93783037Y-15348714D01*
X93176005Y-15599534D01*
X92839821Y-15935132D01*
X92506437Y-15601166D01*
X91899845Y-15349287D01*
X91243037Y-15348714D01*
X90636005Y-15599534D01*
X90299821Y-15935132D01*
X89966437Y-15601166D01*
X89359845Y-15349287D01*
X88703037Y-15348714D01*
X88096005Y-15599534D01*
X87759821Y-15935132D01*
X87426437Y-15601166D01*
X86819845Y-15349287D01*
X86163037Y-15348714D01*
X85556005Y-15599534D01*
X85219821Y-15935132D01*
X84886437Y-15601166D01*
X84279845Y-15349287D01*
X83623037Y-15348714D01*
X83016005Y-15599534D01*
X82679821Y-15935132D01*
X82346437Y-15601166D01*
X81739845Y-15349287D01*
X81083037Y-15348714D01*
X80476005Y-15599534D01*
X80011166Y-16063563D01*
X79759287Y-16670155D01*
X79758714Y-17326963D01*
X80009534Y-17933995D01*
X80473563Y-18398834D01*
X81080155Y-18650713D01*
X81736963Y-18651286D01*
X82343995Y-18400466D01*
X82680178Y-18064867D01*
X83013563Y-18398834D01*
X83620155Y-18650713D01*
X84276963Y-18651286D01*
X84883995Y-18400466D01*
X85220178Y-18064867D01*
X85553563Y-18398834D01*
X86160155Y-18650713D01*
X86816963Y-18651286D01*
X87423995Y-18400466D01*
X87760178Y-18064867D01*
X88093563Y-18398834D01*
X88700155Y-18650713D01*
X89356963Y-18651286D01*
X89963995Y-18400466D01*
X90300178Y-18064867D01*
X90633563Y-18398834D01*
X91240155Y-18650713D01*
X91896963Y-18651286D01*
X92503995Y-18400466D01*
X92840178Y-18064867D01*
X93173563Y-18398834D01*
X93780155Y-18650713D01*
X94436963Y-18651286D01*
X95043995Y-18400466D01*
X95380178Y-18064867D01*
X95713563Y-18398834D01*
X96320155Y-18650713D01*
X96976963Y-18651286D01*
X97583995Y-18400466D01*
X97920178Y-18064867D01*
X98253563Y-18398834D01*
X98860155Y-18650713D01*
X99516963Y-18651286D01*
X100123995Y-18400466D01*
X100460178Y-18064867D01*
X100793563Y-18398834D01*
X101400155Y-18650713D01*
X102056963Y-18651286D01*
X102663995Y-18400466D01*
X103000178Y-18064867D01*
X103333563Y-18398834D01*
X103940155Y-18650713D01*
X104596963Y-18651286D01*
X105203995Y-18400466D01*
X105540178Y-18064867D01*
X105873563Y-18398834D01*
X106480155Y-18650713D01*
X107136963Y-18651286D01*
X107743995Y-18400466D01*
X108080178Y-18064867D01*
X108413563Y-18398834D01*
X109020155Y-18650713D01*
X109676963Y-18651286D01*
X110283995Y-18400466D01*
X110620178Y-18064867D01*
X110651838Y-18096582D01*
X109633420Y-19115000D01*
X103000000Y-19115000D01*
X102999999Y-19115000D01*
X102661325Y-19182367D01*
X102374210Y-19374210D01*
X102374207Y-19374213D01*
X95633420Y-26115000D01*
X81270000Y-26115000D01*
X80931325Y-26182367D01*
X80644210Y-26374210D01*
X80644207Y-26374213D01*
X68151110Y-38867309D01*
X68151110Y-19890245D01*
X68151110Y-17858245D01*
X68054641Y-17624771D01*
X67876168Y-17445987D01*
X67642864Y-17349111D01*
X67390245Y-17348890D01*
X65358245Y-17348890D01*
X65124771Y-17445359D01*
X64945987Y-17623832D01*
X64849111Y-17857136D01*
X64848890Y-18109755D01*
X64848890Y-20141755D01*
X64945359Y-20375229D01*
X65123832Y-20554013D01*
X65357136Y-20650889D01*
X65609755Y-20651110D01*
X67641755Y-20651110D01*
X67875229Y-20554641D01*
X68054013Y-20376168D01*
X68150889Y-20142864D01*
X68151110Y-19890245D01*
X68151110Y-38867309D01*
X63921286Y-43097133D01*
X63921286Y-25673037D01*
X63670466Y-25066005D01*
X63206437Y-24601166D01*
X62599845Y-24349287D01*
X61943037Y-24348714D01*
X61336005Y-24599534D01*
X61292257Y-24643205D01*
X61284641Y-24624771D01*
X61106168Y-24445987D01*
X60872864Y-24349111D01*
X60620245Y-24348890D01*
X60471816Y-24348890D01*
X60471816Y-21768358D01*
X60448014Y-21111981D01*
X60242622Y-20616120D01*
X59974107Y-20515498D01*
X59794502Y-20695103D01*
X59794502Y-20335893D01*
X59693880Y-20067378D01*
X59078358Y-19838184D01*
X58421981Y-19861986D01*
X57926120Y-20067378D01*
X57825498Y-20335893D01*
X58810000Y-21320395D01*
X59794502Y-20335893D01*
X59794502Y-20695103D01*
X58989605Y-21500000D01*
X59974107Y-22484502D01*
X60242622Y-22383880D01*
X60471816Y-21768358D01*
X60471816Y-24348890D01*
X59794502Y-24348890D01*
X59794502Y-22664107D01*
X58810000Y-21679605D01*
X58630395Y-21859210D01*
X58630395Y-21500000D01*
X57645893Y-20515498D01*
X57377378Y-20616120D01*
X57148184Y-21231642D01*
X57171986Y-21888019D01*
X57377378Y-22383880D01*
X57645893Y-22484502D01*
X58630395Y-21500000D01*
X58630395Y-21859210D01*
X57825498Y-22664107D01*
X57926120Y-22932622D01*
X58541642Y-23161816D01*
X59198019Y-23138014D01*
X59693880Y-22932622D01*
X59794502Y-22664107D01*
X59794502Y-24348890D01*
X58588245Y-24348890D01*
X58354771Y-24445359D01*
X58175987Y-24623832D01*
X58079111Y-24857136D01*
X58078890Y-25109755D01*
X58078890Y-27141755D01*
X58175359Y-27375229D01*
X58353832Y-27554013D01*
X58587136Y-27650889D01*
X58839755Y-27651110D01*
X60871755Y-27651110D01*
X61105229Y-27554641D01*
X61284013Y-27376168D01*
X61291922Y-27357120D01*
X61333563Y-27398834D01*
X61940155Y-27650713D01*
X62596963Y-27651286D01*
X63203995Y-27400466D01*
X63668834Y-26936437D01*
X63920713Y-26329845D01*
X63921286Y-25673037D01*
X63921286Y-43097133D01*
X62648803Y-44369616D01*
X62599845Y-44349287D01*
X61943037Y-44348714D01*
X61336005Y-44599534D01*
X60999821Y-44935132D01*
X60666437Y-44601166D01*
X60059845Y-44349287D01*
X59403037Y-44348714D01*
X58796005Y-44599534D01*
X58459821Y-44935132D01*
X58126437Y-44601166D01*
X57519845Y-44349287D01*
X56863037Y-44348714D01*
X56256005Y-44599534D01*
X55919821Y-44935132D01*
X55586437Y-44601166D01*
X54979845Y-44349287D01*
X54323037Y-44348714D01*
X53716005Y-44599534D01*
X53379821Y-44935132D01*
X53046437Y-44601166D01*
X52439845Y-44349287D01*
X51783037Y-44348714D01*
X51176005Y-44599534D01*
X50839821Y-44935132D01*
X50506437Y-44601166D01*
X50455000Y-44579807D01*
X50455000Y-23070000D01*
X50436023Y-22974598D01*
X50860155Y-23150713D01*
X51516963Y-23151286D01*
X52123995Y-22900466D01*
X52588834Y-22436437D01*
X52840713Y-21829845D01*
X52841286Y-21173037D01*
X52590466Y-20566005D01*
X52126437Y-20101166D01*
X51519845Y-19849287D01*
X50863037Y-19848714D01*
X50256005Y-20099534D01*
X49791166Y-20563563D01*
X49539287Y-21170155D01*
X49538748Y-21787169D01*
X49239010Y-21487431D01*
X49239263Y-21198188D01*
X49007737Y-20637852D01*
X48579403Y-20208770D01*
X48019472Y-19976266D01*
X47413188Y-19975737D01*
X46852852Y-20207263D01*
X46423770Y-20635597D01*
X46191266Y-21195528D01*
X46190737Y-21801812D01*
X46422263Y-22362148D01*
X46850597Y-22791230D01*
X47410528Y-23023734D01*
X48016812Y-23024263D01*
X48197871Y-22949450D01*
X48685000Y-23436579D01*
X48685000Y-25314551D01*
X48579403Y-25208770D01*
X48019472Y-24976266D01*
X47413188Y-24975737D01*
X46852852Y-25207263D01*
X46423770Y-25635597D01*
X46191266Y-26195528D01*
X46190737Y-26801812D01*
X46422263Y-27362148D01*
X46850597Y-27791230D01*
X47410528Y-28023734D01*
X48016812Y-28024263D01*
X48577148Y-27792737D01*
X48685000Y-27685073D01*
X48685000Y-44579289D01*
X48636005Y-44599534D01*
X48299821Y-44935132D01*
X47966437Y-44601166D01*
X47359845Y-44349287D01*
X46703037Y-44348714D01*
X46096005Y-44599534D01*
X45759821Y-44935132D01*
X45426437Y-44601166D01*
X44819845Y-44349287D01*
X44163037Y-44348714D01*
X43556005Y-44599534D01*
X43091166Y-45063563D01*
X43069807Y-45115000D01*
X42366579Y-45115000D01*
X39100000Y-41848420D01*
X39100000Y-41769924D01*
X39506230Y-41364403D01*
X39738734Y-40804472D01*
X39739263Y-40198188D01*
X39507737Y-39637852D01*
X39079403Y-39208770D01*
X38519472Y-38976266D01*
X37913188Y-38975737D01*
X37352852Y-39207263D01*
X36923770Y-39635597D01*
X36832091Y-39856384D01*
X36832091Y-31193942D01*
X36832091Y-30417904D01*
X36558916Y-29820599D01*
X36077957Y-29373301D01*
X35582096Y-29167909D01*
X35321077Y-29286627D01*
X35321077Y-30678923D01*
X36713373Y-30678923D01*
X36832091Y-30417904D01*
X36832091Y-31193942D01*
X36713373Y-30932923D01*
X35321077Y-30932923D01*
X35321077Y-32325219D01*
X35582096Y-32443937D01*
X36179401Y-32170762D01*
X36626699Y-31689803D01*
X36832091Y-31193942D01*
X36832091Y-39856384D01*
X36691266Y-40195528D01*
X36690737Y-40801812D01*
X36922263Y-41362148D01*
X37330000Y-41770597D01*
X37330000Y-42214994D01*
X37329999Y-42215000D01*
X37386189Y-42497484D01*
X37397367Y-42553675D01*
X37589210Y-42840790D01*
X38870407Y-44121987D01*
X38519472Y-43976266D01*
X37913188Y-43975737D01*
X37352852Y-44207263D01*
X36923770Y-44635597D01*
X36691266Y-45195528D01*
X36690737Y-45801812D01*
X36922263Y-46362148D01*
X37350597Y-46791230D01*
X37910528Y-47023734D01*
X38516812Y-47024263D01*
X39077148Y-46792737D01*
X39506230Y-46364403D01*
X39738734Y-45804472D01*
X39739263Y-45198188D01*
X39593264Y-44844843D01*
X41374207Y-46625786D01*
X41374210Y-46625790D01*
X41661325Y-46817633D01*
X42000000Y-46885000D01*
X43069289Y-46885000D01*
X43089534Y-46933995D01*
X43553563Y-47398834D01*
X44074148Y-47615000D01*
X35067077Y-47615000D01*
X35067077Y-32325219D01*
X35067077Y-30932923D01*
X35067077Y-30678923D01*
X35067077Y-29286627D01*
X34806058Y-29167909D01*
X34208753Y-29441084D01*
X33761455Y-29922043D01*
X33556063Y-30417904D01*
X33674781Y-30678923D01*
X35067077Y-30678923D01*
X35067077Y-30932923D01*
X33674781Y-30932923D01*
X33556063Y-31193942D01*
X33829238Y-31791247D01*
X34310197Y-32238545D01*
X34806058Y-32443937D01*
X35067077Y-32325219D01*
X35067077Y-47615000D01*
X30366579Y-47615000D01*
X28308949Y-45557369D01*
X28309237Y-45227342D01*
X32625786Y-40910792D01*
X32625789Y-40910790D01*
X32625790Y-40910790D01*
X32817633Y-40623675D01*
X32885000Y-40285001D01*
X32884999Y-40285000D01*
X32885000Y-40285000D01*
X32885000Y-35000005D01*
X32885000Y-35000000D01*
X32885001Y-35000000D01*
X32828810Y-34717515D01*
X32817633Y-34661326D01*
X32817633Y-34661325D01*
X32625790Y-34374210D01*
X32625786Y-34374207D01*
X30739263Y-32487683D01*
X30739263Y-26198188D01*
X30507737Y-25637852D01*
X30079403Y-25208770D01*
X29519472Y-24976266D01*
X28913188Y-24975737D01*
X28352852Y-25207263D01*
X27923770Y-25635597D01*
X27691266Y-26195528D01*
X27690737Y-26801812D01*
X27922263Y-27362148D01*
X28350597Y-27791230D01*
X28910528Y-28023734D01*
X29516812Y-28024263D01*
X30077148Y-27792737D01*
X30506230Y-27364403D01*
X30738734Y-26804472D01*
X30739263Y-26198188D01*
X30739263Y-32487683D01*
X28385000Y-30133420D01*
X28385000Y-29500000D01*
X28317633Y-29161325D01*
X28125790Y-28874210D01*
X28125786Y-28874207D01*
X25125790Y-25874210D01*
X24838675Y-25682367D01*
X24782484Y-25671189D01*
X24500000Y-25614999D01*
X24499994Y-25615000D01*
X19054924Y-25615000D01*
X18670000Y-25229402D01*
X18670000Y-25081579D01*
X19366579Y-24385000D01*
X32918420Y-24385000D01*
X34761237Y-26227817D01*
X34760737Y-26801812D01*
X34992263Y-27362148D01*
X35420597Y-27791230D01*
X35980528Y-28023734D01*
X36586812Y-28024263D01*
X37147148Y-27792737D01*
X37576230Y-27364403D01*
X37808734Y-26804472D01*
X37809263Y-26198188D01*
X37809263Y-21198188D01*
X37577737Y-20637852D01*
X37149403Y-20208770D01*
X36589472Y-19976266D01*
X35983188Y-19975737D01*
X35422852Y-20207263D01*
X34993770Y-20635597D01*
X34761266Y-21195528D01*
X34760737Y-21801812D01*
X34992263Y-22362148D01*
X35420597Y-22791230D01*
X35980528Y-23023734D01*
X36586812Y-23024263D01*
X37147148Y-22792737D01*
X37576230Y-22364403D01*
X37808734Y-21804472D01*
X37809263Y-21198188D01*
X37809263Y-26198188D01*
X37577737Y-25637852D01*
X37149403Y-25208770D01*
X36589472Y-24976266D01*
X36012341Y-24975762D01*
X33910790Y-22874210D01*
X33623675Y-22682367D01*
X33567484Y-22671189D01*
X33471816Y-22652159D01*
X33471816Y-18268358D01*
X33448014Y-17611981D01*
X33242622Y-17116120D01*
X32974107Y-17015498D01*
X32794502Y-17195103D01*
X32794502Y-16835893D01*
X32693880Y-16567378D01*
X32078358Y-16338184D01*
X31421981Y-16361986D01*
X30926120Y-16567378D01*
X30825498Y-16835893D01*
X31810000Y-17820395D01*
X32794502Y-16835893D01*
X32794502Y-17195103D01*
X31989605Y-18000000D01*
X32974107Y-18984502D01*
X33242622Y-18883880D01*
X33471816Y-18268358D01*
X33471816Y-22652159D01*
X33285000Y-22614999D01*
X33284994Y-22615000D01*
X32794502Y-22615000D01*
X32794502Y-19164107D01*
X31810000Y-18179605D01*
X31630395Y-18359210D01*
X31630395Y-18000000D01*
X30645893Y-17015498D01*
X30377378Y-17116120D01*
X30148184Y-17731642D01*
X30171986Y-18388019D01*
X30377378Y-18883880D01*
X30645893Y-18984502D01*
X31630395Y-18000000D01*
X31630395Y-18359210D01*
X30825498Y-19164107D01*
X30926120Y-19432622D01*
X31541642Y-19661816D01*
X32198019Y-19638014D01*
X32693880Y-19432622D01*
X32794502Y-19164107D01*
X32794502Y-22615000D01*
X30255195Y-22615000D01*
X30506230Y-22364403D01*
X30738734Y-21804472D01*
X30739263Y-21198188D01*
X30507737Y-20637852D01*
X30079403Y-20208770D01*
X29519472Y-19976266D01*
X28913188Y-19975737D01*
X28352852Y-20207263D01*
X27923770Y-20635597D01*
X27691266Y-21195528D01*
X27690737Y-21801812D01*
X27922263Y-22362148D01*
X28174674Y-22615000D01*
X25841286Y-22615000D01*
X25841286Y-17673037D01*
X25590466Y-17066005D01*
X25126437Y-16601166D01*
X24519845Y-16349287D01*
X23863037Y-16348714D01*
X23256005Y-16599534D01*
X22791166Y-17063563D01*
X22539287Y-17670155D01*
X22538714Y-18326963D01*
X22789534Y-18933995D01*
X23253563Y-19398834D01*
X23860155Y-19650713D01*
X24516963Y-19651286D01*
X25123995Y-19400466D01*
X25588834Y-18936437D01*
X25840713Y-18329845D01*
X25841286Y-17673037D01*
X25841286Y-22615000D01*
X19000000Y-22615000D01*
X18781695Y-22658423D01*
X19076230Y-22364403D01*
X19308734Y-21804472D01*
X19309263Y-21198188D01*
X19077737Y-20637852D01*
X18649403Y-20208770D01*
X18089472Y-19976266D01*
X17483188Y-19975737D01*
X17007189Y-20172415D01*
X21552605Y-15627000D01*
X51552605Y-15627000D01*
X52552605Y-14627000D01*
X53759178Y-14627000D01*
X53491240Y-14737710D01*
X52740346Y-15487294D01*
X52333465Y-16467174D01*
X52332539Y-17528172D01*
X52737710Y-18508760D01*
X53487294Y-19259654D01*
X54467174Y-19666535D01*
X55528172Y-19667461D01*
X56508760Y-19262290D01*
X57259654Y-18512706D01*
X57666535Y-17532826D01*
X57667461Y-16471828D01*
X57262290Y-15491240D01*
X56512706Y-14740346D01*
X56239738Y-14627000D01*
X57447395Y-14627000D01*
X58447395Y-15627000D01*
X77052605Y-15627000D01*
X78052605Y-14627000D01*
X128759178Y-14627000D01*
X128491240Y-14737710D01*
X127740346Y-15487294D01*
X127333465Y-16467174D01*
X127332539Y-17528172D01*
X127737710Y-18508760D01*
X128487294Y-19259654D01*
X129467174Y-19666535D01*
X130528172Y-19667461D01*
X131508760Y-19262290D01*
X132259654Y-18512706D01*
X132373000Y-18239738D01*
X132373000Y-22947395D01*
X126373000Y-28947395D01*
X126373000Y-31552605D01*
X132373000Y-37552605D01*
X132373000Y-46759178D01*
X132262290Y-46491240D01*
X131512706Y-45740346D01*
X130532826Y-45333465D01*
X129471828Y-45332539D01*
X128491240Y-45737710D01*
X127740346Y-46487294D01*
X127333465Y-47467174D01*
X127332539Y-48528172D01*
X127737710Y-49508760D01*
X128487294Y-50259654D01*
X129467174Y-50666535D01*
X130528172Y-50667461D01*
X131508760Y-50262290D01*
X132259654Y-49512706D01*
X132373000Y-49239738D01*
X132373000Y-51373000D01*
M02*
