G04 #@! TF.FileFunction,Soldermask,Bot*
%FSLAX46Y46*%
G04 Gerber Fmt 4.6, Leading zero omitted, Abs format (unit mm)*
G04 Created by KiCad (PCBNEW 4.0.2-stable) date 05/06/2017 19:11:29*
%MOMM*%
G01*
G04 APERTURE LIST*
%ADD10C,0.150000*%
G04 APERTURE END LIST*
D10*
G36*
X93419400Y-48078538D02*
X93692653Y-48134629D01*
X93949809Y-48242727D01*
X94181061Y-48398710D01*
X94377623Y-48596648D01*
X94531989Y-48828986D01*
X94638290Y-49086892D01*
X94692192Y-49359120D01*
X94692191Y-49359165D01*
X94692461Y-49360527D01*
X94688012Y-49679137D01*
X94687705Y-49680490D01*
X94687704Y-49680536D01*
X94626221Y-49951155D01*
X94512763Y-50205985D01*
X94351968Y-50433927D01*
X94149956Y-50626300D01*
X93914436Y-50775766D01*
X93654367Y-50876639D01*
X93379651Y-50925080D01*
X93100769Y-50919237D01*
X92828324Y-50859336D01*
X92572704Y-50747659D01*
X92343651Y-50588463D01*
X92144036Y-50381757D01*
X92098924Y-50346624D01*
X92045810Y-50325449D01*
X91988900Y-50319910D01*
X91932700Y-50330445D01*
X91881660Y-50356220D01*
X91831821Y-50405782D01*
X91811966Y-50433928D01*
X91609956Y-50626300D01*
X91374436Y-50775766D01*
X91114367Y-50876639D01*
X90839651Y-50925080D01*
X90560769Y-50919237D01*
X90288324Y-50859336D01*
X90032704Y-50747659D01*
X89803651Y-50588463D01*
X89609872Y-50387799D01*
X89458767Y-50153329D01*
X89356077Y-49893965D01*
X89305721Y-49619597D01*
X89309616Y-49340680D01*
X89367613Y-49067823D01*
X89477502Y-48811434D01*
X89635099Y-48581268D01*
X89834397Y-48386102D01*
X90067817Y-48233357D01*
X90326452Y-48128861D01*
X90600461Y-48076591D01*
X90879400Y-48078538D01*
X91152653Y-48134629D01*
X91409809Y-48242727D01*
X91641061Y-48398710D01*
X91851660Y-48610784D01*
X91851921Y-48610524D01*
X91869952Y-48630769D01*
X91918371Y-48661183D01*
X91973347Y-48676904D01*
X92030525Y-48676687D01*
X92085379Y-48660548D01*
X92133566Y-48629767D01*
X92168837Y-48590416D01*
X92175103Y-48581264D01*
X92374397Y-48386102D01*
X92607817Y-48233357D01*
X92866452Y-48128861D01*
X93140461Y-48076591D01*
X93419400Y-48078538D01*
X93419400Y-48078538D01*
G37*
G36*
X130256114Y-45563215D02*
X130724550Y-45659371D01*
X131165377Y-45844678D01*
X131561818Y-46112081D01*
X131898775Y-46451398D01*
X132163404Y-46849697D01*
X132345633Y-47291815D01*
X132438236Y-47759496D01*
X132438235Y-47759546D01*
X132438504Y-47760903D01*
X132430877Y-48307091D01*
X132430570Y-48308444D01*
X132430569Y-48308490D01*
X132324944Y-48773402D01*
X132130442Y-49210262D01*
X131854796Y-49601015D01*
X131508499Y-49930790D01*
X131104740Y-50187022D01*
X130658911Y-50359947D01*
X130187975Y-50442987D01*
X129709889Y-50432972D01*
X129242844Y-50330285D01*
X128804644Y-50138841D01*
X128411969Y-49865925D01*
X128079788Y-49521941D01*
X127820747Y-49119988D01*
X127644709Y-48675368D01*
X127558385Y-48205026D01*
X127565062Y-47726882D01*
X127664486Y-47259128D01*
X127852866Y-46819604D01*
X128123030Y-46425039D01*
X128464690Y-46090461D01*
X128864830Y-45828617D01*
X129308205Y-45649482D01*
X129777933Y-45559876D01*
X130256114Y-45563215D01*
X130256114Y-45563215D01*
G37*
G36*
X110999400Y-46578538D02*
X111272653Y-46634629D01*
X111529809Y-46742727D01*
X111761061Y-46898710D01*
X111957623Y-47096648D01*
X112111989Y-47328986D01*
X112218290Y-47586892D01*
X112272192Y-47859120D01*
X112272191Y-47859165D01*
X112272461Y-47860527D01*
X112268012Y-48179137D01*
X112267705Y-48180490D01*
X112267704Y-48180536D01*
X112206221Y-48451155D01*
X112092763Y-48705985D01*
X111931968Y-48933927D01*
X111729956Y-49126300D01*
X111494436Y-49275766D01*
X111234367Y-49376639D01*
X110959651Y-49425080D01*
X110680769Y-49419237D01*
X110408324Y-49359336D01*
X110152704Y-49247659D01*
X109923651Y-49088463D01*
X109724036Y-48881757D01*
X109678924Y-48846624D01*
X109625810Y-48825449D01*
X109568900Y-48819910D01*
X109512700Y-48830445D01*
X109461660Y-48856220D01*
X109411821Y-48905782D01*
X109391966Y-48933928D01*
X109189956Y-49126300D01*
X108954436Y-49275766D01*
X108694367Y-49376639D01*
X108419651Y-49425080D01*
X108140769Y-49419237D01*
X107868324Y-49359336D01*
X107612704Y-49247659D01*
X107383651Y-49088463D01*
X107184036Y-48881757D01*
X107138924Y-48846624D01*
X107085810Y-48825449D01*
X107028900Y-48819910D01*
X106972700Y-48830445D01*
X106921660Y-48856220D01*
X106871821Y-48905782D01*
X106851966Y-48933928D01*
X106649956Y-49126300D01*
X106414436Y-49275766D01*
X106154367Y-49376639D01*
X105879651Y-49425080D01*
X105600769Y-49419237D01*
X105328324Y-49359336D01*
X105072704Y-49247659D01*
X104843651Y-49088463D01*
X104644036Y-48881757D01*
X104598924Y-48846624D01*
X104545810Y-48825449D01*
X104488900Y-48819910D01*
X104432700Y-48830445D01*
X104381660Y-48856220D01*
X104331821Y-48905782D01*
X104311966Y-48933928D01*
X104109956Y-49126300D01*
X103874436Y-49275766D01*
X103614367Y-49376639D01*
X103339651Y-49425080D01*
X103060769Y-49419237D01*
X102788324Y-49359336D01*
X102532704Y-49247659D01*
X102303651Y-49088463D01*
X102104036Y-48881757D01*
X102058924Y-48846624D01*
X102005810Y-48825449D01*
X101948900Y-48819910D01*
X101892700Y-48830445D01*
X101841660Y-48856220D01*
X101791821Y-48905782D01*
X101771966Y-48933928D01*
X101569956Y-49126300D01*
X101334436Y-49275766D01*
X101074367Y-49376639D01*
X100799651Y-49425080D01*
X100520769Y-49419237D01*
X100248324Y-49359336D01*
X99992704Y-49247659D01*
X99763651Y-49088463D01*
X99564036Y-48881757D01*
X99518924Y-48846624D01*
X99465810Y-48825449D01*
X99408900Y-48819910D01*
X99352700Y-48830445D01*
X99301660Y-48856220D01*
X99251821Y-48905782D01*
X99231966Y-48933928D01*
X99029956Y-49126300D01*
X98794436Y-49275766D01*
X98534367Y-49376639D01*
X98259651Y-49425080D01*
X97980769Y-49419237D01*
X97708324Y-49359336D01*
X97452704Y-49247659D01*
X97223651Y-49088463D01*
X97029872Y-48887799D01*
X96878767Y-48653329D01*
X96776077Y-48393965D01*
X96725721Y-48119597D01*
X96729616Y-47840680D01*
X96787613Y-47567823D01*
X96897502Y-47311434D01*
X97055099Y-47081268D01*
X97254397Y-46886102D01*
X97487817Y-46733357D01*
X97746452Y-46628861D01*
X98020461Y-46576591D01*
X98299400Y-46578538D01*
X98572653Y-46634629D01*
X98829809Y-46742727D01*
X99061061Y-46898710D01*
X99271660Y-47110784D01*
X99271921Y-47110524D01*
X99289952Y-47130769D01*
X99338371Y-47161183D01*
X99393347Y-47176904D01*
X99450525Y-47176687D01*
X99505379Y-47160548D01*
X99553566Y-47129767D01*
X99588837Y-47090416D01*
X99595103Y-47081264D01*
X99794397Y-46886102D01*
X100027817Y-46733357D01*
X100286452Y-46628861D01*
X100560461Y-46576591D01*
X100839400Y-46578538D01*
X101112653Y-46634629D01*
X101369809Y-46742727D01*
X101601061Y-46898710D01*
X101811660Y-47110784D01*
X101811921Y-47110524D01*
X101829952Y-47130769D01*
X101878371Y-47161183D01*
X101933347Y-47176904D01*
X101990525Y-47176687D01*
X102045379Y-47160548D01*
X102093566Y-47129767D01*
X102128837Y-47090416D01*
X102135103Y-47081264D01*
X102334397Y-46886102D01*
X102567817Y-46733357D01*
X102826452Y-46628861D01*
X103100461Y-46576591D01*
X103379400Y-46578538D01*
X103652653Y-46634629D01*
X103909809Y-46742727D01*
X104141061Y-46898710D01*
X104351660Y-47110784D01*
X104351921Y-47110524D01*
X104369952Y-47130769D01*
X104418371Y-47161183D01*
X104473347Y-47176904D01*
X104530525Y-47176687D01*
X104585379Y-47160548D01*
X104633566Y-47129767D01*
X104668837Y-47090416D01*
X104675103Y-47081264D01*
X104874397Y-46886102D01*
X105107817Y-46733357D01*
X105366452Y-46628861D01*
X105640461Y-46576591D01*
X105919400Y-46578538D01*
X106192653Y-46634629D01*
X106449809Y-46742727D01*
X106681061Y-46898710D01*
X106891660Y-47110784D01*
X106891921Y-47110524D01*
X106909952Y-47130769D01*
X106958371Y-47161183D01*
X107013347Y-47176904D01*
X107070525Y-47176687D01*
X107125379Y-47160548D01*
X107173566Y-47129767D01*
X107208837Y-47090416D01*
X107215103Y-47081264D01*
X107414397Y-46886102D01*
X107647817Y-46733357D01*
X107906452Y-46628861D01*
X108180461Y-46576591D01*
X108459400Y-46578538D01*
X108732653Y-46634629D01*
X108989809Y-46742727D01*
X109221061Y-46898710D01*
X109431660Y-47110784D01*
X109431921Y-47110524D01*
X109449952Y-47130769D01*
X109498371Y-47161183D01*
X109553347Y-47176904D01*
X109610525Y-47176687D01*
X109665379Y-47160548D01*
X109713566Y-47129767D01*
X109748837Y-47090416D01*
X109755103Y-47081264D01*
X109954397Y-46886102D01*
X110187817Y-46733357D01*
X110446452Y-46628861D01*
X110720461Y-46576591D01*
X110999400Y-46578538D01*
X110999400Y-46578538D01*
G37*
G36*
X77659400Y-44578538D02*
X77932653Y-44634629D01*
X78189809Y-44742727D01*
X78421061Y-44898710D01*
X78617623Y-45096648D01*
X78771989Y-45328986D01*
X78878290Y-45586892D01*
X78932192Y-45859120D01*
X78932191Y-45859165D01*
X78932461Y-45860527D01*
X78928012Y-46179137D01*
X78927705Y-46180490D01*
X78927704Y-46180536D01*
X78866221Y-46451155D01*
X78752763Y-46705985D01*
X78591968Y-46933927D01*
X78389956Y-47126300D01*
X78154436Y-47275766D01*
X77894367Y-47376639D01*
X77619651Y-47425080D01*
X77340769Y-47419237D01*
X77068324Y-47359336D01*
X76812704Y-47247659D01*
X76583651Y-47088463D01*
X76384036Y-46881757D01*
X76338924Y-46846624D01*
X76285810Y-46825449D01*
X76228900Y-46819910D01*
X76172700Y-46830445D01*
X76121660Y-46856220D01*
X76071821Y-46905782D01*
X76051966Y-46933928D01*
X75849956Y-47126300D01*
X75614436Y-47275766D01*
X75354367Y-47376639D01*
X75079651Y-47425080D01*
X74800769Y-47419237D01*
X74528324Y-47359336D01*
X74272704Y-47247659D01*
X74043651Y-47088463D01*
X73844036Y-46881757D01*
X73798924Y-46846624D01*
X73745810Y-46825449D01*
X73688900Y-46819910D01*
X73632700Y-46830445D01*
X73581660Y-46856220D01*
X73531821Y-46905782D01*
X73511966Y-46933928D01*
X73309956Y-47126300D01*
X73074436Y-47275766D01*
X72814367Y-47376639D01*
X72539651Y-47425080D01*
X72260769Y-47419237D01*
X71988324Y-47359336D01*
X71732704Y-47247659D01*
X71503651Y-47088463D01*
X71304036Y-46881757D01*
X71258924Y-46846624D01*
X71205810Y-46825449D01*
X71148900Y-46819910D01*
X71092700Y-46830445D01*
X71041660Y-46856220D01*
X70991821Y-46905782D01*
X70971966Y-46933928D01*
X70769956Y-47126300D01*
X70534436Y-47275766D01*
X70274367Y-47376639D01*
X69999651Y-47425080D01*
X69720769Y-47419237D01*
X69448324Y-47359336D01*
X69192704Y-47247659D01*
X68963651Y-47088463D01*
X68764036Y-46881757D01*
X68718924Y-46846624D01*
X68665810Y-46825449D01*
X68608900Y-46819910D01*
X68552700Y-46830445D01*
X68501660Y-46856220D01*
X68451821Y-46905782D01*
X68431966Y-46933928D01*
X68229956Y-47126300D01*
X67994436Y-47275766D01*
X67734367Y-47376639D01*
X67459651Y-47425080D01*
X67180769Y-47419237D01*
X66908324Y-47359336D01*
X66652704Y-47247659D01*
X66423651Y-47088463D01*
X66224036Y-46881757D01*
X66178924Y-46846624D01*
X66125810Y-46825449D01*
X66068900Y-46819910D01*
X66012700Y-46830445D01*
X65961660Y-46856220D01*
X65911821Y-46905782D01*
X65891966Y-46933928D01*
X65689956Y-47126300D01*
X65454436Y-47275766D01*
X65194367Y-47376639D01*
X64919651Y-47425080D01*
X64640769Y-47419237D01*
X64368324Y-47359336D01*
X64112704Y-47247659D01*
X63883651Y-47088463D01*
X63684036Y-46881757D01*
X63638924Y-46846624D01*
X63585810Y-46825449D01*
X63528900Y-46819910D01*
X63472700Y-46830445D01*
X63421660Y-46856220D01*
X63371821Y-46905782D01*
X63351966Y-46933928D01*
X63149956Y-47126300D01*
X62914436Y-47275766D01*
X62654367Y-47376639D01*
X62379651Y-47425080D01*
X62100769Y-47419237D01*
X61828324Y-47359336D01*
X61572704Y-47247659D01*
X61343651Y-47088463D01*
X61144036Y-46881757D01*
X61098924Y-46846624D01*
X61045810Y-46825449D01*
X60988900Y-46819910D01*
X60932700Y-46830445D01*
X60881660Y-46856220D01*
X60831821Y-46905782D01*
X60811966Y-46933928D01*
X60609956Y-47126300D01*
X60374436Y-47275766D01*
X60114367Y-47376639D01*
X59839651Y-47425080D01*
X59560769Y-47419237D01*
X59288324Y-47359336D01*
X59032704Y-47247659D01*
X58803651Y-47088463D01*
X58604036Y-46881757D01*
X58558924Y-46846624D01*
X58505810Y-46825449D01*
X58448900Y-46819910D01*
X58392700Y-46830445D01*
X58341660Y-46856220D01*
X58291821Y-46905782D01*
X58271966Y-46933928D01*
X58069956Y-47126300D01*
X57834436Y-47275766D01*
X57574367Y-47376639D01*
X57299651Y-47425080D01*
X57020769Y-47419237D01*
X56748324Y-47359336D01*
X56492704Y-47247659D01*
X56263651Y-47088463D01*
X56064036Y-46881757D01*
X56018924Y-46846624D01*
X55965810Y-46825449D01*
X55908900Y-46819910D01*
X55852700Y-46830445D01*
X55801660Y-46856220D01*
X55751821Y-46905782D01*
X55731966Y-46933928D01*
X55529956Y-47126300D01*
X55294436Y-47275766D01*
X55034367Y-47376639D01*
X54759651Y-47425080D01*
X54480769Y-47419237D01*
X54208324Y-47359336D01*
X53952704Y-47247659D01*
X53723651Y-47088463D01*
X53524036Y-46881757D01*
X53478924Y-46846624D01*
X53425810Y-46825449D01*
X53368900Y-46819910D01*
X53312700Y-46830445D01*
X53261660Y-46856220D01*
X53211821Y-46905782D01*
X53191966Y-46933928D01*
X52989956Y-47126300D01*
X52754436Y-47275766D01*
X52494367Y-47376639D01*
X52219651Y-47425080D01*
X51940769Y-47419237D01*
X51668324Y-47359336D01*
X51412704Y-47247659D01*
X51183651Y-47088463D01*
X50984036Y-46881757D01*
X50938924Y-46846624D01*
X50885810Y-46825449D01*
X50828900Y-46819910D01*
X50772700Y-46830445D01*
X50721660Y-46856220D01*
X50671821Y-46905782D01*
X50651966Y-46933928D01*
X50449956Y-47126300D01*
X50214436Y-47275766D01*
X49954367Y-47376639D01*
X49679651Y-47425080D01*
X49400769Y-47419237D01*
X49128324Y-47359336D01*
X48872704Y-47247659D01*
X48643651Y-47088463D01*
X48444036Y-46881757D01*
X48398924Y-46846624D01*
X48345810Y-46825449D01*
X48288900Y-46819910D01*
X48232700Y-46830445D01*
X48181660Y-46856220D01*
X48131821Y-46905782D01*
X48111966Y-46933928D01*
X47909956Y-47126300D01*
X47674436Y-47275766D01*
X47414367Y-47376639D01*
X47139651Y-47425080D01*
X46860769Y-47419237D01*
X46588324Y-47359336D01*
X46332704Y-47247659D01*
X46103651Y-47088463D01*
X45904036Y-46881757D01*
X45858924Y-46846624D01*
X45805810Y-46825449D01*
X45748900Y-46819910D01*
X45692700Y-46830445D01*
X45641660Y-46856220D01*
X45591821Y-46905782D01*
X45571966Y-46933928D01*
X45369956Y-47126300D01*
X45134436Y-47275766D01*
X44874367Y-47376639D01*
X44599651Y-47425080D01*
X44320769Y-47419237D01*
X44048324Y-47359336D01*
X43792704Y-47247659D01*
X43563651Y-47088463D01*
X43369872Y-46887799D01*
X43218767Y-46653329D01*
X43116077Y-46393965D01*
X43065721Y-46119597D01*
X43069616Y-45840680D01*
X43127613Y-45567823D01*
X43237502Y-45311434D01*
X43395099Y-45081268D01*
X43594397Y-44886102D01*
X43827817Y-44733357D01*
X44086452Y-44628861D01*
X44360461Y-44576591D01*
X44639400Y-44578538D01*
X44912653Y-44634629D01*
X45169809Y-44742727D01*
X45401061Y-44898710D01*
X45611660Y-45110784D01*
X45611921Y-45110524D01*
X45629952Y-45130769D01*
X45678371Y-45161183D01*
X45733347Y-45176904D01*
X45790525Y-45176687D01*
X45845379Y-45160548D01*
X45893566Y-45129767D01*
X45928837Y-45090416D01*
X45935103Y-45081264D01*
X46134397Y-44886102D01*
X46367817Y-44733357D01*
X46626452Y-44628861D01*
X46900461Y-44576591D01*
X47179400Y-44578538D01*
X47452653Y-44634629D01*
X47709809Y-44742727D01*
X47941061Y-44898710D01*
X48151660Y-45110784D01*
X48151921Y-45110524D01*
X48169952Y-45130769D01*
X48218371Y-45161183D01*
X48273347Y-45176904D01*
X48330525Y-45176687D01*
X48385379Y-45160548D01*
X48433566Y-45129767D01*
X48468837Y-45090416D01*
X48475103Y-45081264D01*
X48674397Y-44886102D01*
X48907817Y-44733357D01*
X49166452Y-44628861D01*
X49440461Y-44576591D01*
X49719400Y-44578538D01*
X49992653Y-44634629D01*
X50249809Y-44742727D01*
X50481061Y-44898710D01*
X50691660Y-45110784D01*
X50691921Y-45110524D01*
X50709952Y-45130769D01*
X50758371Y-45161183D01*
X50813347Y-45176904D01*
X50870525Y-45176687D01*
X50925379Y-45160548D01*
X50973566Y-45129767D01*
X51008837Y-45090416D01*
X51015103Y-45081264D01*
X51214397Y-44886102D01*
X51447817Y-44733357D01*
X51706452Y-44628861D01*
X51980461Y-44576591D01*
X52259400Y-44578538D01*
X52532653Y-44634629D01*
X52789809Y-44742727D01*
X53021061Y-44898710D01*
X53231660Y-45110784D01*
X53231921Y-45110524D01*
X53249952Y-45130769D01*
X53298371Y-45161183D01*
X53353347Y-45176904D01*
X53410525Y-45176687D01*
X53465379Y-45160548D01*
X53513566Y-45129767D01*
X53548837Y-45090416D01*
X53555103Y-45081264D01*
X53754397Y-44886102D01*
X53987817Y-44733357D01*
X54246452Y-44628861D01*
X54520461Y-44576591D01*
X54799400Y-44578538D01*
X55072653Y-44634629D01*
X55329809Y-44742727D01*
X55561061Y-44898710D01*
X55771660Y-45110784D01*
X55771921Y-45110524D01*
X55789952Y-45130769D01*
X55838371Y-45161183D01*
X55893347Y-45176904D01*
X55950525Y-45176687D01*
X56005379Y-45160548D01*
X56053566Y-45129767D01*
X56088837Y-45090416D01*
X56095103Y-45081264D01*
X56294397Y-44886102D01*
X56527817Y-44733357D01*
X56786452Y-44628861D01*
X57060461Y-44576591D01*
X57339400Y-44578538D01*
X57612653Y-44634629D01*
X57869809Y-44742727D01*
X58101061Y-44898710D01*
X58311660Y-45110784D01*
X58311921Y-45110524D01*
X58329952Y-45130769D01*
X58378371Y-45161183D01*
X58433347Y-45176904D01*
X58490525Y-45176687D01*
X58545379Y-45160548D01*
X58593566Y-45129767D01*
X58628837Y-45090416D01*
X58635103Y-45081264D01*
X58834397Y-44886102D01*
X59067817Y-44733357D01*
X59326452Y-44628861D01*
X59600461Y-44576591D01*
X59879400Y-44578538D01*
X60152653Y-44634629D01*
X60409809Y-44742727D01*
X60641061Y-44898710D01*
X60851660Y-45110784D01*
X60851921Y-45110524D01*
X60869952Y-45130769D01*
X60918371Y-45161183D01*
X60973347Y-45176904D01*
X61030525Y-45176687D01*
X61085379Y-45160548D01*
X61133566Y-45129767D01*
X61168837Y-45090416D01*
X61175103Y-45081264D01*
X61374397Y-44886102D01*
X61607817Y-44733357D01*
X61866452Y-44628861D01*
X62140461Y-44576591D01*
X62419400Y-44578538D01*
X62692653Y-44634629D01*
X62949809Y-44742727D01*
X63181061Y-44898710D01*
X63391660Y-45110784D01*
X63391921Y-45110524D01*
X63409952Y-45130769D01*
X63458371Y-45161183D01*
X63513347Y-45176904D01*
X63570525Y-45176687D01*
X63625379Y-45160548D01*
X63673566Y-45129767D01*
X63708837Y-45090416D01*
X63715103Y-45081264D01*
X63914397Y-44886102D01*
X64147817Y-44733357D01*
X64406452Y-44628861D01*
X64680461Y-44576591D01*
X64959400Y-44578538D01*
X65232653Y-44634629D01*
X65489809Y-44742727D01*
X65721061Y-44898710D01*
X65931660Y-45110784D01*
X65931921Y-45110524D01*
X65949952Y-45130769D01*
X65998371Y-45161183D01*
X66053347Y-45176904D01*
X66110525Y-45176687D01*
X66165379Y-45160548D01*
X66213566Y-45129767D01*
X66248837Y-45090416D01*
X66255103Y-45081264D01*
X66454397Y-44886102D01*
X66687817Y-44733357D01*
X66946452Y-44628861D01*
X67220461Y-44576591D01*
X67499400Y-44578538D01*
X67772653Y-44634629D01*
X68029809Y-44742727D01*
X68261061Y-44898710D01*
X68471660Y-45110784D01*
X68471921Y-45110524D01*
X68489952Y-45130769D01*
X68538371Y-45161183D01*
X68593347Y-45176904D01*
X68650525Y-45176687D01*
X68705379Y-45160548D01*
X68753566Y-45129767D01*
X68788837Y-45090416D01*
X68795103Y-45081264D01*
X68994397Y-44886102D01*
X69227817Y-44733357D01*
X69486452Y-44628861D01*
X69760461Y-44576591D01*
X70039400Y-44578538D01*
X70312653Y-44634629D01*
X70569809Y-44742727D01*
X70801061Y-44898710D01*
X71011660Y-45110784D01*
X71011921Y-45110524D01*
X71029952Y-45130769D01*
X71078371Y-45161183D01*
X71133347Y-45176904D01*
X71190525Y-45176687D01*
X71245379Y-45160548D01*
X71293566Y-45129767D01*
X71328837Y-45090416D01*
X71335103Y-45081264D01*
X71534397Y-44886102D01*
X71767817Y-44733357D01*
X72026452Y-44628861D01*
X72300461Y-44576591D01*
X72579400Y-44578538D01*
X72852653Y-44634629D01*
X73109809Y-44742727D01*
X73341061Y-44898710D01*
X73551660Y-45110784D01*
X73551921Y-45110524D01*
X73569952Y-45130769D01*
X73618371Y-45161183D01*
X73673347Y-45176904D01*
X73730525Y-45176687D01*
X73785379Y-45160548D01*
X73833566Y-45129767D01*
X73868837Y-45090416D01*
X73875103Y-45081264D01*
X74074397Y-44886102D01*
X74307817Y-44733357D01*
X74566452Y-44628861D01*
X74840461Y-44576591D01*
X75119400Y-44578538D01*
X75392653Y-44634629D01*
X75649809Y-44742727D01*
X75881061Y-44898710D01*
X76091660Y-45110784D01*
X76091921Y-45110524D01*
X76109952Y-45130769D01*
X76158371Y-45161183D01*
X76213347Y-45176904D01*
X76270525Y-45176687D01*
X76325379Y-45160548D01*
X76373566Y-45129767D01*
X76408837Y-45090416D01*
X76415103Y-45081264D01*
X76614397Y-44886102D01*
X76847817Y-44733357D01*
X77106452Y-44628861D01*
X77380461Y-44576591D01*
X77659400Y-44578538D01*
X77659400Y-44578538D01*
G37*
G36*
X90959400Y-44578538D02*
X91232653Y-44634629D01*
X91489809Y-44742727D01*
X91721061Y-44898710D01*
X91917623Y-45096648D01*
X92071989Y-45328986D01*
X92178290Y-45586892D01*
X92232192Y-45859120D01*
X92232191Y-45859165D01*
X92232461Y-45860527D01*
X92228012Y-46179137D01*
X92227705Y-46180490D01*
X92227704Y-46180536D01*
X92166221Y-46451155D01*
X92052763Y-46705985D01*
X91891968Y-46933927D01*
X91689956Y-47126300D01*
X91454436Y-47275766D01*
X91194367Y-47376639D01*
X90919651Y-47425080D01*
X90640769Y-47419237D01*
X90368324Y-47359336D01*
X90112704Y-47247659D01*
X89883651Y-47088463D01*
X89689872Y-46887799D01*
X89538767Y-46653329D01*
X89436077Y-46393965D01*
X89385721Y-46119597D01*
X89389616Y-45840680D01*
X89447613Y-45567823D01*
X89557502Y-45311434D01*
X89715099Y-45081268D01*
X89914397Y-44886102D01*
X90147817Y-44733357D01*
X90406452Y-44628861D01*
X90680461Y-44576591D01*
X90959400Y-44578538D01*
X90959400Y-44578538D01*
G37*
G36*
X83339400Y-44578538D02*
X83612653Y-44634629D01*
X83869809Y-44742727D01*
X84101061Y-44898710D01*
X84297623Y-45096648D01*
X84451989Y-45328986D01*
X84558290Y-45586892D01*
X84612192Y-45859120D01*
X84612191Y-45859165D01*
X84612461Y-45860527D01*
X84608012Y-46179137D01*
X84607705Y-46180490D01*
X84607704Y-46180536D01*
X84546221Y-46451155D01*
X84432763Y-46705985D01*
X84271968Y-46933927D01*
X84069956Y-47126300D01*
X83834436Y-47275766D01*
X83574367Y-47376639D01*
X83299651Y-47425080D01*
X83020769Y-47419237D01*
X82748324Y-47359336D01*
X82492704Y-47247659D01*
X82263651Y-47088463D01*
X82069872Y-46887799D01*
X81918767Y-46653329D01*
X81816077Y-46393965D01*
X81765721Y-46119597D01*
X81769616Y-45840680D01*
X81827613Y-45567823D01*
X81937502Y-45311434D01*
X82095099Y-45081268D01*
X82294397Y-44886102D01*
X82527817Y-44733357D01*
X82786452Y-44628861D01*
X83060461Y-44576591D01*
X83339400Y-44578538D01*
X83339400Y-44578538D01*
G37*
G36*
X26921060Y-44205454D02*
X27169916Y-44256537D01*
X27404112Y-44354983D01*
X27614717Y-44497039D01*
X27793727Y-44677303D01*
X27934312Y-44888900D01*
X28031121Y-45123777D01*
X28080186Y-45371573D01*
X28080185Y-45371613D01*
X28080456Y-45372979D01*
X28076404Y-45663142D01*
X28076096Y-45664500D01*
X28076095Y-45664541D01*
X28020131Y-45910869D01*
X27916800Y-46142955D01*
X27770364Y-46350541D01*
X27586392Y-46525735D01*
X27371893Y-46661859D01*
X27135048Y-46753725D01*
X26884860Y-46797841D01*
X26630879Y-46792520D01*
X26382759Y-46737967D01*
X26149962Y-46636261D01*
X25941361Y-46491279D01*
X25764882Y-46308531D01*
X25627269Y-46094996D01*
X25533748Y-45858790D01*
X25487888Y-45608919D01*
X25491436Y-45354907D01*
X25544255Y-45106409D01*
X25644332Y-44872913D01*
X25787856Y-44663301D01*
X25969368Y-44485551D01*
X26181936Y-44346450D01*
X26417483Y-44251284D01*
X26667027Y-44203680D01*
X26921060Y-44205454D01*
X26921060Y-44205454D01*
G37*
G36*
X38351060Y-44205454D02*
X38599916Y-44256537D01*
X38834112Y-44354983D01*
X39044717Y-44497039D01*
X39223727Y-44677303D01*
X39364312Y-44888900D01*
X39461121Y-45123777D01*
X39510186Y-45371573D01*
X39510185Y-45371613D01*
X39510456Y-45372979D01*
X39506404Y-45663142D01*
X39506096Y-45664500D01*
X39506095Y-45664541D01*
X39450131Y-45910869D01*
X39346800Y-46142955D01*
X39200364Y-46350541D01*
X39016392Y-46525735D01*
X38801893Y-46661859D01*
X38565048Y-46753725D01*
X38314860Y-46797841D01*
X38060879Y-46792520D01*
X37812759Y-46737967D01*
X37579962Y-46636261D01*
X37371361Y-46491279D01*
X37194882Y-46308531D01*
X37057269Y-46094996D01*
X36963748Y-45858790D01*
X36917888Y-45608919D01*
X36921436Y-45354907D01*
X36974255Y-45106409D01*
X37074332Y-44872913D01*
X37217856Y-44663301D01*
X37399368Y-44485551D01*
X37611936Y-44346450D01*
X37847483Y-44251284D01*
X38097027Y-44203680D01*
X38351060Y-44205454D01*
X38351060Y-44205454D01*
G37*
G36*
X26921060Y-39205454D02*
X27169916Y-39256537D01*
X27404112Y-39354983D01*
X27614717Y-39497039D01*
X27793727Y-39677303D01*
X27934312Y-39888900D01*
X28031121Y-40123777D01*
X28080186Y-40371573D01*
X28080185Y-40371613D01*
X28080456Y-40372979D01*
X28076404Y-40663142D01*
X28076096Y-40664500D01*
X28076095Y-40664541D01*
X28020131Y-40910869D01*
X27916800Y-41142955D01*
X27770364Y-41350541D01*
X27586392Y-41525735D01*
X27371893Y-41661859D01*
X27135048Y-41753725D01*
X26884860Y-41797841D01*
X26630879Y-41792520D01*
X26382759Y-41737967D01*
X26149962Y-41636261D01*
X25941361Y-41491279D01*
X25764882Y-41308531D01*
X25627269Y-41094996D01*
X25533748Y-40858790D01*
X25487888Y-40608919D01*
X25491436Y-40354907D01*
X25544255Y-40106409D01*
X25644332Y-39872913D01*
X25787856Y-39663301D01*
X25969368Y-39485551D01*
X26181936Y-39346450D01*
X26417483Y-39251284D01*
X26667027Y-39203680D01*
X26921060Y-39205454D01*
X26921060Y-39205454D01*
G37*
G36*
X38351060Y-39205454D02*
X38599916Y-39256537D01*
X38834112Y-39354983D01*
X39044717Y-39497039D01*
X39223727Y-39677303D01*
X39364312Y-39888900D01*
X39461121Y-40123777D01*
X39510186Y-40371573D01*
X39510185Y-40371613D01*
X39510456Y-40372979D01*
X39506404Y-40663142D01*
X39506096Y-40664500D01*
X39506095Y-40664541D01*
X39450131Y-40910869D01*
X39346800Y-41142955D01*
X39200364Y-41350541D01*
X39016392Y-41525735D01*
X38801893Y-41661859D01*
X38565048Y-41753725D01*
X38314860Y-41797841D01*
X38060879Y-41792520D01*
X37812759Y-41737967D01*
X37579962Y-41636261D01*
X37371361Y-41491279D01*
X37194882Y-41308531D01*
X37057269Y-41094996D01*
X36963748Y-40858790D01*
X36917888Y-40608919D01*
X36921436Y-40354907D01*
X36974255Y-40106409D01*
X37074332Y-39872913D01*
X37217856Y-39663301D01*
X37399368Y-39485551D01*
X37611936Y-39346450D01*
X37847483Y-39251284D01*
X38097027Y-39203680D01*
X38351060Y-39205454D01*
X38351060Y-39205454D01*
G37*
G36*
X95843477Y-36272615D02*
X96116730Y-36328706D01*
X96373886Y-36436804D01*
X96605138Y-36592787D01*
X96801700Y-36790725D01*
X96956066Y-37023063D01*
X97062367Y-37280969D01*
X97116269Y-37553197D01*
X97116268Y-37553242D01*
X97116538Y-37554604D01*
X97112089Y-37873214D01*
X97111782Y-37874567D01*
X97111781Y-37874613D01*
X97050298Y-38145232D01*
X96936840Y-38400062D01*
X96776045Y-38628004D01*
X96574033Y-38820377D01*
X96338513Y-38969843D01*
X96078444Y-39070716D01*
X95803728Y-39119157D01*
X95524846Y-39113314D01*
X95252401Y-39053413D01*
X94996781Y-38941736D01*
X94767728Y-38782540D01*
X94573949Y-38581876D01*
X94422844Y-38347406D01*
X94320154Y-38088042D01*
X94269798Y-37813674D01*
X94273693Y-37534757D01*
X94331690Y-37261900D01*
X94441579Y-37005511D01*
X94599176Y-36775345D01*
X94798474Y-36580179D01*
X95031894Y-36427434D01*
X95290529Y-36322938D01*
X95564538Y-36270668D01*
X95843477Y-36272615D01*
X95843477Y-36272615D01*
G37*
G36*
X29955323Y-34772615D02*
X30228576Y-34828706D01*
X30485732Y-34936804D01*
X30716984Y-35092787D01*
X30913546Y-35290725D01*
X31067912Y-35523063D01*
X31174213Y-35780969D01*
X31228115Y-36053197D01*
X31228114Y-36053242D01*
X31228384Y-36054604D01*
X31223935Y-36373214D01*
X31223628Y-36374567D01*
X31223627Y-36374613D01*
X31162144Y-36645232D01*
X31048686Y-36900062D01*
X30887891Y-37128004D01*
X30685879Y-37320377D01*
X30450359Y-37469843D01*
X30190290Y-37570716D01*
X29915574Y-37619157D01*
X29636692Y-37613314D01*
X29364247Y-37553413D01*
X29108627Y-37441736D01*
X28879574Y-37282540D01*
X28685795Y-37081876D01*
X28534690Y-36847406D01*
X28432000Y-36588042D01*
X28381644Y-36313674D01*
X28385539Y-36034757D01*
X28443536Y-35761900D01*
X28553425Y-35505511D01*
X28711022Y-35275345D01*
X28910320Y-35080179D01*
X29143740Y-34927434D01*
X29402375Y-34822938D01*
X29676384Y-34770668D01*
X29955323Y-34772615D01*
X29955323Y-34772615D01*
G37*
G36*
X90455323Y-30884461D02*
X90728576Y-30940552D01*
X90985732Y-31048650D01*
X91216984Y-31204633D01*
X91413546Y-31402571D01*
X91567912Y-31634909D01*
X91674213Y-31892815D01*
X91728115Y-32165043D01*
X91728114Y-32165088D01*
X91728384Y-32166450D01*
X91723935Y-32485060D01*
X91723628Y-32486413D01*
X91723627Y-32486459D01*
X91662144Y-32757078D01*
X91548686Y-33011908D01*
X91387891Y-33239850D01*
X91185879Y-33432223D01*
X90950359Y-33581689D01*
X90690290Y-33682562D01*
X90415574Y-33731003D01*
X90136692Y-33725160D01*
X89864247Y-33665259D01*
X89608627Y-33553582D01*
X89379574Y-33394386D01*
X89185795Y-33193722D01*
X89034690Y-32959252D01*
X88932000Y-32699888D01*
X88881644Y-32425520D01*
X88885539Y-32146603D01*
X88943536Y-31873746D01*
X89053425Y-31617357D01*
X89211022Y-31387191D01*
X89410320Y-31192025D01*
X89643740Y-31039280D01*
X89902375Y-30934784D01*
X90176384Y-30882514D01*
X90455323Y-30884461D01*
X90455323Y-30884461D01*
G37*
G36*
X35343477Y-29384461D02*
X35616730Y-29440552D01*
X35873886Y-29548650D01*
X36105138Y-29704633D01*
X36301700Y-29902571D01*
X36456066Y-30134909D01*
X36562367Y-30392815D01*
X36616269Y-30665043D01*
X36616268Y-30665088D01*
X36616538Y-30666450D01*
X36612089Y-30985060D01*
X36611782Y-30986413D01*
X36611781Y-30986459D01*
X36550298Y-31257078D01*
X36436840Y-31511908D01*
X36276045Y-31739850D01*
X36074033Y-31932223D01*
X35838513Y-32081689D01*
X35578444Y-32182562D01*
X35303728Y-32231003D01*
X35024846Y-32225160D01*
X34752401Y-32165259D01*
X34496781Y-32053582D01*
X34267728Y-31894386D01*
X34073949Y-31693722D01*
X33922844Y-31459252D01*
X33820154Y-31199888D01*
X33769798Y-30925520D01*
X33773693Y-30646603D01*
X33831690Y-30373746D01*
X33941579Y-30117357D01*
X34099176Y-29887191D01*
X34298474Y-29692025D01*
X34531894Y-29539280D01*
X34790529Y-29434784D01*
X35064538Y-29382514D01*
X35343477Y-29384461D01*
X35343477Y-29384461D01*
G37*
G36*
X99455323Y-27272615D02*
X99728576Y-27328706D01*
X99985732Y-27436804D01*
X100216984Y-27592787D01*
X100413546Y-27790725D01*
X100567912Y-28023063D01*
X100674213Y-28280969D01*
X100728115Y-28553197D01*
X100728114Y-28553242D01*
X100728384Y-28554604D01*
X100723935Y-28873214D01*
X100723628Y-28874567D01*
X100723627Y-28874613D01*
X100662144Y-29145232D01*
X100548686Y-29400062D01*
X100387891Y-29628004D01*
X100185879Y-29820377D01*
X99950359Y-29969843D01*
X99690290Y-30070716D01*
X99415574Y-30119157D01*
X99136692Y-30113314D01*
X98864247Y-30053413D01*
X98608627Y-29941736D01*
X98379574Y-29782540D01*
X98185795Y-29581876D01*
X98034690Y-29347406D01*
X97932000Y-29088042D01*
X97881644Y-28813674D01*
X97885539Y-28534757D01*
X97943536Y-28261900D01*
X98053425Y-28005511D01*
X98211022Y-27775345D01*
X98410320Y-27580179D01*
X98643740Y-27427434D01*
X98902375Y-27322938D01*
X99176384Y-27270668D01*
X99455323Y-27272615D01*
X99455323Y-27272615D01*
G37*
G36*
X17921060Y-25205454D02*
X18169916Y-25256537D01*
X18404112Y-25354983D01*
X18614717Y-25497039D01*
X18793727Y-25677303D01*
X18934312Y-25888900D01*
X19031121Y-26123777D01*
X19080186Y-26371573D01*
X19080185Y-26371613D01*
X19080456Y-26372979D01*
X19076404Y-26663142D01*
X19076096Y-26664500D01*
X19076095Y-26664541D01*
X19020131Y-26910869D01*
X18916800Y-27142955D01*
X18770364Y-27350541D01*
X18586392Y-27525735D01*
X18371893Y-27661859D01*
X18135048Y-27753725D01*
X17884860Y-27797841D01*
X17630879Y-27792520D01*
X17382759Y-27737967D01*
X17149962Y-27636261D01*
X16941361Y-27491279D01*
X16764882Y-27308531D01*
X16627269Y-27094996D01*
X16533748Y-26858790D01*
X16487888Y-26608919D01*
X16491436Y-26354907D01*
X16544255Y-26106409D01*
X16644332Y-25872913D01*
X16787856Y-25663301D01*
X16969368Y-25485551D01*
X17181936Y-25346450D01*
X17417483Y-25251284D01*
X17667027Y-25203680D01*
X17921060Y-25205454D01*
X17921060Y-25205454D01*
G37*
G36*
X47851060Y-25205454D02*
X48099916Y-25256537D01*
X48334112Y-25354983D01*
X48544717Y-25497039D01*
X48723727Y-25677303D01*
X48864312Y-25888900D01*
X48961121Y-26123777D01*
X49010186Y-26371573D01*
X49010185Y-26371613D01*
X49010456Y-26372979D01*
X49006404Y-26663142D01*
X49006096Y-26664500D01*
X49006095Y-26664541D01*
X48950131Y-26910869D01*
X48846800Y-27142955D01*
X48700364Y-27350541D01*
X48516392Y-27525735D01*
X48301893Y-27661859D01*
X48065048Y-27753725D01*
X47814860Y-27797841D01*
X47560879Y-27792520D01*
X47312759Y-27737967D01*
X47079962Y-27636261D01*
X46871361Y-27491279D01*
X46694882Y-27308531D01*
X46557269Y-27094996D01*
X46463748Y-26858790D01*
X46417888Y-26608919D01*
X46421436Y-26354907D01*
X46474255Y-26106409D01*
X46574332Y-25872913D01*
X46717856Y-25663301D01*
X46899368Y-25485551D01*
X47111936Y-25346450D01*
X47347483Y-25251284D01*
X47597027Y-25203680D01*
X47851060Y-25205454D01*
X47851060Y-25205454D01*
G37*
G36*
X36421060Y-25205454D02*
X36669916Y-25256537D01*
X36904112Y-25354983D01*
X37114717Y-25497039D01*
X37293727Y-25677303D01*
X37434312Y-25888900D01*
X37531121Y-26123777D01*
X37580186Y-26371573D01*
X37580185Y-26371613D01*
X37580456Y-26372979D01*
X37576404Y-26663142D01*
X37576096Y-26664500D01*
X37576095Y-26664541D01*
X37520131Y-26910869D01*
X37416800Y-27142955D01*
X37270364Y-27350541D01*
X37086392Y-27525735D01*
X36871893Y-27661859D01*
X36635048Y-27753725D01*
X36384860Y-27797841D01*
X36130879Y-27792520D01*
X35882759Y-27737967D01*
X35649962Y-27636261D01*
X35441361Y-27491279D01*
X35264882Y-27308531D01*
X35127269Y-27094996D01*
X35033748Y-26858790D01*
X34987888Y-26608919D01*
X34991436Y-26354907D01*
X35044255Y-26106409D01*
X35144332Y-25872913D01*
X35287856Y-25663301D01*
X35469368Y-25485551D01*
X35681936Y-25346450D01*
X35917483Y-25251284D01*
X36167027Y-25203680D01*
X36421060Y-25205454D01*
X36421060Y-25205454D01*
G37*
G36*
X29351060Y-25205454D02*
X29599916Y-25256537D01*
X29834112Y-25354983D01*
X30044717Y-25497039D01*
X30223727Y-25677303D01*
X30364312Y-25888900D01*
X30461121Y-26123777D01*
X30510186Y-26371573D01*
X30510185Y-26371613D01*
X30510456Y-26372979D01*
X30506404Y-26663142D01*
X30506096Y-26664500D01*
X30506095Y-26664541D01*
X30450131Y-26910869D01*
X30346800Y-27142955D01*
X30200364Y-27350541D01*
X30016392Y-27525735D01*
X29801893Y-27661859D01*
X29565048Y-27753725D01*
X29314860Y-27797841D01*
X29060879Y-27792520D01*
X28812759Y-27737967D01*
X28579962Y-27636261D01*
X28371361Y-27491279D01*
X28194882Y-27308531D01*
X28057269Y-27094996D01*
X27963748Y-26858790D01*
X27917888Y-26608919D01*
X27921436Y-26354907D01*
X27974255Y-26106409D01*
X28074332Y-25872913D01*
X28217856Y-25663301D01*
X28399368Y-25485551D01*
X28611936Y-25346450D01*
X28847483Y-25251284D01*
X29097027Y-25203680D01*
X29351060Y-25205454D01*
X29351060Y-25205454D01*
G37*
G36*
X62419400Y-24578538D02*
X62692653Y-24634629D01*
X62949809Y-24742727D01*
X63181061Y-24898710D01*
X63377623Y-25096648D01*
X63531989Y-25328986D01*
X63638290Y-25586892D01*
X63692192Y-25859120D01*
X63692191Y-25859165D01*
X63692461Y-25860527D01*
X63688012Y-26179137D01*
X63687705Y-26180490D01*
X63687704Y-26180536D01*
X63626221Y-26451155D01*
X63512763Y-26705985D01*
X63351968Y-26933927D01*
X63149956Y-27126300D01*
X62914436Y-27275766D01*
X62654367Y-27376639D01*
X62379651Y-27425080D01*
X62100769Y-27419237D01*
X61828324Y-27359336D01*
X61572708Y-27247661D01*
X61471569Y-27177368D01*
X61420492Y-27151666D01*
X61364277Y-27141211D01*
X61307375Y-27146832D01*
X61254291Y-27168082D01*
X61209230Y-27203279D01*
X61175758Y-27249637D01*
X61156526Y-27303485D01*
X61152400Y-27344226D01*
X61152400Y-27422400D01*
X58307600Y-27422400D01*
X58307600Y-24577600D01*
X61152400Y-24577600D01*
X61152400Y-24655562D01*
X61160445Y-24712172D01*
X61183942Y-24764300D01*
X61221032Y-24807817D01*
X61268777Y-24839279D01*
X61323397Y-24856194D01*
X61380567Y-24857222D01*
X61435759Y-24842283D01*
X61466865Y-24825592D01*
X61607813Y-24733358D01*
X61866452Y-24628861D01*
X62140461Y-24576591D01*
X62419400Y-24578538D01*
X62419400Y-24578538D01*
G37*
G36*
X108339400Y-22078538D02*
X108612653Y-22134629D01*
X108869809Y-22242727D01*
X109101061Y-22398710D01*
X109297623Y-22596648D01*
X109451989Y-22828986D01*
X109558290Y-23086892D01*
X109612192Y-23359120D01*
X109612191Y-23359165D01*
X109612461Y-23360527D01*
X109608012Y-23679137D01*
X109607705Y-23680490D01*
X109607704Y-23680536D01*
X109546221Y-23951155D01*
X109432763Y-24205985D01*
X109271968Y-24433927D01*
X109069956Y-24626300D01*
X108834436Y-24775766D01*
X108574367Y-24876639D01*
X108299651Y-24925080D01*
X108020769Y-24919237D01*
X107748324Y-24859336D01*
X107492704Y-24747659D01*
X107263651Y-24588463D01*
X107069872Y-24387799D01*
X106918767Y-24153329D01*
X106816077Y-23893965D01*
X106765721Y-23619597D01*
X106769616Y-23340680D01*
X106827613Y-23067823D01*
X106937502Y-22811434D01*
X107095099Y-22581268D01*
X107294397Y-22386102D01*
X107527817Y-22233357D01*
X107786452Y-22128861D01*
X108060461Y-22076591D01*
X108339400Y-22078538D01*
X108339400Y-22078538D01*
G37*
G36*
X115959400Y-22078538D02*
X116232653Y-22134629D01*
X116489809Y-22242727D01*
X116721061Y-22398710D01*
X116917623Y-22596648D01*
X117071989Y-22828986D01*
X117178290Y-23086892D01*
X117232192Y-23359120D01*
X117232191Y-23359165D01*
X117232461Y-23360527D01*
X117228012Y-23679137D01*
X117227705Y-23680490D01*
X117227704Y-23680536D01*
X117166221Y-23951155D01*
X117052763Y-24205985D01*
X116891968Y-24433927D01*
X116689956Y-24626300D01*
X116454436Y-24775766D01*
X116194367Y-24876639D01*
X115919651Y-24925080D01*
X115640769Y-24919237D01*
X115368324Y-24859336D01*
X115112704Y-24747659D01*
X114883651Y-24588463D01*
X114689872Y-24387799D01*
X114538767Y-24153329D01*
X114436077Y-23893965D01*
X114385721Y-23619597D01*
X114389616Y-23340680D01*
X114447613Y-23067823D01*
X114557502Y-22811434D01*
X114715099Y-22581268D01*
X114914397Y-22386102D01*
X115147817Y-22233357D01*
X115406452Y-22128861D01*
X115680461Y-22076591D01*
X115959400Y-22078538D01*
X115959400Y-22078538D01*
G37*
G36*
X104843477Y-21884461D02*
X105116730Y-21940552D01*
X105373886Y-22048650D01*
X105605138Y-22204633D01*
X105801700Y-22402571D01*
X105956066Y-22634909D01*
X106062367Y-22892815D01*
X106116269Y-23165043D01*
X106116268Y-23165088D01*
X106116538Y-23166450D01*
X106112089Y-23485060D01*
X106111782Y-23486413D01*
X106111781Y-23486459D01*
X106050298Y-23757078D01*
X105936840Y-24011908D01*
X105776045Y-24239850D01*
X105574033Y-24432223D01*
X105338513Y-24581689D01*
X105078444Y-24682562D01*
X104803728Y-24731003D01*
X104524846Y-24725160D01*
X104252401Y-24665259D01*
X103996781Y-24553582D01*
X103767728Y-24394386D01*
X103573949Y-24193722D01*
X103422844Y-23959252D01*
X103320154Y-23699888D01*
X103269798Y-23425520D01*
X103273693Y-23146603D01*
X103331690Y-22873746D01*
X103441579Y-22617357D01*
X103599176Y-22387191D01*
X103798474Y-22192025D01*
X104031894Y-22039280D01*
X104290529Y-21934784D01*
X104564538Y-21882514D01*
X104843477Y-21884461D01*
X104843477Y-21884461D01*
G37*
G36*
X51339400Y-20078538D02*
X51612653Y-20134629D01*
X51869809Y-20242727D01*
X52101061Y-20398710D01*
X52297623Y-20596648D01*
X52451989Y-20828986D01*
X52558290Y-21086892D01*
X52612192Y-21359120D01*
X52612191Y-21359165D01*
X52612461Y-21360527D01*
X52608012Y-21679137D01*
X52607705Y-21680490D01*
X52607704Y-21680536D01*
X52546221Y-21951155D01*
X52432763Y-22205985D01*
X52271968Y-22433927D01*
X52069956Y-22626300D01*
X51834436Y-22775766D01*
X51574367Y-22876639D01*
X51299651Y-22925080D01*
X51020769Y-22919237D01*
X50748324Y-22859336D01*
X50492704Y-22747659D01*
X50263651Y-22588463D01*
X50069872Y-22387799D01*
X49918767Y-22153329D01*
X49816077Y-21893965D01*
X49765721Y-21619597D01*
X49769616Y-21340680D01*
X49827613Y-21067823D01*
X49937502Y-20811434D01*
X50095099Y-20581268D01*
X50294397Y-20386102D01*
X50527817Y-20233357D01*
X50786452Y-20128861D01*
X51060461Y-20076591D01*
X51339400Y-20078538D01*
X51339400Y-20078538D01*
G37*
G36*
X58959400Y-20078538D02*
X59232653Y-20134629D01*
X59489809Y-20242727D01*
X59721061Y-20398710D01*
X59917623Y-20596648D01*
X60071989Y-20828986D01*
X60178290Y-21086892D01*
X60232192Y-21359120D01*
X60232191Y-21359165D01*
X60232461Y-21360527D01*
X60228012Y-21679137D01*
X60227705Y-21680490D01*
X60227704Y-21680536D01*
X60166221Y-21951155D01*
X60052763Y-22205985D01*
X59891968Y-22433927D01*
X59689956Y-22626300D01*
X59454436Y-22775766D01*
X59194367Y-22876639D01*
X58919651Y-22925080D01*
X58640769Y-22919237D01*
X58368324Y-22859336D01*
X58112704Y-22747659D01*
X57883651Y-22588463D01*
X57689872Y-22387799D01*
X57538767Y-22153329D01*
X57436077Y-21893965D01*
X57385721Y-21619597D01*
X57389616Y-21340680D01*
X57447613Y-21067823D01*
X57557502Y-20811434D01*
X57715099Y-20581268D01*
X57914397Y-20386102D01*
X58147817Y-20233357D01*
X58406452Y-20128861D01*
X58680461Y-20076591D01*
X58959400Y-20078538D01*
X58959400Y-20078538D01*
G37*
G36*
X17921060Y-20205454D02*
X18169916Y-20256537D01*
X18404112Y-20354983D01*
X18614717Y-20497039D01*
X18793727Y-20677303D01*
X18934312Y-20888900D01*
X19031121Y-21123777D01*
X19080186Y-21371573D01*
X19080185Y-21371613D01*
X19080456Y-21372979D01*
X19076404Y-21663142D01*
X19076096Y-21664500D01*
X19076095Y-21664541D01*
X19020131Y-21910869D01*
X18916800Y-22142955D01*
X18770364Y-22350541D01*
X18586392Y-22525735D01*
X18371893Y-22661859D01*
X18135048Y-22753725D01*
X17884860Y-22797841D01*
X17630879Y-22792520D01*
X17382759Y-22737967D01*
X17149962Y-22636261D01*
X16941361Y-22491279D01*
X16764882Y-22308531D01*
X16627269Y-22094996D01*
X16533748Y-21858790D01*
X16487888Y-21608919D01*
X16491436Y-21354907D01*
X16544255Y-21106409D01*
X16644332Y-20872913D01*
X16787856Y-20663301D01*
X16969368Y-20485551D01*
X17181936Y-20346450D01*
X17417483Y-20251284D01*
X17667027Y-20203680D01*
X17921060Y-20205454D01*
X17921060Y-20205454D01*
G37*
G36*
X29351060Y-20205454D02*
X29599916Y-20256537D01*
X29834112Y-20354983D01*
X30044717Y-20497039D01*
X30223727Y-20677303D01*
X30364312Y-20888900D01*
X30461121Y-21123777D01*
X30510186Y-21371573D01*
X30510185Y-21371613D01*
X30510456Y-21372979D01*
X30506404Y-21663142D01*
X30506096Y-21664500D01*
X30506095Y-21664541D01*
X30450131Y-21910869D01*
X30346800Y-22142955D01*
X30200364Y-22350541D01*
X30016392Y-22525735D01*
X29801893Y-22661859D01*
X29565048Y-22753725D01*
X29314860Y-22797841D01*
X29060879Y-22792520D01*
X28812759Y-22737967D01*
X28579962Y-22636261D01*
X28371361Y-22491279D01*
X28194882Y-22308531D01*
X28057269Y-22094996D01*
X27963748Y-21858790D01*
X27917888Y-21608919D01*
X27921436Y-21354907D01*
X27974255Y-21106409D01*
X28074332Y-20872913D01*
X28217856Y-20663301D01*
X28399368Y-20485551D01*
X28611936Y-20346450D01*
X28847483Y-20251284D01*
X29097027Y-20203680D01*
X29351060Y-20205454D01*
X29351060Y-20205454D01*
G37*
G36*
X36421060Y-20205454D02*
X36669916Y-20256537D01*
X36904112Y-20354983D01*
X37114717Y-20497039D01*
X37293727Y-20677303D01*
X37434312Y-20888900D01*
X37531121Y-21123777D01*
X37580186Y-21371573D01*
X37580185Y-21371613D01*
X37580456Y-21372979D01*
X37576404Y-21663142D01*
X37576096Y-21664500D01*
X37576095Y-21664541D01*
X37520131Y-21910869D01*
X37416800Y-22142955D01*
X37270364Y-22350541D01*
X37086392Y-22525735D01*
X36871893Y-22661859D01*
X36635048Y-22753725D01*
X36384860Y-22797841D01*
X36130879Y-22792520D01*
X35882759Y-22737967D01*
X35649962Y-22636261D01*
X35441361Y-22491279D01*
X35264882Y-22308531D01*
X35127269Y-22094996D01*
X35033748Y-21858790D01*
X34987888Y-21608919D01*
X34991436Y-21354907D01*
X35044255Y-21106409D01*
X35144332Y-20872913D01*
X35287856Y-20663301D01*
X35469368Y-20485551D01*
X35681936Y-20346450D01*
X35917483Y-20251284D01*
X36167027Y-20203680D01*
X36421060Y-20205454D01*
X36421060Y-20205454D01*
G37*
G36*
X47851060Y-20205454D02*
X48099916Y-20256537D01*
X48334112Y-20354983D01*
X48544717Y-20497039D01*
X48723727Y-20677303D01*
X48864312Y-20888900D01*
X48961121Y-21123777D01*
X49010186Y-21371573D01*
X49010185Y-21371613D01*
X49010456Y-21372979D01*
X49006404Y-21663142D01*
X49006096Y-21664500D01*
X49006095Y-21664541D01*
X48950131Y-21910869D01*
X48846800Y-22142955D01*
X48700364Y-22350541D01*
X48516392Y-22525735D01*
X48301893Y-22661859D01*
X48065048Y-22753725D01*
X47814860Y-22797841D01*
X47560879Y-22792520D01*
X47312759Y-22737967D01*
X47079962Y-22636261D01*
X46871361Y-22491279D01*
X46694882Y-22308531D01*
X46557269Y-22094996D01*
X46463748Y-21858790D01*
X46417888Y-21608919D01*
X46421436Y-21354907D01*
X46474255Y-21106409D01*
X46574332Y-20872913D01*
X46717856Y-20663301D01*
X46899368Y-20485551D01*
X47111936Y-20346450D01*
X47347483Y-20251284D01*
X47597027Y-20203680D01*
X47851060Y-20205454D01*
X47851060Y-20205454D01*
G37*
G36*
X67922400Y-20422400D02*
X65077600Y-20422400D01*
X65077600Y-17577600D01*
X67922400Y-17577600D01*
X67922400Y-20422400D01*
X67922400Y-20422400D01*
G37*
G36*
X55256114Y-14563215D02*
X55724550Y-14659371D01*
X56165377Y-14844678D01*
X56561818Y-15112081D01*
X56898775Y-15451398D01*
X57163404Y-15849697D01*
X57345633Y-16291815D01*
X57438236Y-16759496D01*
X57438235Y-16759546D01*
X57438504Y-16760903D01*
X57430877Y-17307091D01*
X57430570Y-17308444D01*
X57430569Y-17308490D01*
X57324944Y-17773402D01*
X57130442Y-18210262D01*
X56854796Y-18601015D01*
X56508499Y-18930790D01*
X56104740Y-19187022D01*
X55658911Y-19359947D01*
X55187975Y-19442987D01*
X54709889Y-19432972D01*
X54242844Y-19330285D01*
X53804644Y-19138841D01*
X53411969Y-18865925D01*
X53079788Y-18521941D01*
X52820747Y-18119988D01*
X52644709Y-17675368D01*
X52558385Y-17205026D01*
X52565062Y-16726882D01*
X52664486Y-16259128D01*
X52852866Y-15819604D01*
X53123030Y-15425039D01*
X53464690Y-15090461D01*
X53864830Y-14828617D01*
X54308205Y-14649482D01*
X54777933Y-14559876D01*
X55256114Y-14563215D01*
X55256114Y-14563215D01*
G37*
G36*
X130256114Y-14563215D02*
X130724550Y-14659371D01*
X131165377Y-14844678D01*
X131561818Y-15112081D01*
X131898775Y-15451398D01*
X132163404Y-15849697D01*
X132345633Y-16291815D01*
X132438236Y-16759496D01*
X132438235Y-16759546D01*
X132438504Y-16760903D01*
X132430877Y-17307091D01*
X132430570Y-17308444D01*
X132430569Y-17308490D01*
X132324944Y-17773402D01*
X132130442Y-18210262D01*
X131854796Y-18601015D01*
X131508499Y-18930790D01*
X131104740Y-19187022D01*
X130658911Y-19359947D01*
X130187975Y-19442987D01*
X129709889Y-19432972D01*
X129242844Y-19330285D01*
X128804644Y-19138841D01*
X128411969Y-18865925D01*
X128079788Y-18521941D01*
X127820747Y-18119988D01*
X127644709Y-17675368D01*
X127558385Y-17205026D01*
X127565062Y-16726882D01*
X127664486Y-16259128D01*
X127852866Y-15819604D01*
X128123030Y-15425039D01*
X128464690Y-15090461D01*
X128864830Y-14828617D01*
X129308205Y-14649482D01*
X129777933Y-14559876D01*
X130256114Y-14563215D01*
X130256114Y-14563215D01*
G37*
G36*
X24339400Y-16578538D02*
X24612653Y-16634629D01*
X24869809Y-16742727D01*
X25101061Y-16898710D01*
X25297623Y-17096648D01*
X25451989Y-17328986D01*
X25558290Y-17586892D01*
X25612192Y-17859120D01*
X25612191Y-17859165D01*
X25612461Y-17860527D01*
X25608012Y-18179137D01*
X25607705Y-18180490D01*
X25607704Y-18180536D01*
X25546221Y-18451155D01*
X25432763Y-18705985D01*
X25271968Y-18933927D01*
X25069956Y-19126300D01*
X24834436Y-19275766D01*
X24574367Y-19376639D01*
X24299651Y-19425080D01*
X24020769Y-19419237D01*
X23748324Y-19359336D01*
X23492704Y-19247659D01*
X23263651Y-19088463D01*
X23069872Y-18887799D01*
X22918767Y-18653329D01*
X22816077Y-18393965D01*
X22765721Y-18119597D01*
X22769616Y-17840680D01*
X22827613Y-17567823D01*
X22937502Y-17311434D01*
X23095099Y-17081268D01*
X23294397Y-16886102D01*
X23527817Y-16733357D01*
X23786452Y-16628861D01*
X24060461Y-16576591D01*
X24339400Y-16578538D01*
X24339400Y-16578538D01*
G37*
G36*
X31959400Y-16578538D02*
X32232653Y-16634629D01*
X32489809Y-16742727D01*
X32721061Y-16898710D01*
X32917623Y-17096648D01*
X33071989Y-17328986D01*
X33178290Y-17586892D01*
X33232192Y-17859120D01*
X33232191Y-17859165D01*
X33232461Y-17860527D01*
X33228012Y-18179137D01*
X33227705Y-18180490D01*
X33227704Y-18180536D01*
X33166221Y-18451155D01*
X33052763Y-18705985D01*
X32891968Y-18933927D01*
X32689956Y-19126300D01*
X32454436Y-19275766D01*
X32194367Y-19376639D01*
X31919651Y-19425080D01*
X31640769Y-19419237D01*
X31368324Y-19359336D01*
X31112704Y-19247659D01*
X30883651Y-19088463D01*
X30689872Y-18887799D01*
X30538767Y-18653329D01*
X30436077Y-18393965D01*
X30385721Y-18119597D01*
X30389616Y-17840680D01*
X30447613Y-17567823D01*
X30557502Y-17311434D01*
X30715099Y-17081268D01*
X30914397Y-16886102D01*
X31147817Y-16733357D01*
X31406452Y-16628861D01*
X31680461Y-16576591D01*
X31959400Y-16578538D01*
X31959400Y-16578538D01*
G37*
G36*
X124739400Y-15578538D02*
X125012653Y-15634629D01*
X125269809Y-15742727D01*
X125501061Y-15898710D01*
X125697623Y-16096648D01*
X125851989Y-16328986D01*
X125958290Y-16586892D01*
X126012192Y-16859120D01*
X126012191Y-16859165D01*
X126012461Y-16860527D01*
X126008012Y-17179137D01*
X126007705Y-17180490D01*
X126007704Y-17180536D01*
X125946221Y-17451155D01*
X125832763Y-17705985D01*
X125671968Y-17933927D01*
X125469956Y-18126300D01*
X125234436Y-18275766D01*
X124974367Y-18376639D01*
X124699651Y-18425080D01*
X124420769Y-18419237D01*
X124148324Y-18359336D01*
X123892704Y-18247659D01*
X123663651Y-18088463D01*
X123464036Y-17881757D01*
X123418924Y-17846624D01*
X123365810Y-17825449D01*
X123308900Y-17819910D01*
X123252700Y-17830445D01*
X123201660Y-17856220D01*
X123151821Y-17905782D01*
X123131966Y-17933928D01*
X122929956Y-18126300D01*
X122694436Y-18275766D01*
X122434367Y-18376639D01*
X122159651Y-18425080D01*
X121880769Y-18419237D01*
X121608324Y-18359336D01*
X121352704Y-18247659D01*
X121123651Y-18088463D01*
X120924036Y-17881757D01*
X120878924Y-17846624D01*
X120825810Y-17825449D01*
X120768900Y-17819910D01*
X120712700Y-17830445D01*
X120661660Y-17856220D01*
X120611821Y-17905782D01*
X120591966Y-17933928D01*
X120389956Y-18126300D01*
X120154436Y-18275766D01*
X119894367Y-18376639D01*
X119619651Y-18425080D01*
X119340769Y-18419237D01*
X119068324Y-18359336D01*
X118812704Y-18247659D01*
X118583651Y-18088463D01*
X118384036Y-17881757D01*
X118338924Y-17846624D01*
X118285810Y-17825449D01*
X118228900Y-17819910D01*
X118172700Y-17830445D01*
X118121660Y-17856220D01*
X118071821Y-17905782D01*
X118051966Y-17933928D01*
X117849956Y-18126300D01*
X117614436Y-18275766D01*
X117354367Y-18376639D01*
X117079651Y-18425080D01*
X116800769Y-18419237D01*
X116528324Y-18359336D01*
X116272704Y-18247659D01*
X116043651Y-18088463D01*
X115844036Y-17881757D01*
X115798924Y-17846624D01*
X115745810Y-17825449D01*
X115688900Y-17819910D01*
X115632700Y-17830445D01*
X115581660Y-17856220D01*
X115531821Y-17905782D01*
X115511966Y-17933928D01*
X115309956Y-18126300D01*
X115074436Y-18275766D01*
X114814367Y-18376639D01*
X114539651Y-18425080D01*
X114260769Y-18419237D01*
X113988324Y-18359336D01*
X113732704Y-18247659D01*
X113503651Y-18088463D01*
X113304036Y-17881757D01*
X113258924Y-17846624D01*
X113205810Y-17825449D01*
X113148900Y-17819910D01*
X113092700Y-17830445D01*
X113041660Y-17856220D01*
X112991821Y-17905782D01*
X112971966Y-17933928D01*
X112769956Y-18126300D01*
X112534436Y-18275766D01*
X112274367Y-18376639D01*
X111999651Y-18425080D01*
X111720769Y-18419237D01*
X111448324Y-18359336D01*
X111192704Y-18247659D01*
X110963651Y-18088463D01*
X110764036Y-17881757D01*
X110718924Y-17846624D01*
X110665810Y-17825449D01*
X110608900Y-17819910D01*
X110552700Y-17830445D01*
X110501660Y-17856220D01*
X110451821Y-17905782D01*
X110431966Y-17933928D01*
X110229956Y-18126300D01*
X109994436Y-18275766D01*
X109734367Y-18376639D01*
X109459651Y-18425080D01*
X109180769Y-18419237D01*
X108908324Y-18359336D01*
X108652704Y-18247659D01*
X108423651Y-18088463D01*
X108224036Y-17881757D01*
X108178924Y-17846624D01*
X108125810Y-17825449D01*
X108068900Y-17819910D01*
X108012700Y-17830445D01*
X107961660Y-17856220D01*
X107911821Y-17905782D01*
X107891966Y-17933928D01*
X107689956Y-18126300D01*
X107454436Y-18275766D01*
X107194367Y-18376639D01*
X106919651Y-18425080D01*
X106640769Y-18419237D01*
X106368324Y-18359336D01*
X106112704Y-18247659D01*
X105883651Y-18088463D01*
X105684036Y-17881757D01*
X105638924Y-17846624D01*
X105585810Y-17825449D01*
X105528900Y-17819910D01*
X105472700Y-17830445D01*
X105421660Y-17856220D01*
X105371821Y-17905782D01*
X105351966Y-17933928D01*
X105149956Y-18126300D01*
X104914436Y-18275766D01*
X104654367Y-18376639D01*
X104379651Y-18425080D01*
X104100769Y-18419237D01*
X103828324Y-18359336D01*
X103572704Y-18247659D01*
X103343651Y-18088463D01*
X103144036Y-17881757D01*
X103098924Y-17846624D01*
X103045810Y-17825449D01*
X102988900Y-17819910D01*
X102932700Y-17830445D01*
X102881660Y-17856220D01*
X102831821Y-17905782D01*
X102811966Y-17933928D01*
X102609956Y-18126300D01*
X102374436Y-18275766D01*
X102114367Y-18376639D01*
X101839651Y-18425080D01*
X101560769Y-18419237D01*
X101288324Y-18359336D01*
X101032704Y-18247659D01*
X100803651Y-18088463D01*
X100604036Y-17881757D01*
X100558924Y-17846624D01*
X100505810Y-17825449D01*
X100448900Y-17819910D01*
X100392700Y-17830445D01*
X100341660Y-17856220D01*
X100291821Y-17905782D01*
X100271966Y-17933928D01*
X100069956Y-18126300D01*
X99834436Y-18275766D01*
X99574367Y-18376639D01*
X99299651Y-18425080D01*
X99020769Y-18419237D01*
X98748324Y-18359336D01*
X98492704Y-18247659D01*
X98263651Y-18088463D01*
X98064036Y-17881757D01*
X98018924Y-17846624D01*
X97965810Y-17825449D01*
X97908900Y-17819910D01*
X97852700Y-17830445D01*
X97801660Y-17856220D01*
X97751821Y-17905782D01*
X97731966Y-17933928D01*
X97529956Y-18126300D01*
X97294436Y-18275766D01*
X97034367Y-18376639D01*
X96759651Y-18425080D01*
X96480769Y-18419237D01*
X96208324Y-18359336D01*
X95952704Y-18247659D01*
X95723651Y-18088463D01*
X95524036Y-17881757D01*
X95478924Y-17846624D01*
X95425810Y-17825449D01*
X95368900Y-17819910D01*
X95312700Y-17830445D01*
X95261660Y-17856220D01*
X95211821Y-17905782D01*
X95191966Y-17933928D01*
X94989956Y-18126300D01*
X94754436Y-18275766D01*
X94494367Y-18376639D01*
X94219651Y-18425080D01*
X93940769Y-18419237D01*
X93668324Y-18359336D01*
X93412704Y-18247659D01*
X93183651Y-18088463D01*
X92984036Y-17881757D01*
X92938924Y-17846624D01*
X92885810Y-17825449D01*
X92828900Y-17819910D01*
X92772700Y-17830445D01*
X92721660Y-17856220D01*
X92671821Y-17905782D01*
X92651966Y-17933928D01*
X92449956Y-18126300D01*
X92214436Y-18275766D01*
X91954367Y-18376639D01*
X91679651Y-18425080D01*
X91400769Y-18419237D01*
X91128324Y-18359336D01*
X90872704Y-18247659D01*
X90643651Y-18088463D01*
X90444036Y-17881757D01*
X90398924Y-17846624D01*
X90345810Y-17825449D01*
X90288900Y-17819910D01*
X90232700Y-17830445D01*
X90181660Y-17856220D01*
X90131821Y-17905782D01*
X90111966Y-17933928D01*
X89909956Y-18126300D01*
X89674436Y-18275766D01*
X89414367Y-18376639D01*
X89139651Y-18425080D01*
X88860769Y-18419237D01*
X88588324Y-18359336D01*
X88332704Y-18247659D01*
X88103651Y-18088463D01*
X87904036Y-17881757D01*
X87858924Y-17846624D01*
X87805810Y-17825449D01*
X87748900Y-17819910D01*
X87692700Y-17830445D01*
X87641660Y-17856220D01*
X87591821Y-17905782D01*
X87571966Y-17933928D01*
X87369956Y-18126300D01*
X87134436Y-18275766D01*
X86874367Y-18376639D01*
X86599651Y-18425080D01*
X86320769Y-18419237D01*
X86048324Y-18359336D01*
X85792704Y-18247659D01*
X85563651Y-18088463D01*
X85364036Y-17881757D01*
X85318924Y-17846624D01*
X85265810Y-17825449D01*
X85208900Y-17819910D01*
X85152700Y-17830445D01*
X85101660Y-17856220D01*
X85051821Y-17905782D01*
X85031966Y-17933928D01*
X84829956Y-18126300D01*
X84594436Y-18275766D01*
X84334367Y-18376639D01*
X84059651Y-18425080D01*
X83780769Y-18419237D01*
X83508324Y-18359336D01*
X83252704Y-18247659D01*
X83023651Y-18088463D01*
X82824036Y-17881757D01*
X82778924Y-17846624D01*
X82725810Y-17825449D01*
X82668900Y-17819910D01*
X82612700Y-17830445D01*
X82561660Y-17856220D01*
X82511821Y-17905782D01*
X82491966Y-17933928D01*
X82289956Y-18126300D01*
X82054436Y-18275766D01*
X81794367Y-18376639D01*
X81519651Y-18425080D01*
X81240769Y-18419237D01*
X80968324Y-18359336D01*
X80712704Y-18247659D01*
X80483651Y-18088463D01*
X80289872Y-17887799D01*
X80138767Y-17653329D01*
X80036077Y-17393965D01*
X79985721Y-17119597D01*
X79989616Y-16840680D01*
X80047613Y-16567823D01*
X80157502Y-16311434D01*
X80315099Y-16081268D01*
X80514397Y-15886102D01*
X80747817Y-15733357D01*
X81006452Y-15628861D01*
X81280461Y-15576591D01*
X81559400Y-15578538D01*
X81832653Y-15634629D01*
X82089809Y-15742727D01*
X82321061Y-15898710D01*
X82531660Y-16110784D01*
X82531921Y-16110524D01*
X82549952Y-16130769D01*
X82598371Y-16161183D01*
X82653347Y-16176904D01*
X82710525Y-16176687D01*
X82765379Y-16160548D01*
X82813566Y-16129767D01*
X82848837Y-16090416D01*
X82855103Y-16081264D01*
X83054397Y-15886102D01*
X83287817Y-15733357D01*
X83546452Y-15628861D01*
X83820461Y-15576591D01*
X84099400Y-15578538D01*
X84372653Y-15634629D01*
X84629809Y-15742727D01*
X84861061Y-15898710D01*
X85071660Y-16110784D01*
X85071921Y-16110524D01*
X85089952Y-16130769D01*
X85138371Y-16161183D01*
X85193347Y-16176904D01*
X85250525Y-16176687D01*
X85305379Y-16160548D01*
X85353566Y-16129767D01*
X85388837Y-16090416D01*
X85395103Y-16081264D01*
X85594397Y-15886102D01*
X85827817Y-15733357D01*
X86086452Y-15628861D01*
X86360461Y-15576591D01*
X86639400Y-15578538D01*
X86912653Y-15634629D01*
X87169809Y-15742727D01*
X87401061Y-15898710D01*
X87611660Y-16110784D01*
X87611921Y-16110524D01*
X87629952Y-16130769D01*
X87678371Y-16161183D01*
X87733347Y-16176904D01*
X87790525Y-16176687D01*
X87845379Y-16160548D01*
X87893566Y-16129767D01*
X87928837Y-16090416D01*
X87935103Y-16081264D01*
X88134397Y-15886102D01*
X88367817Y-15733357D01*
X88626452Y-15628861D01*
X88900461Y-15576591D01*
X89179400Y-15578538D01*
X89452653Y-15634629D01*
X89709809Y-15742727D01*
X89941061Y-15898710D01*
X90151660Y-16110784D01*
X90151921Y-16110524D01*
X90169952Y-16130769D01*
X90218371Y-16161183D01*
X90273347Y-16176904D01*
X90330525Y-16176687D01*
X90385379Y-16160548D01*
X90433566Y-16129767D01*
X90468837Y-16090416D01*
X90475103Y-16081264D01*
X90674397Y-15886102D01*
X90907817Y-15733357D01*
X91166452Y-15628861D01*
X91440461Y-15576591D01*
X91719400Y-15578538D01*
X91992653Y-15634629D01*
X92249809Y-15742727D01*
X92481061Y-15898710D01*
X92691660Y-16110784D01*
X92691921Y-16110524D01*
X92709952Y-16130769D01*
X92758371Y-16161183D01*
X92813347Y-16176904D01*
X92870525Y-16176687D01*
X92925379Y-16160548D01*
X92973566Y-16129767D01*
X93008837Y-16090416D01*
X93015103Y-16081264D01*
X93214397Y-15886102D01*
X93447817Y-15733357D01*
X93706452Y-15628861D01*
X93980461Y-15576591D01*
X94259400Y-15578538D01*
X94532653Y-15634629D01*
X94789809Y-15742727D01*
X95021061Y-15898710D01*
X95231660Y-16110784D01*
X95231921Y-16110524D01*
X95249952Y-16130769D01*
X95298371Y-16161183D01*
X95353347Y-16176904D01*
X95410525Y-16176687D01*
X95465379Y-16160548D01*
X95513566Y-16129767D01*
X95548837Y-16090416D01*
X95555103Y-16081264D01*
X95754397Y-15886102D01*
X95987817Y-15733357D01*
X96246452Y-15628861D01*
X96520461Y-15576591D01*
X96799400Y-15578538D01*
X97072653Y-15634629D01*
X97329809Y-15742727D01*
X97561061Y-15898710D01*
X97771660Y-16110784D01*
X97771921Y-16110524D01*
X97789952Y-16130769D01*
X97838371Y-16161183D01*
X97893347Y-16176904D01*
X97950525Y-16176687D01*
X98005379Y-16160548D01*
X98053566Y-16129767D01*
X98088837Y-16090416D01*
X98095103Y-16081264D01*
X98294397Y-15886102D01*
X98527817Y-15733357D01*
X98786452Y-15628861D01*
X99060461Y-15576591D01*
X99339400Y-15578538D01*
X99612653Y-15634629D01*
X99869809Y-15742727D01*
X100101061Y-15898710D01*
X100311660Y-16110784D01*
X100311921Y-16110524D01*
X100329952Y-16130769D01*
X100378371Y-16161183D01*
X100433347Y-16176904D01*
X100490525Y-16176687D01*
X100545379Y-16160548D01*
X100593566Y-16129767D01*
X100628837Y-16090416D01*
X100635103Y-16081264D01*
X100834397Y-15886102D01*
X101067817Y-15733357D01*
X101326452Y-15628861D01*
X101600461Y-15576591D01*
X101879400Y-15578538D01*
X102152653Y-15634629D01*
X102409809Y-15742727D01*
X102641061Y-15898710D01*
X102851660Y-16110784D01*
X102851921Y-16110524D01*
X102869952Y-16130769D01*
X102918371Y-16161183D01*
X102973347Y-16176904D01*
X103030525Y-16176687D01*
X103085379Y-16160548D01*
X103133566Y-16129767D01*
X103168837Y-16090416D01*
X103175103Y-16081264D01*
X103374397Y-15886102D01*
X103607817Y-15733357D01*
X103866452Y-15628861D01*
X104140461Y-15576591D01*
X104419400Y-15578538D01*
X104692653Y-15634629D01*
X104949809Y-15742727D01*
X105181061Y-15898710D01*
X105391660Y-16110784D01*
X105391921Y-16110524D01*
X105409952Y-16130769D01*
X105458371Y-16161183D01*
X105513347Y-16176904D01*
X105570525Y-16176687D01*
X105625379Y-16160548D01*
X105673566Y-16129767D01*
X105708837Y-16090416D01*
X105715103Y-16081264D01*
X105914397Y-15886102D01*
X106147817Y-15733357D01*
X106406452Y-15628861D01*
X106680461Y-15576591D01*
X106959400Y-15578538D01*
X107232653Y-15634629D01*
X107489809Y-15742727D01*
X107721061Y-15898710D01*
X107931660Y-16110784D01*
X107931921Y-16110524D01*
X107949952Y-16130769D01*
X107998371Y-16161183D01*
X108053347Y-16176904D01*
X108110525Y-16176687D01*
X108165379Y-16160548D01*
X108213566Y-16129767D01*
X108248837Y-16090416D01*
X108255103Y-16081264D01*
X108454397Y-15886102D01*
X108687817Y-15733357D01*
X108946452Y-15628861D01*
X109220461Y-15576591D01*
X109499400Y-15578538D01*
X109772653Y-15634629D01*
X110029809Y-15742727D01*
X110261061Y-15898710D01*
X110471660Y-16110784D01*
X110471921Y-16110524D01*
X110489952Y-16130769D01*
X110538371Y-16161183D01*
X110593347Y-16176904D01*
X110650525Y-16176687D01*
X110705379Y-16160548D01*
X110753566Y-16129767D01*
X110788837Y-16090416D01*
X110795103Y-16081264D01*
X110994397Y-15886102D01*
X111227817Y-15733357D01*
X111486452Y-15628861D01*
X111760461Y-15576591D01*
X112039400Y-15578538D01*
X112312653Y-15634629D01*
X112569809Y-15742727D01*
X112801061Y-15898710D01*
X113011660Y-16110784D01*
X113011921Y-16110524D01*
X113029952Y-16130769D01*
X113078371Y-16161183D01*
X113133347Y-16176904D01*
X113190525Y-16176687D01*
X113245379Y-16160548D01*
X113293566Y-16129767D01*
X113328837Y-16090416D01*
X113335103Y-16081264D01*
X113534397Y-15886102D01*
X113767817Y-15733357D01*
X114026452Y-15628861D01*
X114300461Y-15576591D01*
X114579400Y-15578538D01*
X114852653Y-15634629D01*
X115109809Y-15742727D01*
X115341061Y-15898710D01*
X115551660Y-16110784D01*
X115551921Y-16110524D01*
X115569952Y-16130769D01*
X115618371Y-16161183D01*
X115673347Y-16176904D01*
X115730525Y-16176687D01*
X115785379Y-16160548D01*
X115833566Y-16129767D01*
X115868837Y-16090416D01*
X115875103Y-16081264D01*
X116074397Y-15886102D01*
X116307817Y-15733357D01*
X116566452Y-15628861D01*
X116840461Y-15576591D01*
X117119400Y-15578538D01*
X117392653Y-15634629D01*
X117649809Y-15742727D01*
X117881061Y-15898710D01*
X118091660Y-16110784D01*
X118091921Y-16110524D01*
X118109952Y-16130769D01*
X118158371Y-16161183D01*
X118213347Y-16176904D01*
X118270525Y-16176687D01*
X118325379Y-16160548D01*
X118373566Y-16129767D01*
X118408837Y-16090416D01*
X118415103Y-16081264D01*
X118614397Y-15886102D01*
X118847817Y-15733357D01*
X119106452Y-15628861D01*
X119380461Y-15576591D01*
X119659400Y-15578538D01*
X119932653Y-15634629D01*
X120189809Y-15742727D01*
X120421061Y-15898710D01*
X120631660Y-16110784D01*
X120631921Y-16110524D01*
X120649952Y-16130769D01*
X120698371Y-16161183D01*
X120753347Y-16176904D01*
X120810525Y-16176687D01*
X120865379Y-16160548D01*
X120913566Y-16129767D01*
X120948837Y-16090416D01*
X120955103Y-16081264D01*
X121154397Y-15886102D01*
X121387817Y-15733357D01*
X121646452Y-15628861D01*
X121920461Y-15576591D01*
X122199400Y-15578538D01*
X122472653Y-15634629D01*
X122729809Y-15742727D01*
X122961061Y-15898710D01*
X123171660Y-16110784D01*
X123171921Y-16110524D01*
X123189952Y-16130769D01*
X123238371Y-16161183D01*
X123293347Y-16176904D01*
X123350525Y-16176687D01*
X123405379Y-16160548D01*
X123453566Y-16129767D01*
X123488837Y-16090416D01*
X123495103Y-16081264D01*
X123694397Y-15886102D01*
X123927817Y-15733357D01*
X124186452Y-15628861D01*
X124460461Y-15576591D01*
X124739400Y-15578538D01*
X124739400Y-15578538D01*
G37*
M02*
