G04 #@! TF.FileFunction,Legend,Top*
%FSLAX46Y46*%
G04 Gerber Fmt 4.6, Leading zero omitted, Abs format (unit mm)*
G04 Created by KiCad (PCBNEW 4.0.2-stable) date 05/06/2017 19:11:29*
%MOMM*%
G01*
G04 APERTURE LIST*
%ADD10C,0.150000*%
%ADD11C,0.304800*%
%ADD12C,0.381000*%
%ADD13C,0.152400*%
%ADD14C,0.271780*%
%ADD15C,0.254000*%
%ADD16C,0.203200*%
G04 APERTURE END LIST*
D10*
D11*
X125860000Y-18270000D02*
X80140000Y-18270000D01*
X80140000Y-18270000D02*
X80140000Y-15730000D01*
X80140000Y-15730000D02*
X125860000Y-15730000D01*
X125860000Y-15730000D02*
X125860000Y-18270000D01*
X123320000Y-18270000D02*
X123320000Y-15730000D01*
X37555000Y-20230000D02*
X37555000Y-22770000D01*
X37555000Y-22770000D02*
X46445000Y-22770000D01*
X46445000Y-22770000D02*
X46445000Y-20230000D01*
X46445000Y-20230000D02*
X37555000Y-20230000D01*
X37555000Y-20865000D02*
X38190000Y-20230000D01*
X37555000Y-21500000D02*
X36285000Y-21500000D01*
X46445000Y-21500000D02*
X47715000Y-21500000D01*
X37555000Y-25230000D02*
X37555000Y-27770000D01*
X37555000Y-27770000D02*
X46445000Y-27770000D01*
X46445000Y-27770000D02*
X46445000Y-25230000D01*
X46445000Y-25230000D02*
X37555000Y-25230000D01*
X37555000Y-25865000D02*
X38190000Y-25230000D01*
X37555000Y-26500000D02*
X36285000Y-26500000D01*
X46445000Y-26500000D02*
X47715000Y-26500000D01*
X19055000Y-20230000D02*
X19055000Y-22770000D01*
X19055000Y-22770000D02*
X27945000Y-22770000D01*
X27945000Y-22770000D02*
X27945000Y-20230000D01*
X27945000Y-20230000D02*
X19055000Y-20230000D01*
X19055000Y-20865000D02*
X19690000Y-20230000D01*
X19055000Y-21500000D02*
X17785000Y-21500000D01*
X27945000Y-21500000D02*
X29215000Y-21500000D01*
X19055000Y-25230000D02*
X19055000Y-27770000D01*
X19055000Y-27770000D02*
X27945000Y-27770000D01*
X27945000Y-27770000D02*
X27945000Y-25230000D01*
X27945000Y-25230000D02*
X19055000Y-25230000D01*
X19055000Y-25865000D02*
X19690000Y-25230000D01*
X19055000Y-26500000D02*
X17785000Y-26500000D01*
X27945000Y-26500000D02*
X29215000Y-26500000D01*
X28055000Y-44230000D02*
X28055000Y-46770000D01*
X28055000Y-46770000D02*
X36945000Y-46770000D01*
X36945000Y-46770000D02*
X36945000Y-44230000D01*
X36945000Y-44230000D02*
X28055000Y-44230000D01*
X28055000Y-44865000D02*
X28690000Y-44230000D01*
X28055000Y-45500000D02*
X26785000Y-45500000D01*
X36945000Y-45500000D02*
X38215000Y-45500000D01*
X28055000Y-39230000D02*
X28055000Y-41770000D01*
X28055000Y-41770000D02*
X36945000Y-41770000D01*
X36945000Y-41770000D02*
X36945000Y-39230000D01*
X36945000Y-39230000D02*
X28055000Y-39230000D01*
X28055000Y-39865000D02*
X28690000Y-39230000D01*
X28055000Y-40500000D02*
X26785000Y-40500000D01*
X36945000Y-40500000D02*
X38215000Y-40500000D01*
X90305923Y-32305923D02*
X90665133Y-32665133D01*
X95694077Y-37694077D02*
X95334867Y-37334867D01*
X95334867Y-37334867D02*
X96053287Y-36616446D01*
X96053287Y-36616446D02*
X91383554Y-31946713D01*
X91383554Y-31946713D02*
X89946713Y-33383554D01*
X89946713Y-33383554D02*
X94616446Y-38053287D01*
X94616446Y-38053287D02*
X95334867Y-37334867D01*
X91024344Y-32305923D02*
X91742764Y-32305923D01*
X104694077Y-23305923D02*
X104334867Y-23665133D01*
X99305923Y-28694077D02*
X99665133Y-28334867D01*
X99665133Y-28334867D02*
X100383554Y-29053287D01*
X100383554Y-29053287D02*
X105053287Y-24383554D01*
X105053287Y-24383554D02*
X103616446Y-22946713D01*
X103616446Y-22946713D02*
X98946713Y-27616446D01*
X98946713Y-27616446D02*
X99665133Y-28334867D01*
X104694077Y-24024344D02*
X104694077Y-24742764D01*
X115810000Y-23500000D02*
X115302000Y-23500000D01*
X108190000Y-23500000D02*
X108698000Y-23500000D01*
X108698000Y-23500000D02*
X108698000Y-24516000D01*
X108698000Y-24516000D02*
X115302000Y-24516000D01*
X115302000Y-24516000D02*
X115302000Y-22484000D01*
X115302000Y-22484000D02*
X108698000Y-22484000D01*
X108698000Y-22484000D02*
X108698000Y-23500000D01*
X115302000Y-24008000D02*
X114794000Y-24516000D01*
X58810000Y-21500000D02*
X58302000Y-21500000D01*
X51190000Y-21500000D02*
X51698000Y-21500000D01*
X51698000Y-21500000D02*
X51698000Y-22516000D01*
X51698000Y-22516000D02*
X58302000Y-22516000D01*
X58302000Y-22516000D02*
X58302000Y-20484000D01*
X58302000Y-20484000D02*
X51698000Y-20484000D01*
X51698000Y-20484000D02*
X51698000Y-21500000D01*
X58302000Y-22008000D02*
X57794000Y-22516000D01*
X31810000Y-18000000D02*
X31302000Y-18000000D01*
X24190000Y-18000000D02*
X24698000Y-18000000D01*
X24698000Y-18000000D02*
X24698000Y-19016000D01*
X24698000Y-19016000D02*
X31302000Y-19016000D01*
X31302000Y-19016000D02*
X31302000Y-16984000D01*
X31302000Y-16984000D02*
X24698000Y-16984000D01*
X24698000Y-16984000D02*
X24698000Y-18000000D01*
X31302000Y-18508000D02*
X30794000Y-19016000D01*
X35194077Y-30805923D02*
X34834867Y-31165133D01*
X29805923Y-36194077D02*
X30165133Y-35834867D01*
X30165133Y-35834867D02*
X30883554Y-36553287D01*
X30883554Y-36553287D02*
X35553287Y-31883554D01*
X35553287Y-31883554D02*
X34116446Y-30446713D01*
X34116446Y-30446713D02*
X29446713Y-35116446D01*
X29446713Y-35116446D02*
X30165133Y-35834867D01*
X35194077Y-31524344D02*
X35194077Y-32242764D01*
D12*
X57286000Y-17000000D02*
G75*
G03X57286000Y-17000000I-2286000J0D01*
G01*
X132286000Y-17000000D02*
G75*
G03X132286000Y-17000000I-2286000J0D01*
G01*
X132286000Y-48000000D02*
G75*
G03X132286000Y-48000000I-2286000J0D01*
G01*
D11*
X112120000Y-46730000D02*
X112120000Y-49270000D01*
X112120000Y-49270000D02*
X96880000Y-49270000D01*
X96880000Y-49270000D02*
X96880000Y-46730000D01*
X96880000Y-46730000D02*
X112120000Y-46730000D01*
X109580000Y-46730000D02*
X109580000Y-49270000D01*
D13*
X58460000Y-27270000D02*
X58460000Y-24730000D01*
X58460000Y-24730000D02*
X63540000Y-24730000D01*
X63540000Y-24730000D02*
X63540000Y-27270000D01*
X63540000Y-27270000D02*
X58460000Y-27270000D01*
X67770000Y-20270000D02*
X65230000Y-20270000D01*
X65230000Y-17730000D02*
X67770000Y-17730000D01*
X65230000Y-20270000D02*
X65230000Y-17730000D01*
X67770000Y-17730000D02*
X67770000Y-20270000D01*
D11*
X78780000Y-47270000D02*
X43220000Y-47270000D01*
X43220000Y-47270000D02*
X43220000Y-44730000D01*
X43220000Y-44730000D02*
X78780000Y-44730000D01*
X78780000Y-44730000D02*
X78780000Y-47270000D01*
X83190000Y-46000000D02*
X83698000Y-46000000D01*
X90810000Y-46000000D02*
X90302000Y-46000000D01*
X90302000Y-46000000D02*
X90302000Y-44984000D01*
X90302000Y-44984000D02*
X83698000Y-44984000D01*
X83698000Y-44984000D02*
X83698000Y-47016000D01*
X83698000Y-47016000D02*
X90302000Y-47016000D01*
X90302000Y-47016000D02*
X90302000Y-46000000D01*
X83698000Y-45492000D02*
X84206000Y-44984000D01*
X89510800Y-48230000D02*
X94540000Y-48230000D01*
X94540000Y-48230000D02*
X94540000Y-50770000D01*
X94540000Y-50770000D02*
X89460000Y-50770000D01*
X89460000Y-50770000D02*
X89460000Y-48230000D01*
X89460000Y-48865000D02*
X90095000Y-48230000D01*
D14*
X114897602Y-20322501D02*
X114897602Y-18592761D01*
X115311743Y-18592761D01*
X115415278Y-18675130D01*
X115467046Y-18757499D01*
X115518814Y-18922236D01*
X115518814Y-19169341D01*
X115467046Y-19334079D01*
X115415278Y-19416447D01*
X115311743Y-19498816D01*
X114897602Y-19498816D01*
X116554166Y-20322501D02*
X115932954Y-20322501D01*
X116243560Y-20322501D02*
X116243560Y-18592761D01*
X116140025Y-18839867D01*
X116036490Y-19004604D01*
X115932954Y-19086973D01*
D11*
D15*
X91473238Y-20084286D02*
X91424857Y-20156857D01*
X91279714Y-20229429D01*
X91182952Y-20229429D01*
X91037810Y-20156857D01*
X90941048Y-20011714D01*
X90892667Y-19866571D01*
X90844286Y-19576286D01*
X90844286Y-19358571D01*
X90892667Y-19068286D01*
X90941048Y-18923143D01*
X91037810Y-18778000D01*
X91182952Y-18705429D01*
X91279714Y-18705429D01*
X91424857Y-18778000D01*
X91473238Y-18850571D01*
X92102191Y-18705429D02*
X92295714Y-18705429D01*
X92392476Y-18778000D01*
X92489238Y-18923143D01*
X92537619Y-19213429D01*
X92537619Y-19721429D01*
X92489238Y-20011714D01*
X92392476Y-20156857D01*
X92295714Y-20229429D01*
X92102191Y-20229429D01*
X92005429Y-20156857D01*
X91908667Y-20011714D01*
X91860286Y-19721429D01*
X91860286Y-19213429D01*
X91908667Y-18923143D01*
X92005429Y-18778000D01*
X92102191Y-18705429D01*
X92973048Y-20229429D02*
X92973048Y-18705429D01*
X93553619Y-20229429D01*
X93553619Y-18705429D01*
X94037429Y-20229429D02*
X94037429Y-18705429D01*
X94618000Y-20229429D01*
X94618000Y-18705429D01*
X94859905Y-20374571D02*
X95634000Y-20374571D01*
X96408095Y-20229429D02*
X95827524Y-20229429D01*
X96117810Y-20229429D02*
X96117810Y-18705429D01*
X96021048Y-18923143D01*
X95924286Y-19068286D01*
X95827524Y-19140857D01*
X96891905Y-20229429D02*
X97085429Y-20229429D01*
X97182190Y-20156857D01*
X97230571Y-20084286D01*
X97327333Y-19866571D01*
X97375714Y-19576286D01*
X97375714Y-18995714D01*
X97327333Y-18850571D01*
X97278952Y-18778000D01*
X97182190Y-18705429D01*
X96988667Y-18705429D01*
X96891905Y-18778000D01*
X96843524Y-18850571D01*
X96795143Y-18995714D01*
X96795143Y-19358571D01*
X96843524Y-19503714D01*
X96891905Y-19576286D01*
X96988667Y-19648857D01*
X97182190Y-19648857D01*
X97278952Y-19576286D01*
X97327333Y-19503714D01*
X97375714Y-19358571D01*
D11*
D15*
X41830667Y-22189429D02*
X41492001Y-21463714D01*
X41250096Y-22189429D02*
X41250096Y-20665429D01*
X41637143Y-20665429D01*
X41733905Y-20738000D01*
X41782286Y-20810571D01*
X41830667Y-20955714D01*
X41830667Y-21173429D01*
X41782286Y-21318571D01*
X41733905Y-21391143D01*
X41637143Y-21463714D01*
X41250096Y-21463714D01*
X42169334Y-20665429D02*
X42846667Y-20665429D01*
X42411239Y-22189429D01*
D11*
D15*
X41830667Y-27189429D02*
X41492001Y-26463714D01*
X41250096Y-27189429D02*
X41250096Y-25665429D01*
X41637143Y-25665429D01*
X41733905Y-25738000D01*
X41782286Y-25810571D01*
X41830667Y-25955714D01*
X41830667Y-26173429D01*
X41782286Y-26318571D01*
X41733905Y-26391143D01*
X41637143Y-26463714D01*
X41250096Y-26463714D01*
X42411239Y-26318571D02*
X42314477Y-26246000D01*
X42266096Y-26173429D01*
X42217715Y-26028286D01*
X42217715Y-25955714D01*
X42266096Y-25810571D01*
X42314477Y-25738000D01*
X42411239Y-25665429D01*
X42604762Y-25665429D01*
X42701524Y-25738000D01*
X42749905Y-25810571D01*
X42798286Y-25955714D01*
X42798286Y-26028286D01*
X42749905Y-26173429D01*
X42701524Y-26246000D01*
X42604762Y-26318571D01*
X42411239Y-26318571D01*
X42314477Y-26391143D01*
X42266096Y-26463714D01*
X42217715Y-26608857D01*
X42217715Y-26899143D01*
X42266096Y-27044286D01*
X42314477Y-27116857D01*
X42411239Y-27189429D01*
X42604762Y-27189429D01*
X42701524Y-27116857D01*
X42749905Y-27044286D01*
X42798286Y-26899143D01*
X42798286Y-26608857D01*
X42749905Y-26463714D01*
X42701524Y-26391143D01*
X42604762Y-26318571D01*
D11*
D15*
X23330667Y-22189429D02*
X22992001Y-21463714D01*
X22750096Y-22189429D02*
X22750096Y-20665429D01*
X23137143Y-20665429D01*
X23233905Y-20738000D01*
X23282286Y-20810571D01*
X23330667Y-20955714D01*
X23330667Y-21173429D01*
X23282286Y-21318571D01*
X23233905Y-21391143D01*
X23137143Y-21463714D01*
X22750096Y-21463714D01*
X23814477Y-22189429D02*
X24008001Y-22189429D01*
X24104762Y-22116857D01*
X24153143Y-22044286D01*
X24249905Y-21826571D01*
X24298286Y-21536286D01*
X24298286Y-20955714D01*
X24249905Y-20810571D01*
X24201524Y-20738000D01*
X24104762Y-20665429D01*
X23911239Y-20665429D01*
X23814477Y-20738000D01*
X23766096Y-20810571D01*
X23717715Y-20955714D01*
X23717715Y-21318571D01*
X23766096Y-21463714D01*
X23814477Y-21536286D01*
X23911239Y-21608857D01*
X24104762Y-21608857D01*
X24201524Y-21536286D01*
X24249905Y-21463714D01*
X24298286Y-21318571D01*
D11*
D15*
X22846857Y-27189429D02*
X22508191Y-26463714D01*
X22266286Y-27189429D02*
X22266286Y-25665429D01*
X22653333Y-25665429D01*
X22750095Y-25738000D01*
X22798476Y-25810571D01*
X22846857Y-25955714D01*
X22846857Y-26173429D01*
X22798476Y-26318571D01*
X22750095Y-26391143D01*
X22653333Y-26463714D01*
X22266286Y-26463714D01*
X23814476Y-27189429D02*
X23233905Y-27189429D01*
X23524191Y-27189429D02*
X23524191Y-25665429D01*
X23427429Y-25883143D01*
X23330667Y-26028286D01*
X23233905Y-26100857D01*
X24443429Y-25665429D02*
X24540190Y-25665429D01*
X24636952Y-25738000D01*
X24685333Y-25810571D01*
X24733714Y-25955714D01*
X24782095Y-26246000D01*
X24782095Y-26608857D01*
X24733714Y-26899143D01*
X24685333Y-27044286D01*
X24636952Y-27116857D01*
X24540190Y-27189429D01*
X24443429Y-27189429D01*
X24346667Y-27116857D01*
X24298286Y-27044286D01*
X24249905Y-26899143D01*
X24201524Y-26608857D01*
X24201524Y-26246000D01*
X24249905Y-25955714D01*
X24298286Y-25810571D01*
X24346667Y-25738000D01*
X24443429Y-25665429D01*
D11*
D15*
X31846857Y-46189429D02*
X31508191Y-45463714D01*
X31266286Y-46189429D02*
X31266286Y-44665429D01*
X31653333Y-44665429D01*
X31750095Y-44738000D01*
X31798476Y-44810571D01*
X31846857Y-44955714D01*
X31846857Y-45173429D01*
X31798476Y-45318571D01*
X31750095Y-45391143D01*
X31653333Y-45463714D01*
X31266286Y-45463714D01*
X32814476Y-46189429D02*
X32233905Y-46189429D01*
X32524191Y-46189429D02*
X32524191Y-44665429D01*
X32427429Y-44883143D01*
X32330667Y-45028286D01*
X32233905Y-45100857D01*
X33201524Y-44810571D02*
X33249905Y-44738000D01*
X33346667Y-44665429D01*
X33588571Y-44665429D01*
X33685333Y-44738000D01*
X33733714Y-44810571D01*
X33782095Y-44955714D01*
X33782095Y-45100857D01*
X33733714Y-45318571D01*
X33153143Y-46189429D01*
X33782095Y-46189429D01*
D11*
D15*
X31846857Y-41189429D02*
X31508191Y-40463714D01*
X31266286Y-41189429D02*
X31266286Y-39665429D01*
X31653333Y-39665429D01*
X31750095Y-39738000D01*
X31798476Y-39810571D01*
X31846857Y-39955714D01*
X31846857Y-40173429D01*
X31798476Y-40318571D01*
X31750095Y-40391143D01*
X31653333Y-40463714D01*
X31266286Y-40463714D01*
X32814476Y-41189429D02*
X32233905Y-41189429D01*
X32524191Y-41189429D02*
X32524191Y-39665429D01*
X32427429Y-39883143D01*
X32330667Y-40028286D01*
X32233905Y-40100857D01*
X33782095Y-41189429D02*
X33201524Y-41189429D01*
X33491810Y-41189429D02*
X33491810Y-39665429D01*
X33395048Y-39883143D01*
X33298286Y-40028286D01*
X33201524Y-40100857D01*
D11*
D16*
X92403454Y-35297203D02*
X92574507Y-34527467D01*
X91890297Y-34784046D02*
X92878125Y-33796218D01*
X93220230Y-34138323D01*
X93258717Y-34270889D01*
X93254440Y-34360691D01*
X93203125Y-34497533D01*
X93062006Y-34638651D01*
X92925165Y-34689967D01*
X92835362Y-34694243D01*
X92702796Y-34655756D01*
X92360691Y-34313652D01*
X93690625Y-34608718D02*
X94246545Y-35164638D01*
X93570888Y-35241612D01*
X93699177Y-35369901D01*
X93737664Y-35502467D01*
X93733388Y-35592269D01*
X93682072Y-35729111D01*
X93446875Y-35964308D01*
X93310032Y-36015625D01*
X93220231Y-36019900D01*
X93087664Y-35981413D01*
X92831086Y-35724835D01*
X92792599Y-35592269D01*
X92796875Y-35502467D01*
X102297203Y-26596546D02*
X101527467Y-26425493D01*
X101784046Y-27109703D02*
X100796218Y-26121875D01*
X101138323Y-25779770D01*
X101270889Y-25741283D01*
X101360691Y-25745560D01*
X101497533Y-25796875D01*
X101638651Y-25937994D01*
X101689967Y-26074835D01*
X101694243Y-26164638D01*
X101655756Y-26297204D01*
X101313652Y-26639309D01*
X101745560Y-25360691D02*
X101741283Y-25270889D01*
X101779769Y-25138323D01*
X101993585Y-24924508D01*
X102126151Y-24886020D01*
X102215954Y-24890297D01*
X102352795Y-24941612D01*
X102446875Y-25035692D01*
X102545230Y-25219573D01*
X102596546Y-26297203D01*
X103152466Y-25741283D01*
X111788333Y-24131976D02*
X111365000Y-23466738D01*
X111062619Y-24131976D02*
X111062619Y-22734976D01*
X111546428Y-22734976D01*
X111667381Y-22801500D01*
X111727857Y-22868024D01*
X111788333Y-23001071D01*
X111788333Y-23200643D01*
X111727857Y-23333690D01*
X111667381Y-23400214D01*
X111546428Y-23466738D01*
X111062619Y-23466738D01*
X112997857Y-24131976D02*
X112272143Y-24131976D01*
X112635000Y-24131976D02*
X112635000Y-22734976D01*
X112514048Y-22934548D01*
X112393095Y-23067595D01*
X112272143Y-23134119D01*
X54788333Y-22131976D02*
X54365000Y-21466738D01*
X54062619Y-22131976D02*
X54062619Y-20734976D01*
X54546428Y-20734976D01*
X54667381Y-20801500D01*
X54727857Y-20868024D01*
X54788333Y-21001071D01*
X54788333Y-21200643D01*
X54727857Y-21333690D01*
X54667381Y-21400214D01*
X54546428Y-21466738D01*
X54062619Y-21466738D01*
X55876905Y-21200643D02*
X55876905Y-22131976D01*
X55574524Y-20668452D02*
X55272143Y-21666310D01*
X56058333Y-21666310D01*
X27788333Y-18631976D02*
X27365000Y-17966738D01*
X27062619Y-18631976D02*
X27062619Y-17234976D01*
X27546428Y-17234976D01*
X27667381Y-17301500D01*
X27727857Y-17368024D01*
X27788333Y-17501071D01*
X27788333Y-17700643D01*
X27727857Y-17833690D01*
X27667381Y-17900214D01*
X27546428Y-17966738D01*
X27062619Y-17966738D01*
X28937381Y-17234976D02*
X28332619Y-17234976D01*
X28272143Y-17900214D01*
X28332619Y-17833690D01*
X28453571Y-17767167D01*
X28755952Y-17767167D01*
X28876905Y-17833690D01*
X28937381Y-17900214D01*
X28997857Y-18033262D01*
X28997857Y-18365881D01*
X28937381Y-18498929D01*
X28876905Y-18565452D01*
X28755952Y-18631976D01*
X28453571Y-18631976D01*
X28332619Y-18565452D01*
X28272143Y-18498929D01*
X32797203Y-34096546D02*
X32027467Y-33925493D01*
X32284046Y-34609703D02*
X31296218Y-33621875D01*
X31638323Y-33279770D01*
X31770889Y-33241283D01*
X31860691Y-33245560D01*
X31997533Y-33296875D01*
X32138651Y-33437994D01*
X32189967Y-33574835D01*
X32194243Y-33664638D01*
X32155756Y-33797204D01*
X31813652Y-34139309D01*
X32579112Y-32338981D02*
X32408059Y-32510034D01*
X32369573Y-32642599D01*
X32373849Y-32732402D01*
X32429441Y-32959046D01*
X32574835Y-33189967D01*
X32951151Y-33566283D01*
X33087993Y-33617599D01*
X33177795Y-33621875D01*
X33310361Y-33583388D01*
X33481413Y-33412336D01*
X33519900Y-33279769D01*
X33515625Y-33189968D01*
X33464308Y-33053125D01*
X33229111Y-32817928D01*
X33092269Y-32766612D01*
X33002467Y-32762336D01*
X32869901Y-32800823D01*
X32698849Y-32971875D01*
X32660361Y-33104441D01*
X32664638Y-33194243D01*
X32715954Y-33331086D01*
D15*
X54008190Y-14411619D02*
X53427619Y-14411619D01*
X53717905Y-14411619D02*
X53717905Y-13395619D01*
X53621143Y-13540762D01*
X53524381Y-13637524D01*
X53427619Y-13685905D01*
X54443619Y-14411619D02*
X54443619Y-13395619D01*
X54830666Y-13395619D01*
X54927428Y-13444000D01*
X54975809Y-13492381D01*
X55024190Y-13589143D01*
X55024190Y-13734286D01*
X54975809Y-13831048D01*
X54927428Y-13879429D01*
X54830666Y-13927810D01*
X54443619Y-13927810D01*
X55459619Y-14411619D02*
X55459619Y-13395619D01*
X55943429Y-14411619D02*
X55943429Y-13395619D01*
X56524000Y-14411619D01*
X56524000Y-13395619D01*
X129008190Y-14411619D02*
X128427619Y-14411619D01*
X128717905Y-14411619D02*
X128717905Y-13395619D01*
X128621143Y-13540762D01*
X128524381Y-13637524D01*
X128427619Y-13685905D01*
X129443619Y-14411619D02*
X129443619Y-13395619D01*
X129830666Y-13395619D01*
X129927428Y-13444000D01*
X129975809Y-13492381D01*
X130024190Y-13589143D01*
X130024190Y-13734286D01*
X129975809Y-13831048D01*
X129927428Y-13879429D01*
X129830666Y-13927810D01*
X129443619Y-13927810D01*
X130459619Y-14411619D02*
X130459619Y-13395619D01*
X130943429Y-14411619D02*
X130943429Y-13395619D01*
X131524000Y-14411619D01*
X131524000Y-13395619D01*
X129008190Y-45411619D02*
X128427619Y-45411619D01*
X128717905Y-45411619D02*
X128717905Y-44395619D01*
X128621143Y-44540762D01*
X128524381Y-44637524D01*
X128427619Y-44685905D01*
X129443619Y-45411619D02*
X129443619Y-44395619D01*
X129830666Y-44395619D01*
X129927428Y-44444000D01*
X129975809Y-44492381D01*
X130024190Y-44589143D01*
X130024190Y-44734286D01*
X129975809Y-44831048D01*
X129927428Y-44879429D01*
X129830666Y-44927810D01*
X129443619Y-44927810D01*
X130459619Y-45411619D02*
X130459619Y-44395619D01*
X130943429Y-45411619D02*
X130943429Y-44395619D01*
X131524000Y-45411619D01*
X131524000Y-44395619D01*
D14*
X103697602Y-51322501D02*
X103697602Y-49592761D01*
X104111743Y-49592761D01*
X104215278Y-49675130D01*
X104267046Y-49757499D01*
X104318814Y-49922236D01*
X104318814Y-50169341D01*
X104267046Y-50334079D01*
X104215278Y-50416447D01*
X104111743Y-50498816D01*
X103697602Y-50498816D01*
X105250631Y-49592761D02*
X105043560Y-49592761D01*
X104940025Y-49675130D01*
X104888257Y-49757499D01*
X104784722Y-50004604D01*
X104732954Y-50334079D01*
X104732954Y-50993027D01*
X104784722Y-51157764D01*
X104836490Y-51240133D01*
X104940025Y-51322501D01*
X105147095Y-51322501D01*
X105250631Y-51240133D01*
X105302398Y-51157764D01*
X105354166Y-50993027D01*
X105354166Y-50581184D01*
X105302398Y-50416447D01*
X105250631Y-50334079D01*
X105147095Y-50251710D01*
X104940025Y-50251710D01*
X104836490Y-50334079D01*
X104784722Y-50416447D01*
X104732954Y-50581184D01*
D11*
D13*
X60437572Y-24439714D02*
X60437572Y-23677714D01*
X60727857Y-23677714D01*
X60800429Y-23714000D01*
X60836714Y-23750286D01*
X60873000Y-23822857D01*
X60873000Y-23931714D01*
X60836714Y-24004286D01*
X60800429Y-24040571D01*
X60727857Y-24076857D01*
X60437572Y-24076857D01*
X61127000Y-23677714D02*
X61598714Y-23677714D01*
X61344714Y-23968000D01*
X61453572Y-23968000D01*
X61526143Y-24004286D01*
X61562429Y-24040571D01*
X61598714Y-24113143D01*
X61598714Y-24294571D01*
X61562429Y-24367143D01*
X61526143Y-24403429D01*
X61453572Y-24439714D01*
X61235857Y-24439714D01*
X61163286Y-24403429D01*
X61127000Y-24367143D01*
X65937572Y-17439714D02*
X65937572Y-16677714D01*
X66227857Y-16677714D01*
X66300429Y-16714000D01*
X66336714Y-16750286D01*
X66373000Y-16822857D01*
X66373000Y-16931714D01*
X66336714Y-17004286D01*
X66300429Y-17040571D01*
X66227857Y-17076857D01*
X65937572Y-17076857D01*
X67026143Y-16931714D02*
X67026143Y-17439714D01*
X66844714Y-16641429D02*
X66663286Y-17185714D01*
X67135000Y-17185714D01*
D14*
X70357602Y-49322501D02*
X70357602Y-47592761D01*
X70771743Y-47592761D01*
X70875278Y-47675130D01*
X70927046Y-47757499D01*
X70978814Y-47922236D01*
X70978814Y-48169341D01*
X70927046Y-48334079D01*
X70875278Y-48416447D01*
X70771743Y-48498816D01*
X70357602Y-48498816D01*
X71392954Y-47757499D02*
X71444722Y-47675130D01*
X71548257Y-47592761D01*
X71807095Y-47592761D01*
X71910631Y-47675130D01*
X71962398Y-47757499D01*
X72014166Y-47922236D01*
X72014166Y-48086973D01*
X71962398Y-48334079D01*
X71341187Y-49322501D01*
X72014166Y-49322501D01*
D11*
D15*
X50743238Y-49084286D02*
X50694857Y-49156857D01*
X50549714Y-49229429D01*
X50452952Y-49229429D01*
X50307810Y-49156857D01*
X50211048Y-49011714D01*
X50162667Y-48866571D01*
X50114286Y-48576286D01*
X50114286Y-48358571D01*
X50162667Y-48068286D01*
X50211048Y-47923143D01*
X50307810Y-47778000D01*
X50452952Y-47705429D01*
X50549714Y-47705429D01*
X50694857Y-47778000D01*
X50743238Y-47850571D01*
X51372191Y-47705429D02*
X51565714Y-47705429D01*
X51662476Y-47778000D01*
X51759238Y-47923143D01*
X51807619Y-48213429D01*
X51807619Y-48721429D01*
X51759238Y-49011714D01*
X51662476Y-49156857D01*
X51565714Y-49229429D01*
X51372191Y-49229429D01*
X51275429Y-49156857D01*
X51178667Y-49011714D01*
X51130286Y-48721429D01*
X51130286Y-48213429D01*
X51178667Y-47923143D01*
X51275429Y-47778000D01*
X51372191Y-47705429D01*
X52243048Y-49229429D02*
X52243048Y-47705429D01*
X52823619Y-49229429D01*
X52823619Y-47705429D01*
X53307429Y-49229429D02*
X53307429Y-47705429D01*
X53888000Y-49229429D01*
X53888000Y-47705429D01*
X54129905Y-49374571D02*
X54904000Y-49374571D01*
X55678095Y-49229429D02*
X55097524Y-49229429D01*
X55387810Y-49229429D02*
X55387810Y-47705429D01*
X55291048Y-47923143D01*
X55194286Y-48068286D01*
X55097524Y-48140857D01*
X56548952Y-48213429D02*
X56548952Y-49229429D01*
X56307048Y-47632857D02*
X56065143Y-48721429D01*
X56694095Y-48721429D01*
D11*
D16*
X86183571Y-46631976D02*
X85760238Y-45966738D01*
X85457857Y-46631976D02*
X85457857Y-45234976D01*
X85941666Y-45234976D01*
X86062619Y-45301500D01*
X86123095Y-45368024D01*
X86183571Y-45501071D01*
X86183571Y-45700643D01*
X86123095Y-45833690D01*
X86062619Y-45900214D01*
X85941666Y-45966738D01*
X85457857Y-45966738D01*
X87393095Y-46631976D02*
X86667381Y-46631976D01*
X87030238Y-46631976D02*
X87030238Y-45234976D01*
X86909286Y-45434548D01*
X86788333Y-45567595D01*
X86667381Y-45634119D01*
X87816429Y-45234976D02*
X88602619Y-45234976D01*
X88179286Y-45767167D01*
X88360714Y-45767167D01*
X88481667Y-45833690D01*
X88542143Y-45900214D01*
X88602619Y-46033262D01*
X88602619Y-46365881D01*
X88542143Y-46498929D01*
X88481667Y-46565452D01*
X88360714Y-46631976D01*
X87997857Y-46631976D01*
X87876905Y-46565452D01*
X87816429Y-46498929D01*
X92084667Y-47576857D02*
X92036286Y-47625238D01*
X91891143Y-47673619D01*
X91794381Y-47673619D01*
X91649239Y-47625238D01*
X91552477Y-47528476D01*
X91504096Y-47431714D01*
X91455715Y-47238190D01*
X91455715Y-47093048D01*
X91504096Y-46899524D01*
X91552477Y-46802762D01*
X91649239Y-46706000D01*
X91794381Y-46657619D01*
X91891143Y-46657619D01*
X92036286Y-46706000D01*
X92084667Y-46754381D01*
X93052286Y-47673619D02*
X92471715Y-47673619D01*
X92762001Y-47673619D02*
X92762001Y-46657619D01*
X92665239Y-46802762D01*
X92568477Y-46899524D01*
X92471715Y-46947905D01*
M02*
