G04 #@! TF.FileFunction,Soldermask,Top*
%FSLAX46Y46*%
G04 Gerber Fmt 4.6, Leading zero omitted, Abs format (unit mm)*
G04 Created by KiCad (PCBNEW 4.0.2-stable) date 05/06/2017 19:07:13*
%MOMM*%
G01*
G04 APERTURE LIST*
%ADD10C,0.100000*%
G04 APERTURE END LIST*
D10*
G36*
X37700379Y-59659909D02*
X37973632Y-59716000D01*
X38230788Y-59824098D01*
X38462040Y-59980081D01*
X38658602Y-60178019D01*
X38812968Y-60410357D01*
X38919269Y-60668263D01*
X38973171Y-60940491D01*
X38973170Y-60940536D01*
X38973440Y-60941898D01*
X38968991Y-61260508D01*
X38968684Y-61261861D01*
X38968683Y-61261909D01*
X38947277Y-61356129D01*
X38942580Y-61413114D01*
X38953945Y-61469153D01*
X38980472Y-61519806D01*
X39020060Y-61561064D01*
X39069575Y-61589659D01*
X39144008Y-61604342D01*
X39333060Y-61605662D01*
X39606313Y-61661753D01*
X39863469Y-61769851D01*
X40094721Y-61925834D01*
X40291283Y-62123772D01*
X40445649Y-62356110D01*
X40551950Y-62614016D01*
X40605852Y-62886244D01*
X40605851Y-62886289D01*
X40606121Y-62887651D01*
X40601672Y-63206261D01*
X40601365Y-63207614D01*
X40601364Y-63207660D01*
X40579958Y-63301880D01*
X40575261Y-63358866D01*
X40586626Y-63414904D01*
X40613152Y-63465558D01*
X40652741Y-63506815D01*
X40702256Y-63535411D01*
X40776689Y-63550094D01*
X40965740Y-63551414D01*
X41238993Y-63607505D01*
X41496149Y-63715603D01*
X41727401Y-63871586D01*
X41923963Y-64069524D01*
X42078329Y-64301862D01*
X42184630Y-64559768D01*
X42238532Y-64831996D01*
X42238531Y-64832041D01*
X42238801Y-64833403D01*
X42234352Y-65152013D01*
X42234045Y-65153366D01*
X42234044Y-65153414D01*
X42212638Y-65247634D01*
X42207941Y-65304619D01*
X42219306Y-65360658D01*
X42245833Y-65411311D01*
X42285421Y-65452569D01*
X42334936Y-65481164D01*
X42409369Y-65495847D01*
X42598421Y-65497167D01*
X42871674Y-65553258D01*
X43128830Y-65661356D01*
X43360082Y-65817339D01*
X43556644Y-66015277D01*
X43711010Y-66247615D01*
X43817311Y-66505521D01*
X43871213Y-66777749D01*
X43871212Y-66777794D01*
X43871482Y-66779156D01*
X43867033Y-67097766D01*
X43866726Y-67099119D01*
X43866725Y-67099165D01*
X43805242Y-67369784D01*
X43691784Y-67624614D01*
X43530989Y-67852556D01*
X43328977Y-68044929D01*
X43093457Y-68194395D01*
X42833388Y-68295268D01*
X42558672Y-68343709D01*
X42279790Y-68337866D01*
X42007345Y-68277965D01*
X41751725Y-68166288D01*
X41522672Y-68007092D01*
X41328893Y-67806428D01*
X41177788Y-67571958D01*
X41075098Y-67312594D01*
X41024742Y-67038226D01*
X41028637Y-66759310D01*
X41053581Y-66641957D01*
X41057481Y-66584911D01*
X41045335Y-66529037D01*
X41018104Y-66478759D01*
X40977943Y-66438058D01*
X40928034Y-66410157D01*
X40859077Y-66396554D01*
X40647109Y-66392113D01*
X40374664Y-66332212D01*
X40119044Y-66220535D01*
X39889991Y-66061339D01*
X39696212Y-65860675D01*
X39545107Y-65626205D01*
X39442417Y-65366841D01*
X39392061Y-65092473D01*
X39395956Y-64813558D01*
X39420900Y-64696205D01*
X39424800Y-64639159D01*
X39412654Y-64583285D01*
X39385423Y-64533007D01*
X39345263Y-64492306D01*
X39295353Y-64464405D01*
X39226396Y-64450802D01*
X39014429Y-64446361D01*
X38741984Y-64386460D01*
X38486364Y-64274783D01*
X38257311Y-64115587D01*
X38063532Y-63914923D01*
X37912427Y-63680453D01*
X37809737Y-63421089D01*
X37759381Y-63146721D01*
X37763276Y-62867805D01*
X37788220Y-62750452D01*
X37792120Y-62693406D01*
X37779974Y-62637532D01*
X37752743Y-62587254D01*
X37712582Y-62546553D01*
X37662673Y-62518652D01*
X37593716Y-62505049D01*
X37381748Y-62500608D01*
X37109303Y-62440707D01*
X36853683Y-62329030D01*
X36624630Y-62169834D01*
X36430851Y-61969170D01*
X36279746Y-61734700D01*
X36177056Y-61475336D01*
X36126700Y-61200968D01*
X36130595Y-60922051D01*
X36188592Y-60649194D01*
X36298481Y-60392805D01*
X36456078Y-60162639D01*
X36655376Y-59967473D01*
X36888796Y-59814728D01*
X37147431Y-59710232D01*
X37421440Y-59657962D01*
X37700379Y-59659909D01*
X37700379Y-59659909D01*
G37*
G36*
X29419400Y-57578538D02*
X29692653Y-57634629D01*
X29949809Y-57742727D01*
X30181061Y-57898710D01*
X30377623Y-58096648D01*
X30531989Y-58328986D01*
X30638290Y-58586892D01*
X30692192Y-58859120D01*
X30692191Y-58859165D01*
X30692461Y-58860527D01*
X30688012Y-59179137D01*
X30687705Y-59180490D01*
X30687704Y-59180536D01*
X30626221Y-59451155D01*
X30512763Y-59705985D01*
X30351968Y-59933927D01*
X30149956Y-60126300D01*
X29914436Y-60275766D01*
X29654367Y-60376639D01*
X29379651Y-60425080D01*
X29100769Y-60419237D01*
X28828324Y-60359336D01*
X28572704Y-60247659D01*
X28343651Y-60088463D01*
X28144036Y-59881757D01*
X28098924Y-59846624D01*
X28045810Y-59825449D01*
X27988900Y-59819910D01*
X27932700Y-59830445D01*
X27881660Y-59856220D01*
X27831821Y-59905782D01*
X27811966Y-59933928D01*
X27609956Y-60126300D01*
X27374436Y-60275766D01*
X27114367Y-60376639D01*
X26839651Y-60425080D01*
X26560769Y-60419237D01*
X26288324Y-60359336D01*
X26032704Y-60247659D01*
X25803651Y-60088463D01*
X25609872Y-59887799D01*
X25458767Y-59653329D01*
X25356077Y-59393965D01*
X25305721Y-59119597D01*
X25309616Y-58840680D01*
X25367613Y-58567823D01*
X25477502Y-58311434D01*
X25635099Y-58081268D01*
X25834397Y-57886102D01*
X26067817Y-57733357D01*
X26326452Y-57628861D01*
X26600461Y-57576591D01*
X26879400Y-57578538D01*
X27152653Y-57634629D01*
X27409809Y-57742727D01*
X27641061Y-57898710D01*
X27851660Y-58110784D01*
X27851921Y-58110524D01*
X27869952Y-58130769D01*
X27918371Y-58161183D01*
X27973347Y-58176904D01*
X28030525Y-58176687D01*
X28085379Y-58160548D01*
X28133566Y-58129767D01*
X28168837Y-58090416D01*
X28175103Y-58081264D01*
X28374397Y-57886102D01*
X28607817Y-57733357D01*
X28866452Y-57628861D01*
X29140461Y-57576591D01*
X29419400Y-57578538D01*
X29419400Y-57578538D01*
G37*
G36*
X45339400Y-57578538D02*
X45612653Y-57634629D01*
X45869809Y-57742727D01*
X46101061Y-57898710D01*
X46297623Y-58096648D01*
X46451989Y-58328986D01*
X46558290Y-58586892D01*
X46612192Y-58859120D01*
X46612191Y-58859165D01*
X46612461Y-58860527D01*
X46608012Y-59179137D01*
X46607705Y-59180490D01*
X46607704Y-59180536D01*
X46546221Y-59451155D01*
X46432763Y-59705985D01*
X46271968Y-59933927D01*
X46069956Y-60126300D01*
X45834436Y-60275766D01*
X45574367Y-60376639D01*
X45299651Y-60425080D01*
X45020769Y-60419237D01*
X44748324Y-60359336D01*
X44492704Y-60247659D01*
X44263651Y-60088463D01*
X44069872Y-59887799D01*
X43918767Y-59653329D01*
X43816077Y-59393965D01*
X43765721Y-59119597D01*
X43769616Y-58840680D01*
X43827613Y-58567823D01*
X43937502Y-58311434D01*
X44095099Y-58081268D01*
X44294397Y-57886102D01*
X44527817Y-57733357D01*
X44786452Y-57628861D01*
X45060461Y-57576591D01*
X45339400Y-57578538D01*
X45339400Y-57578538D01*
G37*
G36*
X52959400Y-57578538D02*
X53232653Y-57634629D01*
X53489809Y-57742727D01*
X53721061Y-57898710D01*
X53917623Y-58096648D01*
X54071989Y-58328986D01*
X54178290Y-58586892D01*
X54232192Y-58859120D01*
X54232191Y-58859165D01*
X54232461Y-58860527D01*
X54228012Y-59179137D01*
X54227705Y-59180490D01*
X54227704Y-59180536D01*
X54166221Y-59451155D01*
X54052763Y-59705985D01*
X53891968Y-59933927D01*
X53689956Y-60126300D01*
X53454436Y-60275766D01*
X53194367Y-60376639D01*
X52919651Y-60425080D01*
X52640769Y-60419237D01*
X52368324Y-60359336D01*
X52112704Y-60247659D01*
X51883651Y-60088463D01*
X51689872Y-59887799D01*
X51538767Y-59653329D01*
X51436077Y-59393965D01*
X51385721Y-59119597D01*
X51389616Y-58840680D01*
X51447613Y-58567823D01*
X51557502Y-58311434D01*
X51715099Y-58081268D01*
X51914397Y-57886102D01*
X52147817Y-57733357D01*
X52406452Y-57628861D01*
X52680461Y-57576591D01*
X52959400Y-57578538D01*
X52959400Y-57578538D01*
G37*
G36*
X35256114Y-53563215D02*
X35724550Y-53659371D01*
X36165377Y-53844678D01*
X36561818Y-54112081D01*
X36898775Y-54451398D01*
X37163404Y-54849697D01*
X37345633Y-55291815D01*
X37438236Y-55759496D01*
X37438235Y-55759546D01*
X37438504Y-55760903D01*
X37430877Y-56307091D01*
X37430570Y-56308444D01*
X37430569Y-56308490D01*
X37324944Y-56773402D01*
X37130442Y-57210262D01*
X36854796Y-57601015D01*
X36508499Y-57930790D01*
X36104740Y-58187022D01*
X35658911Y-58359947D01*
X35187975Y-58442987D01*
X34709889Y-58432972D01*
X34242844Y-58330285D01*
X33804644Y-58138841D01*
X33411969Y-57865925D01*
X33079788Y-57521941D01*
X32820747Y-57119988D01*
X32644709Y-56675368D01*
X32558385Y-56205026D01*
X32565062Y-55726882D01*
X32664486Y-55259128D01*
X32852866Y-54819604D01*
X33123030Y-54425039D01*
X33464690Y-54090461D01*
X33864830Y-53828617D01*
X34308205Y-53649482D01*
X34777933Y-53559876D01*
X35256114Y-53563215D01*
X35256114Y-53563215D01*
G37*
G36*
X42149400Y-52308538D02*
X42422653Y-52364629D01*
X42679809Y-52472727D01*
X42911061Y-52628710D01*
X43107623Y-52826648D01*
X43261989Y-53058986D01*
X43368290Y-53316892D01*
X43422192Y-53589120D01*
X43422191Y-53589165D01*
X43422461Y-53590527D01*
X43418012Y-53909137D01*
X43417705Y-53910490D01*
X43417704Y-53910536D01*
X43356221Y-54181155D01*
X43242763Y-54435985D01*
X43081968Y-54663927D01*
X42883833Y-54852608D01*
X42848386Y-54897474D01*
X42826841Y-54950438D01*
X42820904Y-55007308D01*
X42831046Y-55063580D01*
X42856464Y-55114799D01*
X42910333Y-55168219D01*
X42911063Y-55168712D01*
X43107623Y-55366648D01*
X43261989Y-55598986D01*
X43368290Y-55856892D01*
X43422192Y-56129120D01*
X43422191Y-56129165D01*
X43422461Y-56130527D01*
X43418012Y-56449137D01*
X43417705Y-56450490D01*
X43417704Y-56450536D01*
X43356221Y-56721155D01*
X43242763Y-56975985D01*
X43081968Y-57203927D01*
X42879956Y-57396300D01*
X42644436Y-57545766D01*
X42384367Y-57646639D01*
X42109651Y-57695080D01*
X41830769Y-57689237D01*
X41558324Y-57629336D01*
X41302704Y-57517659D01*
X41073651Y-57358463D01*
X40879872Y-57157799D01*
X40728767Y-56923329D01*
X40626077Y-56663965D01*
X40575721Y-56389597D01*
X40579616Y-56110680D01*
X40637613Y-55837823D01*
X40747502Y-55581434D01*
X40905099Y-55351268D01*
X41117801Y-55142976D01*
X41152619Y-55097620D01*
X41173423Y-55044360D01*
X41178565Y-54987413D01*
X41167638Y-54931288D01*
X41141508Y-54880429D01*
X41091601Y-54830939D01*
X41073650Y-54818463D01*
X40879872Y-54617799D01*
X40728767Y-54383329D01*
X40626077Y-54123965D01*
X40575721Y-53849597D01*
X40579616Y-53570680D01*
X40637613Y-53297823D01*
X40747502Y-53041434D01*
X40905099Y-52811268D01*
X41104397Y-52616102D01*
X41337817Y-52463357D01*
X41596452Y-52358861D01*
X41870461Y-52306591D01*
X42149400Y-52308538D01*
X42149400Y-52308538D01*
G37*
G36*
X52959400Y-50578538D02*
X53232653Y-50634629D01*
X53489809Y-50742727D01*
X53721061Y-50898710D01*
X53917623Y-51096648D01*
X54071989Y-51328986D01*
X54178290Y-51586892D01*
X54232192Y-51859120D01*
X54232191Y-51859165D01*
X54232461Y-51860527D01*
X54228012Y-52179137D01*
X54227705Y-52180490D01*
X54227704Y-52180536D01*
X54166221Y-52451155D01*
X54052763Y-52705985D01*
X53891968Y-52933927D01*
X53689956Y-53126300D01*
X53454436Y-53275766D01*
X53194367Y-53376639D01*
X52919651Y-53425080D01*
X52640769Y-53419237D01*
X52368324Y-53359336D01*
X52112704Y-53247659D01*
X51883651Y-53088463D01*
X51689872Y-52887799D01*
X51538767Y-52653329D01*
X51436077Y-52393965D01*
X51385721Y-52119597D01*
X51389616Y-51840680D01*
X51447613Y-51567823D01*
X51557502Y-51311434D01*
X51715099Y-51081268D01*
X51914397Y-50886102D01*
X52147817Y-50733357D01*
X52406452Y-50628861D01*
X52680461Y-50576591D01*
X52959400Y-50578538D01*
X52959400Y-50578538D01*
G37*
G36*
X45339400Y-50578538D02*
X45612653Y-50634629D01*
X45869809Y-50742727D01*
X46101061Y-50898710D01*
X46297623Y-51096648D01*
X46451989Y-51328986D01*
X46558290Y-51586892D01*
X46612192Y-51859120D01*
X46612191Y-51859165D01*
X46612461Y-51860527D01*
X46608012Y-52179137D01*
X46607705Y-52180490D01*
X46607704Y-52180536D01*
X46546221Y-52451155D01*
X46432763Y-52705985D01*
X46271968Y-52933927D01*
X46069956Y-53126300D01*
X45834436Y-53275766D01*
X45574367Y-53376639D01*
X45299651Y-53425080D01*
X45020769Y-53419237D01*
X44748324Y-53359336D01*
X44492704Y-53247659D01*
X44263651Y-53088463D01*
X44069872Y-52887799D01*
X43918767Y-52653329D01*
X43816077Y-52393965D01*
X43765721Y-52119597D01*
X43769616Y-51840680D01*
X43827613Y-51567823D01*
X43937502Y-51311434D01*
X44095099Y-51081268D01*
X44294397Y-50886102D01*
X44527817Y-50733357D01*
X44786452Y-50628861D01*
X45060461Y-50576591D01*
X45339400Y-50578538D01*
X45339400Y-50578538D01*
G37*
G36*
X28149400Y-43308538D02*
X28422653Y-43364629D01*
X28679809Y-43472727D01*
X28911061Y-43628710D01*
X29107623Y-43826648D01*
X29261989Y-44058986D01*
X29368290Y-44316892D01*
X29422192Y-44589120D01*
X29422191Y-44589165D01*
X29422461Y-44590527D01*
X29418012Y-44909137D01*
X29417705Y-44910490D01*
X29417704Y-44910536D01*
X29356221Y-45181155D01*
X29242763Y-45435985D01*
X29081968Y-45663927D01*
X28883833Y-45852608D01*
X28848386Y-45897474D01*
X28826841Y-45950438D01*
X28820904Y-46007308D01*
X28831046Y-46063580D01*
X28856464Y-46114799D01*
X28910333Y-46168219D01*
X28911063Y-46168712D01*
X29107623Y-46366648D01*
X29261989Y-46598986D01*
X29368290Y-46856892D01*
X29422192Y-47129120D01*
X29422191Y-47129165D01*
X29422461Y-47130527D01*
X29418012Y-47449137D01*
X29417705Y-47450490D01*
X29417704Y-47450536D01*
X29356221Y-47721155D01*
X29242763Y-47975985D01*
X29081968Y-48203927D01*
X28879956Y-48396300D01*
X28644436Y-48545766D01*
X28384367Y-48646639D01*
X28109651Y-48695080D01*
X27830769Y-48689237D01*
X27558324Y-48629336D01*
X27302704Y-48517659D01*
X27073651Y-48358463D01*
X26879872Y-48157799D01*
X26728767Y-47923329D01*
X26626077Y-47663965D01*
X26575721Y-47389597D01*
X26579616Y-47110680D01*
X26637613Y-46837823D01*
X26747502Y-46581434D01*
X26905099Y-46351268D01*
X27117801Y-46142976D01*
X27152619Y-46097620D01*
X27173423Y-46044360D01*
X27178565Y-45987413D01*
X27167638Y-45931288D01*
X27141508Y-45880429D01*
X27091601Y-45830939D01*
X27073650Y-45818463D01*
X26879872Y-45617799D01*
X26728767Y-45383329D01*
X26626077Y-45123965D01*
X26575721Y-44849597D01*
X26579616Y-44570680D01*
X26637613Y-44297823D01*
X26747502Y-44041434D01*
X26905099Y-43811268D01*
X27104397Y-43616102D01*
X27337817Y-43463357D01*
X27596452Y-43358861D01*
X27870461Y-43306591D01*
X28149400Y-43308538D01*
X28149400Y-43308538D01*
G37*
G36*
X24149400Y-43308538D02*
X24422653Y-43364629D01*
X24679809Y-43472727D01*
X24911061Y-43628710D01*
X25107623Y-43826648D01*
X25261989Y-44058986D01*
X25368290Y-44316892D01*
X25422192Y-44589120D01*
X25422191Y-44589165D01*
X25422461Y-44590527D01*
X25418012Y-44909137D01*
X25417705Y-44910490D01*
X25417704Y-44910536D01*
X25356221Y-45181155D01*
X25242763Y-45435985D01*
X25081968Y-45663927D01*
X24883833Y-45852608D01*
X24848386Y-45897474D01*
X24826841Y-45950438D01*
X24820904Y-46007308D01*
X24831046Y-46063580D01*
X24856464Y-46114799D01*
X24910333Y-46168219D01*
X24911063Y-46168712D01*
X25107623Y-46366648D01*
X25261989Y-46598986D01*
X25368290Y-46856892D01*
X25422192Y-47129120D01*
X25422191Y-47129165D01*
X25422461Y-47130527D01*
X25418012Y-47449137D01*
X25417705Y-47450490D01*
X25417704Y-47450536D01*
X25356221Y-47721155D01*
X25242763Y-47975985D01*
X25081968Y-48203927D01*
X24879956Y-48396300D01*
X24644436Y-48545766D01*
X24384367Y-48646639D01*
X24109651Y-48695080D01*
X23830769Y-48689237D01*
X23558324Y-48629336D01*
X23302704Y-48517659D01*
X23073651Y-48358463D01*
X22879872Y-48157799D01*
X22728767Y-47923329D01*
X22626077Y-47663965D01*
X22575721Y-47389597D01*
X22579616Y-47110680D01*
X22637613Y-46837823D01*
X22747502Y-46581434D01*
X22905099Y-46351268D01*
X23117801Y-46142976D01*
X23152619Y-46097620D01*
X23173423Y-46044360D01*
X23178565Y-45987413D01*
X23167638Y-45931288D01*
X23141508Y-45880429D01*
X23091601Y-45830939D01*
X23073650Y-45818463D01*
X22879872Y-45617799D01*
X22728767Y-45383329D01*
X22626077Y-45123965D01*
X22575721Y-44849597D01*
X22579616Y-44570680D01*
X22637613Y-44297823D01*
X22747502Y-44041434D01*
X22905099Y-43811268D01*
X23104397Y-43616102D01*
X23337817Y-43463357D01*
X23596452Y-43358861D01*
X23870461Y-43306591D01*
X24149400Y-43308538D01*
X24149400Y-43308538D01*
G37*
G36*
X36463722Y-37767679D02*
X36463744Y-37767681D01*
X36471971Y-37767739D01*
X36747845Y-37798683D01*
X37012454Y-37882622D01*
X37255720Y-38016359D01*
X37468377Y-38194799D01*
X37642325Y-38411146D01*
X37770937Y-38657160D01*
X37849316Y-38923469D01*
X37849328Y-38923603D01*
X37849343Y-38923653D01*
X37874485Y-39199924D01*
X37845489Y-39475816D01*
X37845475Y-39475861D01*
X37845459Y-39476013D01*
X37763369Y-39741202D01*
X37631334Y-39985396D01*
X37454383Y-40199293D01*
X37325979Y-40304016D01*
X37288873Y-40344212D01*
X37263328Y-40395367D01*
X37253046Y-40451614D01*
X37258841Y-40508499D01*
X37280254Y-40561517D01*
X37324220Y-40613837D01*
X37468377Y-40734799D01*
X37642325Y-40951146D01*
X37770937Y-41197160D01*
X37849316Y-41463469D01*
X37849328Y-41463603D01*
X37849343Y-41463653D01*
X37874485Y-41739924D01*
X37845489Y-42015816D01*
X37845475Y-42015861D01*
X37845459Y-42016013D01*
X37763369Y-42281202D01*
X37631334Y-42525396D01*
X37454383Y-42739293D01*
X37325979Y-42844016D01*
X37288873Y-42884212D01*
X37263328Y-42935367D01*
X37253046Y-42991614D01*
X37258841Y-43048499D01*
X37280254Y-43101517D01*
X37324220Y-43153837D01*
X37468377Y-43274799D01*
X37642325Y-43491146D01*
X37770937Y-43737160D01*
X37849316Y-44003469D01*
X37849328Y-44003603D01*
X37849343Y-44003653D01*
X37874485Y-44279924D01*
X37845489Y-44555816D01*
X37845475Y-44555861D01*
X37845459Y-44556013D01*
X37763369Y-44821202D01*
X37631334Y-45065396D01*
X37454383Y-45279293D01*
X37325979Y-45384016D01*
X37288873Y-45424212D01*
X37263328Y-45475367D01*
X37253046Y-45531614D01*
X37258841Y-45588499D01*
X37280254Y-45641517D01*
X37324220Y-45693837D01*
X37468377Y-45814799D01*
X37642325Y-46031146D01*
X37770937Y-46277160D01*
X37849316Y-46543469D01*
X37849328Y-46543603D01*
X37849343Y-46543653D01*
X37874485Y-46819924D01*
X37845489Y-47095816D01*
X37845475Y-47095861D01*
X37845459Y-47096013D01*
X37763369Y-47361202D01*
X37631334Y-47605396D01*
X37454383Y-47819293D01*
X37239255Y-47994747D01*
X36994146Y-48125074D01*
X36728390Y-48205311D01*
X36452111Y-48232400D01*
X35927601Y-48232400D01*
X35916278Y-48232321D01*
X35916256Y-48232319D01*
X35908029Y-48232261D01*
X35632155Y-48201317D01*
X35367546Y-48117378D01*
X35124280Y-47983641D01*
X34911623Y-47805201D01*
X34737675Y-47588854D01*
X34609063Y-47342840D01*
X34530684Y-47076531D01*
X34530672Y-47076397D01*
X34530657Y-47076347D01*
X34505515Y-46800076D01*
X34534511Y-46524184D01*
X34534525Y-46524139D01*
X34534541Y-46523987D01*
X34616631Y-46258798D01*
X34748666Y-46014604D01*
X34925617Y-45800707D01*
X35054021Y-45695984D01*
X35091127Y-45655788D01*
X35116672Y-45604633D01*
X35126954Y-45548386D01*
X35121159Y-45491501D01*
X35099746Y-45438483D01*
X35055780Y-45386163D01*
X34911623Y-45265201D01*
X34737675Y-45048854D01*
X34609063Y-44802840D01*
X34530684Y-44536531D01*
X34530672Y-44536397D01*
X34530657Y-44536347D01*
X34505515Y-44260076D01*
X34534511Y-43984184D01*
X34534525Y-43984139D01*
X34534541Y-43983987D01*
X34616631Y-43718798D01*
X34748666Y-43474604D01*
X34925617Y-43260707D01*
X35054021Y-43155984D01*
X35091127Y-43115788D01*
X35116672Y-43064633D01*
X35126954Y-43008386D01*
X35121159Y-42951501D01*
X35099746Y-42898483D01*
X35055780Y-42846163D01*
X34911623Y-42725201D01*
X34737675Y-42508854D01*
X34609063Y-42262840D01*
X34530684Y-41996531D01*
X34530672Y-41996397D01*
X34530657Y-41996347D01*
X34505515Y-41720076D01*
X34534511Y-41444184D01*
X34534525Y-41444139D01*
X34534541Y-41443987D01*
X34616631Y-41178798D01*
X34748666Y-40934604D01*
X34925617Y-40720707D01*
X35054021Y-40615984D01*
X35091127Y-40575788D01*
X35116672Y-40524633D01*
X35126954Y-40468386D01*
X35121159Y-40411501D01*
X35099746Y-40358483D01*
X35055780Y-40306163D01*
X34911623Y-40185201D01*
X34737675Y-39968854D01*
X34609063Y-39722840D01*
X34530684Y-39456531D01*
X34530672Y-39456397D01*
X34530657Y-39456347D01*
X34505515Y-39180076D01*
X34534511Y-38904184D01*
X34534525Y-38904139D01*
X34534541Y-38903987D01*
X34616631Y-38638798D01*
X34748666Y-38394604D01*
X34925617Y-38180707D01*
X35140745Y-38005253D01*
X35385854Y-37874926D01*
X35651610Y-37794689D01*
X35927889Y-37767600D01*
X36452399Y-37767600D01*
X36463722Y-37767679D01*
X36463722Y-37767679D01*
G37*
G36*
X44083722Y-37767679D02*
X44083744Y-37767681D01*
X44091971Y-37767739D01*
X44367845Y-37798683D01*
X44632454Y-37882622D01*
X44875720Y-38016359D01*
X45088377Y-38194799D01*
X45262325Y-38411146D01*
X45390937Y-38657160D01*
X45469316Y-38923469D01*
X45469328Y-38923603D01*
X45469343Y-38923653D01*
X45494485Y-39199924D01*
X45465489Y-39475816D01*
X45465475Y-39475861D01*
X45465459Y-39476013D01*
X45383369Y-39741202D01*
X45251334Y-39985396D01*
X45074383Y-40199293D01*
X44945979Y-40304016D01*
X44908873Y-40344212D01*
X44883328Y-40395367D01*
X44873046Y-40451614D01*
X44878841Y-40508499D01*
X44900254Y-40561517D01*
X44944220Y-40613837D01*
X45088377Y-40734799D01*
X45262325Y-40951146D01*
X45390937Y-41197160D01*
X45469316Y-41463469D01*
X45469328Y-41463603D01*
X45469343Y-41463653D01*
X45494485Y-41739924D01*
X45465489Y-42015816D01*
X45465475Y-42015861D01*
X45465459Y-42016013D01*
X45383369Y-42281202D01*
X45251334Y-42525396D01*
X45074383Y-42739293D01*
X44945979Y-42844016D01*
X44908873Y-42884212D01*
X44883328Y-42935367D01*
X44873046Y-42991614D01*
X44878841Y-43048499D01*
X44900254Y-43101517D01*
X44944220Y-43153837D01*
X45088377Y-43274799D01*
X45262325Y-43491146D01*
X45390937Y-43737160D01*
X45469316Y-44003469D01*
X45469328Y-44003603D01*
X45469343Y-44003653D01*
X45494485Y-44279924D01*
X45465489Y-44555816D01*
X45465475Y-44555861D01*
X45465459Y-44556013D01*
X45383369Y-44821202D01*
X45251334Y-45065396D01*
X45074383Y-45279293D01*
X44945979Y-45384016D01*
X44908873Y-45424212D01*
X44883328Y-45475367D01*
X44873046Y-45531614D01*
X44878841Y-45588499D01*
X44900254Y-45641517D01*
X44944220Y-45693837D01*
X45088377Y-45814799D01*
X45262325Y-46031146D01*
X45390937Y-46277160D01*
X45469316Y-46543469D01*
X45469328Y-46543603D01*
X45469343Y-46543653D01*
X45494485Y-46819924D01*
X45465489Y-47095816D01*
X45465475Y-47095861D01*
X45465459Y-47096013D01*
X45383369Y-47361202D01*
X45251334Y-47605396D01*
X45074383Y-47819293D01*
X44859255Y-47994747D01*
X44614146Y-48125074D01*
X44348390Y-48205311D01*
X44072111Y-48232400D01*
X43547601Y-48232400D01*
X43536278Y-48232321D01*
X43536256Y-48232319D01*
X43528029Y-48232261D01*
X43252155Y-48201317D01*
X42987546Y-48117378D01*
X42744280Y-47983641D01*
X42531623Y-47805201D01*
X42357675Y-47588854D01*
X42229063Y-47342840D01*
X42150684Y-47076531D01*
X42150672Y-47076397D01*
X42150657Y-47076347D01*
X42125515Y-46800076D01*
X42154511Y-46524184D01*
X42154525Y-46524139D01*
X42154541Y-46523987D01*
X42236631Y-46258798D01*
X42368666Y-46014604D01*
X42545617Y-45800707D01*
X42674021Y-45695984D01*
X42711127Y-45655788D01*
X42736672Y-45604633D01*
X42746954Y-45548386D01*
X42741159Y-45491501D01*
X42719746Y-45438483D01*
X42675780Y-45386163D01*
X42531623Y-45265201D01*
X42357675Y-45048854D01*
X42229063Y-44802840D01*
X42150684Y-44536531D01*
X42150672Y-44536397D01*
X42150657Y-44536347D01*
X42125515Y-44260076D01*
X42154511Y-43984184D01*
X42154525Y-43984139D01*
X42154541Y-43983987D01*
X42236631Y-43718798D01*
X42368666Y-43474604D01*
X42545617Y-43260707D01*
X42674021Y-43155984D01*
X42711127Y-43115788D01*
X42736672Y-43064633D01*
X42746954Y-43008386D01*
X42741159Y-42951501D01*
X42719746Y-42898483D01*
X42675780Y-42846163D01*
X42531623Y-42725201D01*
X42357675Y-42508854D01*
X42229063Y-42262840D01*
X42150684Y-41996531D01*
X42150672Y-41996397D01*
X42150657Y-41996347D01*
X42125515Y-41720076D01*
X42154511Y-41444184D01*
X42154525Y-41444139D01*
X42154541Y-41443987D01*
X42236631Y-41178798D01*
X42368666Y-40934604D01*
X42545617Y-40720707D01*
X42674021Y-40615984D01*
X42711127Y-40575788D01*
X42736672Y-40524633D01*
X42746954Y-40468386D01*
X42741159Y-40411501D01*
X42719746Y-40358483D01*
X42675780Y-40306163D01*
X42531623Y-40185201D01*
X42357675Y-39968854D01*
X42229063Y-39722840D01*
X42150684Y-39456531D01*
X42150672Y-39456397D01*
X42150657Y-39456347D01*
X42125515Y-39180076D01*
X42154511Y-38904184D01*
X42154525Y-38904139D01*
X42154541Y-38903987D01*
X42236631Y-38638798D01*
X42368666Y-38394604D01*
X42545617Y-38180707D01*
X42760745Y-38005253D01*
X43005854Y-37874926D01*
X43271610Y-37794689D01*
X43547889Y-37767600D01*
X44072399Y-37767600D01*
X44083722Y-37767679D01*
X44083722Y-37767679D01*
G37*
G36*
X49256114Y-41563215D02*
X49724550Y-41659371D01*
X50165377Y-41844678D01*
X50561818Y-42112081D01*
X50898775Y-42451398D01*
X51163404Y-42849697D01*
X51345633Y-43291815D01*
X51438236Y-43759496D01*
X51438235Y-43759546D01*
X51438504Y-43760903D01*
X51430877Y-44307091D01*
X51430570Y-44308444D01*
X51430569Y-44308490D01*
X51324944Y-44773402D01*
X51130442Y-45210262D01*
X50854796Y-45601015D01*
X50508499Y-45930790D01*
X50104740Y-46187022D01*
X49658911Y-46359947D01*
X49187975Y-46442987D01*
X48709889Y-46432972D01*
X48242844Y-46330285D01*
X47804644Y-46138841D01*
X47411969Y-45865925D01*
X47079788Y-45521941D01*
X46820747Y-45119988D01*
X46644709Y-44675368D01*
X46558385Y-44205026D01*
X46565062Y-43726882D01*
X46664486Y-43259128D01*
X46852866Y-42819604D01*
X47123030Y-42425039D01*
X47464690Y-42090461D01*
X47864830Y-41828617D01*
X48308205Y-41649482D01*
X48777933Y-41559876D01*
X49256114Y-41563215D01*
X49256114Y-41563215D01*
G37*
G36*
X33339400Y-31578538D02*
X33612653Y-31634629D01*
X33869809Y-31742727D01*
X34101061Y-31898710D01*
X34297623Y-32096648D01*
X34451989Y-32328986D01*
X34558290Y-32586892D01*
X34612192Y-32859120D01*
X34612191Y-32859165D01*
X34612461Y-32860527D01*
X34608012Y-33179137D01*
X34607705Y-33180490D01*
X34607704Y-33180536D01*
X34546221Y-33451155D01*
X34432763Y-33705985D01*
X34271968Y-33933927D01*
X34069956Y-34126300D01*
X33834436Y-34275766D01*
X33574367Y-34376639D01*
X33299651Y-34425080D01*
X33020769Y-34419237D01*
X32748324Y-34359336D01*
X32492704Y-34247659D01*
X32263651Y-34088463D01*
X32069872Y-33887799D01*
X31918767Y-33653329D01*
X31816077Y-33393965D01*
X31765721Y-33119597D01*
X31769616Y-32840680D01*
X31827613Y-32567823D01*
X31937502Y-32311434D01*
X32095099Y-32081268D01*
X32294397Y-31886102D01*
X32527817Y-31733357D01*
X32786452Y-31628861D01*
X33060461Y-31576591D01*
X33339400Y-31578538D01*
X33339400Y-31578538D01*
G37*
G36*
X40959400Y-31578538D02*
X41232653Y-31634629D01*
X41489809Y-31742727D01*
X41721061Y-31898710D01*
X41917623Y-32096648D01*
X42071989Y-32328986D01*
X42178290Y-32586892D01*
X42232192Y-32859120D01*
X42232191Y-32859165D01*
X42232461Y-32860527D01*
X42228012Y-33179137D01*
X42227705Y-33180490D01*
X42227704Y-33180536D01*
X42166221Y-33451155D01*
X42052763Y-33705985D01*
X41891968Y-33933927D01*
X41689956Y-34126300D01*
X41454436Y-34275766D01*
X41194367Y-34376639D01*
X40919651Y-34425080D01*
X40640769Y-34419237D01*
X40368324Y-34359336D01*
X40112704Y-34247659D01*
X39883651Y-34088463D01*
X39689872Y-33887799D01*
X39538767Y-33653329D01*
X39436077Y-33393965D01*
X39385721Y-33119597D01*
X39389616Y-32840680D01*
X39447613Y-32567823D01*
X39557502Y-32311434D01*
X39715099Y-32081268D01*
X39914397Y-31886102D01*
X40147817Y-31733357D01*
X40406452Y-31628861D01*
X40680461Y-31576591D01*
X40959400Y-31578538D01*
X40959400Y-31578538D01*
G37*
G36*
X45149400Y-27308538D02*
X45422653Y-27364629D01*
X45679809Y-27472727D01*
X45911061Y-27628710D01*
X46107623Y-27826648D01*
X46261989Y-28058986D01*
X46368290Y-28316892D01*
X46422192Y-28589120D01*
X46422191Y-28589165D01*
X46422461Y-28590527D01*
X46418012Y-28909137D01*
X46417705Y-28910490D01*
X46417704Y-28910536D01*
X46356221Y-29181155D01*
X46242763Y-29435985D01*
X46081968Y-29663927D01*
X45883833Y-29852608D01*
X45848386Y-29897474D01*
X45826841Y-29950438D01*
X45820904Y-30007308D01*
X45831046Y-30063580D01*
X45856464Y-30114799D01*
X45910333Y-30168219D01*
X45911063Y-30168712D01*
X46107623Y-30366648D01*
X46261989Y-30598986D01*
X46368290Y-30856892D01*
X46422192Y-31129120D01*
X46422191Y-31129165D01*
X46422461Y-31130527D01*
X46418012Y-31449137D01*
X46417705Y-31450490D01*
X46417704Y-31450536D01*
X46356221Y-31721155D01*
X46242763Y-31975985D01*
X46081968Y-32203927D01*
X45879956Y-32396300D01*
X45644436Y-32545766D01*
X45384367Y-32646639D01*
X45109651Y-32695080D01*
X44830769Y-32689237D01*
X44558324Y-32629336D01*
X44302704Y-32517659D01*
X44073651Y-32358463D01*
X43879872Y-32157799D01*
X43728767Y-31923329D01*
X43626077Y-31663965D01*
X43575721Y-31389597D01*
X43579616Y-31110680D01*
X43637613Y-30837823D01*
X43747502Y-30581434D01*
X43905099Y-30351268D01*
X44117801Y-30142976D01*
X44152619Y-30097620D01*
X44173423Y-30044360D01*
X44178565Y-29987413D01*
X44167638Y-29931288D01*
X44141508Y-29880429D01*
X44091601Y-29830939D01*
X44073650Y-29818463D01*
X43879872Y-29617799D01*
X43728767Y-29383329D01*
X43626077Y-29123965D01*
X43575721Y-28849597D01*
X43579616Y-28570680D01*
X43637613Y-28297823D01*
X43747502Y-28041434D01*
X43905099Y-27811268D01*
X44104397Y-27616102D01*
X44337817Y-27463357D01*
X44596452Y-27358861D01*
X44870461Y-27306591D01*
X45149400Y-27308538D01*
X45149400Y-27308538D01*
G37*
G36*
X26256114Y-25563215D02*
X26724550Y-25659371D01*
X27165377Y-25844678D01*
X27561818Y-26112081D01*
X27898775Y-26451398D01*
X28163404Y-26849697D01*
X28345633Y-27291815D01*
X28438236Y-27759496D01*
X28438235Y-27759546D01*
X28438504Y-27760903D01*
X28430877Y-28307091D01*
X28430570Y-28308444D01*
X28430569Y-28308490D01*
X28324944Y-28773402D01*
X28130442Y-29210262D01*
X27854796Y-29601015D01*
X27508499Y-29930790D01*
X27104740Y-30187022D01*
X26658911Y-30359947D01*
X26187975Y-30442987D01*
X25709889Y-30432972D01*
X25242844Y-30330285D01*
X24804644Y-30138841D01*
X24411969Y-29865925D01*
X24079788Y-29521941D01*
X23820747Y-29119988D01*
X23644709Y-28675368D01*
X23558385Y-28205026D01*
X23565062Y-27726882D01*
X23664486Y-27259128D01*
X23852866Y-26819604D01*
X24123030Y-26425039D01*
X24464690Y-26090461D01*
X24864830Y-25828617D01*
X25308205Y-25649482D01*
X25777933Y-25559876D01*
X26256114Y-25563215D01*
X26256114Y-25563215D01*
G37*
G36*
X53419400Y-25578538D02*
X53692653Y-25634629D01*
X53949809Y-25742727D01*
X54181061Y-25898710D01*
X54377623Y-26096648D01*
X54531989Y-26328986D01*
X54638290Y-26586892D01*
X54692192Y-26859120D01*
X54692191Y-26859165D01*
X54692461Y-26860527D01*
X54688012Y-27179137D01*
X54687705Y-27180490D01*
X54687704Y-27180536D01*
X54626221Y-27451155D01*
X54512763Y-27705985D01*
X54351968Y-27933927D01*
X54149956Y-28126300D01*
X53914436Y-28275766D01*
X53654367Y-28376639D01*
X53379651Y-28425080D01*
X53100769Y-28419237D01*
X52828324Y-28359336D01*
X52572704Y-28247659D01*
X52343651Y-28088463D01*
X52144036Y-27881757D01*
X52098924Y-27846624D01*
X52045810Y-27825449D01*
X51988900Y-27819910D01*
X51932700Y-27830445D01*
X51881660Y-27856220D01*
X51831821Y-27905782D01*
X51811966Y-27933928D01*
X51609956Y-28126300D01*
X51374436Y-28275766D01*
X51114367Y-28376639D01*
X50839651Y-28425080D01*
X50560769Y-28419237D01*
X50288324Y-28359336D01*
X50032704Y-28247659D01*
X49803651Y-28088463D01*
X49609872Y-27887799D01*
X49458767Y-27653329D01*
X49356077Y-27393965D01*
X49305721Y-27119597D01*
X49309616Y-26840680D01*
X49367613Y-26567823D01*
X49477502Y-26311434D01*
X49635099Y-26081268D01*
X49834397Y-25886102D01*
X50067817Y-25733357D01*
X50326452Y-25628861D01*
X50600461Y-25576591D01*
X50879400Y-25578538D01*
X51152653Y-25634629D01*
X51409809Y-25742727D01*
X51641061Y-25898710D01*
X51851660Y-26110784D01*
X51851921Y-26110524D01*
X51869952Y-26130769D01*
X51918371Y-26161183D01*
X51973347Y-26176904D01*
X52030525Y-26176687D01*
X52085379Y-26160548D01*
X52133566Y-26129767D01*
X52168837Y-26090416D01*
X52175103Y-26081264D01*
X52374397Y-25886102D01*
X52607817Y-25733357D01*
X52866452Y-25628861D01*
X53140461Y-25576591D01*
X53419400Y-25578538D01*
X53419400Y-25578538D01*
G37*
G36*
X40959400Y-25578538D02*
X41232653Y-25634629D01*
X41489809Y-25742727D01*
X41721061Y-25898710D01*
X41917623Y-26096648D01*
X42071989Y-26328986D01*
X42178290Y-26586892D01*
X42232192Y-26859120D01*
X42232191Y-26859165D01*
X42232461Y-26860527D01*
X42228012Y-27179137D01*
X42227705Y-27180490D01*
X42227704Y-27180536D01*
X42166221Y-27451155D01*
X42052763Y-27705985D01*
X41891968Y-27933927D01*
X41689956Y-28126300D01*
X41454436Y-28275766D01*
X41194367Y-28376639D01*
X40919651Y-28425080D01*
X40640769Y-28419237D01*
X40368324Y-28359336D01*
X40112704Y-28247659D01*
X39883651Y-28088463D01*
X39689872Y-27887799D01*
X39538767Y-27653329D01*
X39436077Y-27393965D01*
X39385721Y-27119597D01*
X39389616Y-26840680D01*
X39447613Y-26567823D01*
X39557502Y-26311434D01*
X39715099Y-26081268D01*
X39914397Y-25886102D01*
X40147817Y-25733357D01*
X40406452Y-25628861D01*
X40680461Y-25576591D01*
X40959400Y-25578538D01*
X40959400Y-25578538D01*
G37*
G36*
X33339400Y-25578538D02*
X33612653Y-25634629D01*
X33869809Y-25742727D01*
X34101061Y-25898710D01*
X34297623Y-26096648D01*
X34451989Y-26328986D01*
X34558290Y-26586892D01*
X34612192Y-26859120D01*
X34612191Y-26859165D01*
X34612461Y-26860527D01*
X34608012Y-27179137D01*
X34607705Y-27180490D01*
X34607704Y-27180536D01*
X34546221Y-27451155D01*
X34432763Y-27705985D01*
X34271968Y-27933927D01*
X34069956Y-28126300D01*
X33834436Y-28275766D01*
X33574367Y-28376639D01*
X33299651Y-28425080D01*
X33020769Y-28419237D01*
X32748324Y-28359336D01*
X32492704Y-28247659D01*
X32263651Y-28088463D01*
X32069872Y-27887799D01*
X31918767Y-27653329D01*
X31816077Y-27393965D01*
X31765721Y-27119597D01*
X31769616Y-26840680D01*
X31827613Y-26567823D01*
X31937502Y-26311434D01*
X32095099Y-26081268D01*
X32294397Y-25886102D01*
X32527817Y-25733357D01*
X32786452Y-25628861D01*
X33060461Y-25576591D01*
X33339400Y-25578538D01*
X33339400Y-25578538D01*
G37*
M02*
