G04 #@! TF.FileFunction,Legend,Top*
%FSLAX46Y46*%
G04 Gerber Fmt 4.6, Leading zero omitted, Abs format (unit mm)*
G04 Created by KiCad (PCBNEW 4.0.2-stable) date 05/06/2017 19:07:13*
%MOMM*%
G01*
G04 APERTURE LIST*
%ADD10C,0.100000*%
%ADD11C,0.200000*%
%ADD12C,0.254000*%
%ADD13C,0.203200*%
%ADD14C,0.076200*%
%ADD15C,0.152400*%
%ADD16C,0.381000*%
%ADD17C,0.088900*%
G04 APERTURE END LIST*
D10*
D11*
X47000000Y-66000000D02*
X43000000Y-70000000D01*
X51500000Y-66000000D02*
X47000000Y-66000000D01*
X55500000Y-62000000D02*
X51500000Y-66000000D01*
X55500000Y-49000000D02*
X55500000Y-62000000D01*
X57500000Y-47000000D02*
X55500000Y-49000000D01*
X57500000Y-26500000D02*
X57500000Y-47000000D01*
X53500000Y-22500000D02*
X57500000Y-26500000D01*
X40000000Y-22500000D02*
X53500000Y-22500000D01*
X38500000Y-24000000D02*
X40000000Y-22500000D01*
X24000000Y-24000000D02*
X38500000Y-24000000D01*
X22000000Y-26000000D02*
X24000000Y-24000000D01*
X22000000Y-30000000D02*
X22000000Y-26000000D01*
X24000000Y-32000000D02*
X22000000Y-30000000D01*
X28000000Y-32000000D02*
X24000000Y-32000000D01*
X30000000Y-34000000D02*
X28000000Y-32000000D01*
X30000000Y-38000000D02*
X30000000Y-34000000D01*
X28000000Y-40000000D02*
X30000000Y-38000000D01*
X23000000Y-40000000D02*
X28000000Y-40000000D01*
X21000000Y-42000000D02*
X23000000Y-40000000D01*
X21000000Y-50000000D02*
X21000000Y-42000000D01*
X21500000Y-50500000D02*
X21000000Y-50000000D01*
X23000000Y-52000000D02*
X21500000Y-50500000D01*
X23000000Y-63000000D02*
X23000000Y-52000000D01*
X30000000Y-70000000D02*
X23000000Y-63000000D01*
X43000000Y-70000000D02*
X30000000Y-70000000D01*
D12*
X42292485Y-68707846D02*
X35761763Y-60924834D01*
X44238237Y-67075166D02*
X37707515Y-59292154D01*
X37707515Y-59292154D02*
X35761763Y-60924834D01*
X42292485Y-68707846D02*
X44238237Y-67075166D01*
D13*
X30844800Y-60905000D02*
X30844800Y-57095000D01*
D14*
X30050051Y-59000000D02*
G75*
G03X30050051Y-59000000I-1796051J0D01*
G01*
D12*
X30791997Y-57092332D02*
G75*
G03X30794000Y-60905000I-2537997J-1907668D01*
G01*
D15*
X28254000Y-57857000D02*
G75*
G03X27111000Y-59000000I0J-1143000D01*
G01*
X28254000Y-60143000D02*
G75*
G03X29397000Y-59000000I0J1143000D01*
G01*
X28254000Y-57349000D02*
G75*
G03X26603000Y-59000000I0J-1651000D01*
G01*
X28254000Y-60651000D02*
G75*
G03X29905000Y-59000000I0J1651000D01*
G01*
X28254000Y-56841000D02*
G75*
G03X26095000Y-59000000I0J-2159000D01*
G01*
X28254000Y-61159000D02*
G75*
G03X30413000Y-59000000I0J2159000D01*
G01*
D13*
X49155200Y-25095000D02*
X49155200Y-28905000D01*
D14*
X53542051Y-27000000D02*
G75*
G03X53542051Y-27000000I-1796051J0D01*
G01*
D12*
X49208003Y-28907668D02*
G75*
G03X49206000Y-25095000I2537997J1907668D01*
G01*
D15*
X51746000Y-28143000D02*
G75*
G03X52889000Y-27000000I0J1143000D01*
G01*
X51746000Y-25857000D02*
G75*
G03X50603000Y-27000000I0J-1143000D01*
G01*
X51746000Y-28651000D02*
G75*
G03X53397000Y-27000000I0J1651000D01*
G01*
X51746000Y-25349000D02*
G75*
G03X50095000Y-27000000I0J-1651000D01*
G01*
X51746000Y-29159000D02*
G75*
G03X53905000Y-27000000I0J2159000D01*
G01*
X51746000Y-24841000D02*
G75*
G03X49587000Y-27000000I0J-2159000D01*
G01*
D16*
X28286000Y-28000000D02*
G75*
G03X28286000Y-28000000I-2286000J0D01*
G01*
X37286000Y-56000000D02*
G75*
G03X37286000Y-56000000I-2286000J0D01*
G01*
X51286000Y-44000000D02*
G75*
G03X51286000Y-44000000I-2286000J0D01*
G01*
D13*
X41111635Y-62088297D02*
X41889937Y-61435224D01*
X42138726Y-61731720D01*
X42163861Y-61836942D01*
X42157898Y-61905103D01*
X42114872Y-62004362D01*
X42003686Y-62097659D01*
X41898464Y-62122794D01*
X41830303Y-62116831D01*
X41731044Y-62073805D01*
X41482255Y-61777310D01*
X42106793Y-63274279D02*
X41733609Y-62829536D01*
X41920201Y-63051908D02*
X42698502Y-62398836D01*
X42525119Y-62418008D01*
X42388798Y-62406081D01*
X42289538Y-62363056D01*
D17*
X27437572Y-55534714D02*
X27437572Y-54772714D01*
X27619000Y-54772714D01*
X27727857Y-54809000D01*
X27800429Y-54881571D01*
X27836714Y-54954143D01*
X27873000Y-55099286D01*
X27873000Y-55208143D01*
X27836714Y-55353286D01*
X27800429Y-55425857D01*
X27727857Y-55498429D01*
X27619000Y-55534714D01*
X27437572Y-55534714D01*
X28598714Y-55534714D02*
X28163286Y-55534714D01*
X28381000Y-55534714D02*
X28381000Y-54772714D01*
X28308429Y-54881571D01*
X28235857Y-54954143D01*
X28163286Y-54990429D01*
X26167572Y-63154714D02*
X25804715Y-63154714D01*
X25804715Y-62392714D01*
X26421572Y-62755571D02*
X26675572Y-62755571D01*
X26784429Y-63154714D02*
X26421572Y-63154714D01*
X26421572Y-62392714D01*
X26784429Y-62392714D01*
X27111001Y-63154714D02*
X27111001Y-62392714D01*
X27292429Y-62392714D01*
X27401286Y-62429000D01*
X27473858Y-62501571D01*
X27510143Y-62574143D01*
X27546429Y-62719286D01*
X27546429Y-62828143D01*
X27510143Y-62973286D01*
X27473858Y-63045857D01*
X27401286Y-63118429D01*
X27292429Y-63154714D01*
X27111001Y-63154714D01*
X28417286Y-62937000D02*
X28780143Y-62937000D01*
X28344714Y-63154714D02*
X28598714Y-62392714D01*
X28852714Y-63154714D01*
X29034143Y-62392714D02*
X29505857Y-62392714D01*
X29251857Y-62683000D01*
X29360715Y-62683000D01*
X29433286Y-62719286D01*
X29469572Y-62755571D01*
X29505857Y-62828143D01*
X29505857Y-63009571D01*
X29469572Y-63082143D01*
X29433286Y-63118429D01*
X29360715Y-63154714D01*
X29143000Y-63154714D01*
X29070429Y-63118429D01*
X29034143Y-63082143D01*
X30231571Y-63154714D02*
X29796143Y-63154714D01*
X30013857Y-63154714D02*
X30013857Y-62392714D01*
X29941286Y-62501571D01*
X29868714Y-62574143D01*
X29796143Y-62610429D01*
X51437572Y-31154714D02*
X51437572Y-30392714D01*
X51619000Y-30392714D01*
X51727857Y-30429000D01*
X51800429Y-30501571D01*
X51836714Y-30574143D01*
X51873000Y-30719286D01*
X51873000Y-30828143D01*
X51836714Y-30973286D01*
X51800429Y-31045857D01*
X51727857Y-31118429D01*
X51619000Y-31154714D01*
X51437572Y-31154714D01*
X52163286Y-30465286D02*
X52199572Y-30429000D01*
X52272143Y-30392714D01*
X52453572Y-30392714D01*
X52526143Y-30429000D01*
X52562429Y-30465286D01*
X52598714Y-30537857D01*
X52598714Y-30610429D01*
X52562429Y-30719286D01*
X52127000Y-31154714D01*
X52598714Y-31154714D01*
X50113144Y-23534714D02*
X49750287Y-23534714D01*
X49750287Y-22772714D01*
X50367144Y-23135571D02*
X50621144Y-23135571D01*
X50730001Y-23534714D02*
X50367144Y-23534714D01*
X50367144Y-22772714D01*
X50730001Y-22772714D01*
X51056573Y-23534714D02*
X51056573Y-22772714D01*
X51238001Y-22772714D01*
X51346858Y-22809000D01*
X51419430Y-22881571D01*
X51455715Y-22954143D01*
X51492001Y-23099286D01*
X51492001Y-23208143D01*
X51455715Y-23353286D01*
X51419430Y-23425857D01*
X51346858Y-23498429D01*
X51238001Y-23534714D01*
X51056573Y-23534714D01*
X52653144Y-23135571D02*
X52762001Y-23171857D01*
X52798286Y-23208143D01*
X52834572Y-23280714D01*
X52834572Y-23389571D01*
X52798286Y-23462143D01*
X52762001Y-23498429D01*
X52689429Y-23534714D01*
X52399144Y-23534714D01*
X52399144Y-22772714D01*
X52653144Y-22772714D01*
X52725715Y-22809000D01*
X52762001Y-22845286D01*
X52798286Y-22917857D01*
X52798286Y-22990429D01*
X52762001Y-23063000D01*
X52725715Y-23099286D01*
X52653144Y-23135571D01*
X52399144Y-23135571D01*
X53088572Y-22772714D02*
X53560286Y-22772714D01*
X53306286Y-23063000D01*
X53415144Y-23063000D01*
X53487715Y-23099286D01*
X53524001Y-23135571D01*
X53560286Y-23208143D01*
X53560286Y-23389571D01*
X53524001Y-23462143D01*
X53487715Y-23498429D01*
X53415144Y-23534714D01*
X53197429Y-23534714D01*
X53124858Y-23498429D01*
X53088572Y-23462143D01*
X54286000Y-23534714D02*
X53850572Y-23534714D01*
X54068286Y-23534714D02*
X54068286Y-22772714D01*
X53995715Y-22881571D01*
X53923143Y-22954143D01*
X53850572Y-22990429D01*
D12*
X25008190Y-25411619D02*
X24427619Y-25411619D01*
X24717905Y-25411619D02*
X24717905Y-24395619D01*
X24621143Y-24540762D01*
X24524381Y-24637524D01*
X24427619Y-24685905D01*
X25443619Y-25411619D02*
X25443619Y-24395619D01*
X25830666Y-24395619D01*
X25927428Y-24444000D01*
X25975809Y-24492381D01*
X26024190Y-24589143D01*
X26024190Y-24734286D01*
X25975809Y-24831048D01*
X25927428Y-24879429D01*
X25830666Y-24927810D01*
X25443619Y-24927810D01*
X26459619Y-25411619D02*
X26459619Y-24395619D01*
X26943429Y-25411619D02*
X26943429Y-24395619D01*
X27524000Y-25411619D01*
X27524000Y-24395619D01*
X34008190Y-53411619D02*
X33427619Y-53411619D01*
X33717905Y-53411619D02*
X33717905Y-52395619D01*
X33621143Y-52540762D01*
X33524381Y-52637524D01*
X33427619Y-52685905D01*
X34443619Y-53411619D02*
X34443619Y-52395619D01*
X34830666Y-52395619D01*
X34927428Y-52444000D01*
X34975809Y-52492381D01*
X35024190Y-52589143D01*
X35024190Y-52734286D01*
X34975809Y-52831048D01*
X34927428Y-52879429D01*
X34830666Y-52927810D01*
X34443619Y-52927810D01*
X35459619Y-53411619D02*
X35459619Y-52395619D01*
X35943429Y-53411619D02*
X35943429Y-52395619D01*
X36524000Y-53411619D01*
X36524000Y-52395619D01*
X48008190Y-41411619D02*
X47427619Y-41411619D01*
X47717905Y-41411619D02*
X47717905Y-40395619D01*
X47621143Y-40540762D01*
X47524381Y-40637524D01*
X47427619Y-40685905D01*
X48443619Y-41411619D02*
X48443619Y-40395619D01*
X48830666Y-40395619D01*
X48927428Y-40444000D01*
X48975809Y-40492381D01*
X49024190Y-40589143D01*
X49024190Y-40734286D01*
X48975809Y-40831048D01*
X48927428Y-40879429D01*
X48830666Y-40927810D01*
X48443619Y-40927810D01*
X49459619Y-41411619D02*
X49459619Y-40395619D01*
X49943429Y-41411619D02*
X49943429Y-40395619D01*
X50524000Y-41411619D01*
X50524000Y-40395619D01*
M02*
