M48
;DRILL file {KiCad 4.0.2-stable} date 05/06/2017 19:07:50
;FORMAT={-:-/ absolute / metric / decimal}
FMAT,2
METRIC,TZ
T1C0.813
T2C3.048
%
G90
G05
M71
T1
X24.Y-44.73
X24.Y-47.27
X26.73Y-59.
X28.Y-44.73
X28.Y-47.27
X29.27Y-59.
X33.19Y-27.
X33.19Y-33.
X36.19Y-39.19
X36.19Y-41.73
X36.19Y-44.27
X36.19Y-46.81
X37.551Y-61.081
X39.184Y-63.027
X40.81Y-27.
X40.81Y-33.
X40.816Y-64.973
X42.Y-53.73
X42.Y-56.27
X42.449Y-66.919
X43.81Y-39.19
X43.81Y-41.73
X43.81Y-44.27
X43.81Y-46.81
X45.Y-28.73
X45.Y-31.27
X45.19Y-52.
X45.19Y-59.
X50.73Y-27.
X52.81Y-52.
X52.81Y-59.
X53.27Y-27.
T2
X26.Y-28.
X35.Y-56.
X49.Y-44.
T0
M30
