G04 #@! TF.FileFunction,Profile,NP*
%FSLAX46Y46*%
G04 Gerber Fmt 4.6, Leading zero omitted, Abs format (unit mm)*
G04 Created by KiCad (PCBNEW 4.0.2-stable) date 05/06/2017 19:07:13*
%MOMM*%
G01*
G04 APERTURE LIST*
%ADD10C,0.100000*%
%ADD11C,0.300000*%
%ADD12C,0.150000*%
G04 APERTURE END LIST*
D10*
D11*
X33535716Y-17828572D02*
X34464287Y-17828572D01*
X33964287Y-18400001D01*
X34178573Y-18400001D01*
X34321430Y-18471430D01*
X34392859Y-18542858D01*
X34464287Y-18685715D01*
X34464287Y-19042858D01*
X34392859Y-19185715D01*
X34321430Y-19257144D01*
X34178573Y-19328572D01*
X33750001Y-19328572D01*
X33607144Y-19257144D01*
X33535716Y-19185715D01*
X35750001Y-17828572D02*
X35464287Y-17828572D01*
X35321430Y-17900001D01*
X35250001Y-17971430D01*
X35107144Y-18185715D01*
X35035715Y-18471430D01*
X35035715Y-19042858D01*
X35107144Y-19185715D01*
X35178572Y-19257144D01*
X35321430Y-19328572D01*
X35607144Y-19328572D01*
X35750001Y-19257144D01*
X35821430Y-19185715D01*
X35892858Y-19042858D01*
X35892858Y-18685715D01*
X35821430Y-18542858D01*
X35750001Y-18471430D01*
X35607144Y-18400001D01*
X35321430Y-18400001D01*
X35178572Y-18471430D01*
X35107144Y-18542858D01*
X35035715Y-18685715D01*
X36607143Y-19257144D02*
X36607143Y-19328572D01*
X36535715Y-19471430D01*
X36464286Y-19542858D01*
X37964287Y-17828572D02*
X37250001Y-17828572D01*
X37178572Y-18542858D01*
X37250001Y-18471430D01*
X37392858Y-18400001D01*
X37750001Y-18400001D01*
X37892858Y-18471430D01*
X37964287Y-18542858D01*
X38035715Y-18685715D01*
X38035715Y-19042858D01*
X37964287Y-19185715D01*
X37892858Y-19257144D01*
X37750001Y-19328572D01*
X37392858Y-19328572D01*
X37250001Y-19257144D01*
X37178572Y-19185715D01*
X38964286Y-17828572D02*
X39107143Y-17828572D01*
X39250000Y-17900001D01*
X39321429Y-17971430D01*
X39392858Y-18114287D01*
X39464286Y-18400001D01*
X39464286Y-18757144D01*
X39392858Y-19042858D01*
X39321429Y-19185715D01*
X39250000Y-19257144D01*
X39107143Y-19328572D01*
X38964286Y-19328572D01*
X38821429Y-19257144D01*
X38750000Y-19185715D01*
X38678572Y-19042858D01*
X38607143Y-18757144D01*
X38607143Y-18400001D01*
X38678572Y-18114287D01*
X38750000Y-17971430D01*
X38821429Y-17900001D01*
X38964286Y-17828572D01*
X40392857Y-17828572D02*
X40535714Y-17828572D01*
X40678571Y-17900001D01*
X40750000Y-17971430D01*
X40821429Y-18114287D01*
X40892857Y-18400001D01*
X40892857Y-18757144D01*
X40821429Y-19042858D01*
X40750000Y-19185715D01*
X40678571Y-19257144D01*
X40535714Y-19328572D01*
X40392857Y-19328572D01*
X40250000Y-19257144D01*
X40178571Y-19185715D01*
X40107143Y-19042858D01*
X40035714Y-18757144D01*
X40035714Y-18400001D01*
X40107143Y-18114287D01*
X40178571Y-17971430D01*
X40250000Y-17900001D01*
X40392857Y-17828572D01*
X41535714Y-19328572D02*
X41535714Y-18328572D01*
X41535714Y-18471430D02*
X41607142Y-18400001D01*
X41750000Y-18328572D01*
X41964285Y-18328572D01*
X42107142Y-18400001D01*
X42178571Y-18542858D01*
X42178571Y-19328572D01*
X42178571Y-18542858D02*
X42250000Y-18400001D01*
X42392857Y-18328572D01*
X42607142Y-18328572D01*
X42750000Y-18400001D01*
X42821428Y-18542858D01*
X42821428Y-19328572D01*
X43535714Y-19328572D02*
X43535714Y-18328572D01*
X43535714Y-18471430D02*
X43607142Y-18400001D01*
X43750000Y-18328572D01*
X43964285Y-18328572D01*
X44107142Y-18400001D01*
X44178571Y-18542858D01*
X44178571Y-19328572D01*
X44178571Y-18542858D02*
X44250000Y-18400001D01*
X44392857Y-18328572D01*
X44607142Y-18328572D01*
X44750000Y-18400001D01*
X44821428Y-18542858D01*
X44821428Y-19328572D01*
X21000000Y-20000001D02*
X57500000Y-20000001D01*
X21000000Y-42000000D02*
X21000000Y-17300001D01*
X57500000Y-42000000D02*
X57500000Y-17300001D01*
X57500000Y-20000001D02*
X56373497Y-20586421D01*
X57500000Y-20000001D02*
X56373497Y-19413581D01*
X21000000Y-20000001D02*
X22126503Y-20586421D01*
X21000000Y-20000001D02*
X22126503Y-19413581D01*
D12*
X55500000Y-62000000D02*
X55500000Y-49000000D01*
X51500000Y-66000000D02*
X55500000Y-62000000D01*
X47000000Y-66000000D02*
X51500000Y-66000000D01*
X43000000Y-70000000D02*
X47000000Y-66000000D01*
X57500000Y-26500000D02*
X56500000Y-25500000D01*
X57500000Y-47000000D02*
X57500000Y-26500000D01*
X55500000Y-49000000D02*
X57500000Y-47000000D01*
X55500000Y-62000000D02*
X55500000Y-49000000D01*
X54500000Y-63000000D02*
X55500000Y-62000000D01*
D11*
X62028571Y-51178570D02*
X63028571Y-51178570D01*
X61457143Y-51535713D02*
X62528571Y-51892856D01*
X62528571Y-50964284D01*
X61528571Y-50535713D02*
X61528571Y-49535713D01*
X63028571Y-50178570D01*
X62957143Y-48892857D02*
X63028571Y-48892857D01*
X63171429Y-48964285D01*
X63242857Y-49035714D01*
X61528571Y-47535713D02*
X61528571Y-48249999D01*
X62242857Y-48321428D01*
X62171429Y-48249999D01*
X62100000Y-48107142D01*
X62100000Y-47749999D01*
X62171429Y-47607142D01*
X62242857Y-47535713D01*
X62385714Y-47464285D01*
X62742857Y-47464285D01*
X62885714Y-47535713D01*
X62957143Y-47607142D01*
X63028571Y-47749999D01*
X63028571Y-48107142D01*
X62957143Y-48249999D01*
X62885714Y-48321428D01*
X61528571Y-46535714D02*
X61528571Y-46392857D01*
X61600000Y-46250000D01*
X61671429Y-46178571D01*
X61814286Y-46107142D01*
X62100000Y-46035714D01*
X62457143Y-46035714D01*
X62742857Y-46107142D01*
X62885714Y-46178571D01*
X62957143Y-46250000D01*
X63028571Y-46392857D01*
X63028571Y-46535714D01*
X62957143Y-46678571D01*
X62885714Y-46750000D01*
X62742857Y-46821428D01*
X62457143Y-46892857D01*
X62100000Y-46892857D01*
X61814286Y-46821428D01*
X61671429Y-46750000D01*
X61600000Y-46678571D01*
X61528571Y-46535714D01*
X61528571Y-45107143D02*
X61528571Y-44964286D01*
X61600000Y-44821429D01*
X61671429Y-44750000D01*
X61814286Y-44678571D01*
X62100000Y-44607143D01*
X62457143Y-44607143D01*
X62742857Y-44678571D01*
X62885714Y-44750000D01*
X62957143Y-44821429D01*
X63028571Y-44964286D01*
X63028571Y-45107143D01*
X62957143Y-45250000D01*
X62885714Y-45321429D01*
X62742857Y-45392857D01*
X62457143Y-45464286D01*
X62100000Y-45464286D01*
X61814286Y-45392857D01*
X61671429Y-45321429D01*
X61600000Y-45250000D01*
X61528571Y-45107143D01*
X63028571Y-43964286D02*
X62028571Y-43964286D01*
X62171429Y-43964286D02*
X62100000Y-43892858D01*
X62028571Y-43750000D01*
X62028571Y-43535715D01*
X62100000Y-43392858D01*
X62242857Y-43321429D01*
X63028571Y-43321429D01*
X62242857Y-43321429D02*
X62100000Y-43250000D01*
X62028571Y-43107143D01*
X62028571Y-42892858D01*
X62100000Y-42750000D01*
X62242857Y-42678572D01*
X63028571Y-42678572D01*
X63028571Y-41964286D02*
X62028571Y-41964286D01*
X62171429Y-41964286D02*
X62100000Y-41892858D01*
X62028571Y-41750000D01*
X62028571Y-41535715D01*
X62100000Y-41392858D01*
X62242857Y-41321429D01*
X63028571Y-41321429D01*
X62242857Y-41321429D02*
X62100000Y-41250000D01*
X62028571Y-41107143D01*
X62028571Y-40892858D01*
X62100000Y-40750000D01*
X62242857Y-40678572D01*
X63028571Y-40678572D01*
X61000000Y-70000000D02*
X61000000Y-22500000D01*
X43000000Y-70000000D02*
X63700000Y-70000000D01*
X43000000Y-22500000D02*
X63700000Y-22500000D01*
X61000000Y-22500000D02*
X61586420Y-23626503D01*
X61000000Y-22500000D02*
X60413580Y-23626503D01*
X61000000Y-70000000D02*
X61586420Y-68873497D01*
X61000000Y-70000000D02*
X60413580Y-68873497D01*
D12*
X23000000Y-63000000D02*
X23000000Y-52000000D01*
X40000000Y-70000000D02*
X30000000Y-70000000D01*
X23000000Y-63000000D02*
X30000000Y-70000000D01*
X21000000Y-42000000D02*
X23000000Y-40000000D01*
X21000000Y-50000000D02*
X23000000Y-52000000D01*
X21000000Y-42000000D02*
X21000000Y-50000000D01*
X22000000Y-26000000D02*
X22000000Y-30000000D01*
X30000000Y-38000000D02*
X30000000Y-34000000D01*
X28000000Y-40000000D02*
X30000000Y-38000000D01*
X27000000Y-40000000D02*
X28000000Y-40000000D01*
X28000000Y-32000000D02*
X30000000Y-34000000D01*
X26000000Y-32000000D02*
X28000000Y-32000000D01*
X24000000Y-32000000D02*
X22000000Y-30000000D01*
X26000000Y-32000000D02*
X24000000Y-32000000D01*
X53500000Y-22500000D02*
X56500000Y-25500000D01*
X40000000Y-22500000D02*
X53500000Y-22500000D01*
X38500000Y-24000000D02*
X40000000Y-22500000D01*
X24000000Y-24000000D02*
X38500000Y-24000000D01*
X22000000Y-26000000D02*
X24000000Y-24000000D01*
X43000000Y-70000000D02*
X40000000Y-70000000D01*
X47000000Y-66000000D02*
X43000000Y-70000000D01*
X51500000Y-66000000D02*
X47000000Y-66000000D01*
X54500000Y-63000000D02*
X51500000Y-66000000D01*
X23000000Y-40000000D02*
X27000000Y-40000000D01*
M02*
